{"glyphs":{"0":{"ha":819,"x_min":65,"x_max":754,"o":"m 412 -9 q 281 22 344 -9 q 170 116 219 54 q 93 272 121 178 q 65 489 65 365 q 93 711 65 616 q 170 867 121 805 q 279 959 218 928 q 407 989 340 989 q 539 957 476 989 q 650 863 602 926 q 726 707 699 800 q 754 490 754 614 q 726 269 754 363 q 651 113 699 174 q 541 21 603 51 q 412 -9 479 -9 m 412 -7 q 498 20 461 -7 q 560 104 535 47 q 598 251 585 161 q 610 465 610 340 q 597 689 610 592 q 558 853 584 787 q 494 953 532 919 q 407 987 456 987 q 322 960 359 987 q 260 875 286 932 q 222 728 235 818 q 209 515 209 639 q 222 290 209 388 q 262 126 236 193 q 326 26 288 60 q 412 -7 364 -7 "},"1":{"ha":439,"x_min":58,"x_max":392,"o":"m 290 983 l 284 111 q 293 52 284 73 q 325 20 302 31 q 392 1 349 9 l 392 0 l 64 0 l 64 1 q 127 19 105 8 q 158 51 149 30 q 166 111 166 73 l 166 891 l 58 849 l 58 850 q 144 914 106 882 q 215 983 182 947 l 290 983 "},"2":{"ha":608,"x_min":27,"x_max":559,"o":"m 553 0 l 35 0 l 35 92 l 47 104 q 226 292 154 211 q 342 437 298 372 q 404 561 385 502 q 423 682 423 619 q 368 845 423 783 q 227 907 313 907 q 97 865 149 907 q 27 758 45 823 l 27 759 q 112 926 39 863 q 304 989 184 989 q 434 956 378 989 q 522 866 490 924 q 553 732 553 808 q 514 566 553 644 q 393 406 475 489 q 184 218 312 323 l 48 104 l 48 104 l 559 104 l 553 0 "},"3":{"ha":699,"x_min":68,"x_max":644,"o":"m 324 -9 q 194 16 252 -9 q 102 87 136 42 q 68 189 68 132 l 69 189 q 97 99 69 138 q 170 37 124 60 q 270 15 215 15 q 392 46 337 15 q 479 134 447 77 q 511 271 511 191 q 426 450 511 380 q 186 519 340 519 l 186 521 q 410 611 345 551 q 475 746 475 671 q 425 864 475 820 q 294 907 375 907 q 154 868 210 907 q 74 766 97 829 l 74 767 q 123 879 86 828 q 218 959 159 929 q 357 989 277 989 q 483 962 429 989 q 569 889 538 936 q 600 781 600 842 q 569 681 600 726 q 483 606 538 636 q 355 568 428 576 l 355 568 q 504 531 438 568 q 607 433 569 494 q 644 296 644 371 q 614 164 644 221 q 536 68 585 107 q 432 10 488 30 q 324 -9 376 -9 m 129 249 q 173 231 155 249 q 191 189 191 214 q 173 143 191 160 q 128 125 154 125 q 86 143 104 125 q 68 189 68 160 l 68 189 q 86 232 68 214 q 129 249 105 249 "},"4":{"ha":711,"x_min":17,"x_max":692,"o":"m 440 0 l 440 255 l 17 255 l 17 294 l 488 983 l 551 983 l 551 351 l 692 351 l 687 255 l 551 255 l 551 0 l 440 0 m 440 350 l 440 910 l 441 910 l 96 350 l 96 350 l 440 350 "},"5":{"ha":661,"x_min":57,"x_max":604,"o":"m 294 -9 q 164 19 216 -9 q 84 90 111 47 q 57 175 57 133 l 58 175 q 81 99 58 136 q 148 38 104 62 q 250 15 191 15 q 361 44 311 15 q 441 132 411 74 q 471 276 471 191 q 440 416 471 358 q 358 505 409 474 q 248 535 307 535 q 149 512 190 535 q 86 454 107 490 l 83 454 l 178 979 l 572 979 l 566 871 l 171 871 l 87 461 l 87 461 q 136 526 102 495 q 222 577 170 557 q 341 597 273 597 q 471 561 411 597 q 568 457 531 524 q 604 302 604 391 q 558 137 604 207 q 441 29 513 67 q 294 -9 370 -9 m 118 238 q 162 220 144 238 q 180 178 180 203 q 162 132 180 149 q 117 115 143 115 q 76 131 94 115 q 58 175 58 148 l 57 175 q 76 220 57 202 q 118 238 94 238 "},"6":{"ha":758,"x_min":63,"x_max":709,"o":"m 63 395 q 107 635 63 527 q 233 823 152 744 q 425 943 315 901 q 668 984 536 985 l 668 983 q 400 883 504 966 q 246 661 296 800 q 197 335 197 522 l 197 335 l 197 335 q 222 144 197 220 q 291 31 247 68 q 394 -7 336 -7 q 490 28 449 -7 q 553 127 530 64 q 575 269 575 189 q 523 460 575 391 q 382 529 470 529 q 250 476 302 529 q 197 335 197 424 l 197 335 q 227 464 197 408 q 313 551 257 519 q 444 582 368 582 q 581 548 522 582 q 675 451 641 513 q 709 306 709 389 q 681 166 709 226 q 605 68 652 107 q 503 10 558 29 q 394 -9 448 -9 q 227 38 302 -9 q 107 175 152 85 q 63 395 63 266 "},"7":{"ha":629,"x_min":37,"x_max":585,"o":"m 273 0 l 132 0 l 132 1 q 276 330 203 178 q 426 615 349 481 q 584 872 502 749 l 584 871 l 37 871 l 42 979 l 585 979 l 585 871 q 472 614 527 752 q 368 323 418 477 q 273 0 317 169 "},"8":{"ha":770,"x_min":64,"x_max":707,"o":"m 707 249 q 661 105 707 163 q 541 19 614 47 q 387 -9 467 -9 q 227 14 300 -9 q 110 88 154 37 q 64 220 65 138 q 97 345 64 292 q 188 433 131 397 q 316 488 245 468 l 317 487 q 210 389 247 452 q 173 237 172 326 q 201 112 174 167 q 277 24 229 56 q 387 -7 325 -7 q 542 44 484 -7 q 599 184 599 96 q 579 277 599 236 q 515 358 560 319 q 393 441 470 397 l 292 500 q 189 572 233 534 q 122 654 146 609 q 98 758 98 699 q 136 887 98 836 q 239 963 174 938 q 386 989 304 989 q 537 963 472 989 q 637 890 602 937 q 673 782 673 844 q 644 682 673 726 q 563 605 614 637 q 445 553 511 572 l 444 554 q 533 642 502 584 q 565 772 565 700 q 545 880 565 831 q 485 958 524 928 q 386 987 445 987 q 254 941 302 987 q 207 822 207 895 q 246 701 207 751 q 373 600 285 651 l 473 541 q 606 452 554 495 q 682 360 657 409 q 707 249 707 312 "},"9":{"ha":758,"x_min":49,"x_max":695,"o":"m 695 584 q 651 344 695 452 q 525 157 606 235 q 333 36 444 78 q 90 -5 222 -6 l 90 -4 q 358 96 254 14 q 512 318 463 179 q 562 644 562 457 l 562 644 l 561 644 q 536 835 561 759 q 467 949 511 911 q 364 987 422 987 q 269 951 309 987 q 205 852 228 915 q 183 711 183 790 q 236 519 183 588 q 376 450 288 450 q 509 503 457 450 q 561 644 561 555 l 562 644 q 531 515 562 571 q 446 429 501 460 q 314 397 391 397 q 177 432 237 397 q 83 528 117 466 q 49 673 49 591 q 78 813 49 753 q 153 911 106 872 q 255 969 200 950 q 364 989 311 989 q 531 942 456 989 q 651 804 606 895 q 695 584 695 714 "}," ":{"ha":271,"x_min":0,"x_max":0,"o":""},"A":{"ha":844,"x_min":-11,"x_max":854,"o":"m 736 144 q 771 63 755 93 q 807 20 787 34 q 854 1 827 6 l 854 0 l 538 0 l 538 1 q 591 21 573 5 q 609 67 608 37 q 593 144 610 97 l 358 814 l 358 814 l 149 198 q 120 85 125 126 q 134 26 115 45 q 197 1 152 7 l 197 0 l -11 0 l -11 1 q 39 23 18 6 q 81 81 60 40 q 131 201 102 123 l 416 979 l 439 979 l 736 144 m 197 361 l 199 369 l 583 369 l 583 361 l 197 361 "},"Á":{"ha":844,"x_min":-11,"x_max":854,"o":"m 736 144 q 771 63 755 93 q 807 20 787 34 q 854 1 827 6 l 854 0 l 538 0 l 538 1 q 591 21 573 5 q 609 67 608 37 q 593 144 610 97 l 358 814 l 358 814 l 149 198 q 120 85 125 126 q 134 26 115 45 q 197 1 152 7 l 197 0 l -11 0 l -11 1 q 39 23 18 6 q 81 81 60 40 q 131 201 102 123 l 416 979 l 439 979 l 736 144 m 197 361 l 199 369 l 583 369 l 583 361 l 197 361 m 407 1025 l 406 1025 l 479 1200 l 606 1200 l 606 1198 l 407 1025 "},"À":{"ha":844,"x_min":-11,"x_max":854,"o":"m 736 144 q 771 63 755 93 q 807 20 787 34 q 854 1 827 6 l 854 0 l 538 0 l 538 1 q 591 21 573 5 q 609 67 608 37 q 593 144 610 97 l 358 814 l 358 814 l 149 198 q 120 85 125 126 q 134 26 115 45 q 197 1 152 7 l 197 0 l -11 0 l -11 1 q 39 23 18 6 q 81 81 60 40 q 131 201 102 123 l 416 979 l 439 979 l 736 144 m 197 361 l 199 369 l 583 369 l 583 361 l 197 361 m 459 1026 l 258 1199 l 258 1200 l 389 1200 l 460 1026 l 459 1026 "},"Ȁ":{"ha":844,"x_min":-11,"x_max":854,"o":"m 736 144 q 771 63 755 93 q 807 20 787 34 q 854 1 827 6 l 854 0 l 538 0 l 538 1 q 591 21 573 5 q 609 67 608 37 q 593 144 610 97 l 358 814 l 358 814 l 149 198 q 120 85 125 126 q 134 26 115 45 q 197 1 152 7 l 197 0 l -11 0 l -11 1 q 39 23 18 6 q 81 81 60 40 q 131 201 102 123 l 416 979 l 439 979 l 736 144 m 197 361 l 199 369 l 583 369 l 583 361 l 197 361 m 298 1200 l 379 1025 l 378 1025 l 178 1199 l 178 1200 l 298 1200 m 488 1200 l 538 1025 l 537 1025 l 374 1199 l 374 1200 l 488 1200 "},"Â":{"ha":844,"x_min":-11,"x_max":854,"o":"m 736 144 q 771 63 755 93 q 807 20 787 34 q 854 1 827 6 l 854 0 l 538 0 l 538 1 q 591 21 573 5 q 609 67 608 37 q 593 144 610 97 l 358 814 l 358 814 l 149 198 q 120 85 125 126 q 134 26 115 45 q 197 1 152 7 l 197 0 l -11 0 l -11 1 q 39 23 18 6 q 81 81 60 40 q 131 201 102 123 l 416 979 l 439 979 l 736 144 m 197 361 l 199 369 l 583 369 l 583 361 l 197 361 m 286 1026 q 286 1026 286 1026 q 286 1026 286 1026 l 414 1200 l 452 1200 l 581 1026 l 579 1026 l 406 1140 l 460 1140 l 286 1026 "},"Ấ":{"ha":844,"x_min":-11,"x_max":854,"o":"m 736 144 q 771 63 755 93 q 807 20 787 34 q 854 1 827 6 l 854 0 l 538 0 l 538 1 q 591 21 573 5 q 609 67 608 37 q 593 144 610 97 l 358 814 l 358 814 l 149 198 q 120 85 125 126 q 134 26 115 45 q 197 1 152 7 l 197 0 l -11 0 l -11 1 q 39 23 18 6 q 81 81 60 40 q 131 201 102 123 l 416 979 l 439 979 l 736 144 m 197 361 l 199 369 l 583 369 l 583 361 l 197 361 m 275 1031 l 275 1031 l 422 1158 l 433 1158 l 581 1031 l 581 1031 l 420 1093 l 435 1093 l 275 1031 m 580 1225 l 274 1177 l 274 1177 l 580 1296 l 580 1225 "},"Ầ":{"ha":844,"x_min":-11,"x_max":854,"o":"m 736 144 q 771 63 755 93 q 807 20 787 34 q 854 1 827 6 l 854 0 l 538 0 l 538 1 q 591 21 573 5 q 609 67 608 37 q 593 144 610 97 l 358 814 l 358 814 l 149 198 q 120 85 125 126 q 134 26 115 45 q 197 1 152 7 l 197 0 l -11 0 l -11 1 q 39 23 18 6 q 81 81 60 40 q 131 201 102 123 l 416 979 l 439 979 l 736 144 m 197 361 l 199 369 l 583 369 l 583 361 l 197 361 m 275 1031 l 275 1031 l 422 1158 l 433 1158 l 581 1031 l 581 1031 l 420 1093 l 435 1093 l 275 1031 m 275 1225 l 275 1296 l 581 1177 l 581 1177 l 275 1225 "},"Ẫ":{"ha":844,"x_min":-11,"x_max":854,"o":"m 736 144 q 771 63 755 93 q 807 20 787 34 q 854 1 827 6 l 854 0 l 538 0 l 538 1 q 591 21 573 5 q 609 67 608 37 q 593 144 610 97 l 358 814 l 358 814 l 149 198 q 120 85 125 126 q 134 26 115 45 q 197 1 152 7 l 197 0 l -11 0 l -11 1 q 39 23 18 6 q 81 81 60 40 q 131 201 102 123 l 416 979 l 439 979 l 736 144 m 197 361 l 199 369 l 583 369 l 583 361 l 197 361 m 275 1031 l 275 1031 l 422 1158 l 433 1158 l 581 1031 l 581 1031 l 420 1093 l 435 1093 l 275 1031 m 498 1197 q 455 1201 475 1197 q 416 1211 435 1205 l 396 1217 q 360 1226 376 1223 q 330 1230 345 1230 q 291 1219 306 1230 q 275 1183 277 1208 l 275 1183 q 296 1252 275 1227 q 357 1276 317 1276 q 400 1272 380 1276 q 439 1262 420 1267 l 459 1256 q 495 1246 479 1250 q 525 1243 511 1243 q 564 1254 549 1243 q 580 1290 579 1264 l 581 1290 q 559 1221 581 1245 q 498 1197 538 1197 "},"Ẩ":{"ha":844,"x_min":-11,"x_max":854,"o":"m 736 144 q 771 63 755 93 q 807 20 787 34 q 854 1 827 6 l 854 0 l 538 0 l 538 1 q 591 21 573 5 q 609 67 608 37 q 593 144 610 97 l 358 814 l 358 814 l 149 198 q 120 85 125 126 q 134 26 115 45 q 197 1 152 7 l 197 0 l -11 0 l -11 1 q 39 23 18 6 q 81 81 60 40 q 131 201 102 123 l 416 979 l 439 979 l 736 144 m 197 361 l 199 369 l 583 369 l 583 361 l 197 361 m 275 1031 l 275 1031 l 422 1158 l 433 1158 l 581 1031 l 581 1031 l 420 1093 l 435 1093 l 275 1031 m 563 1265 q 621 1248 596 1265 q 645 1203 645 1231 q 616 1159 645 1175 q 528 1133 588 1143 l 528 1134 q 564 1155 551 1141 q 577 1186 577 1168 q 561 1216 577 1205 q 519 1227 545 1227 q 490 1223 503 1227 q 469 1213 477 1219 l 469 1214 q 503 1248 481 1231 q 563 1265 524 1265 "},"Ậ":{"ha":844,"x_min":-11,"x_max":854,"o":"m 736 144 q 771 63 755 93 q 807 20 787 34 q 854 1 827 6 l 854 0 l 538 0 l 538 1 q 591 21 573 5 q 609 67 608 37 q 593 144 610 97 l 358 814 l 358 814 l 149 198 q 120 85 125 126 q 134 26 115 45 q 197 1 152 7 l 197 0 l -11 0 l -11 1 q 39 23 18 6 q 81 81 60 40 q 131 201 102 123 l 416 979 l 439 979 l 736 144 m 197 361 l 199 369 l 583 369 l 583 361 l 197 361 m 286 1026 q 286 1026 286 1026 q 286 1026 286 1026 l 414 1200 l 452 1200 l 581 1026 l 579 1026 l 406 1140 l 460 1140 l 286 1026 m 391 -132 q 431 -148 414 -132 q 447 -187 447 -165 q 431 -226 447 -210 q 391 -243 414 -243 q 351 -226 368 -243 q 334 -187 334 -210 q 351 -148 334 -165 q 391 -132 368 -132 "},"Ǎ":{"ha":844,"x_min":-11,"x_max":854,"o":"m 736 144 q 771 63 755 93 q 807 20 787 34 q 854 1 827 6 l 854 0 l 538 0 l 538 1 q 591 21 573 5 q 609 67 608 37 q 593 144 610 97 l 358 814 l 358 814 l 149 198 q 120 85 125 126 q 134 26 115 45 q 197 1 152 7 l 197 0 l -11 0 l -11 1 q 39 23 18 6 q 81 81 60 40 q 131 201 102 123 l 416 979 l 439 979 l 736 144 m 197 361 l 199 369 l 583 369 l 583 361 l 197 361 m 579 1223 q 579 1223 579 1223 q 579 1223 579 1223 l 451 1048 l 413 1048 l 285 1223 l 286 1223 l 460 1109 l 405 1109 l 579 1223 "},"Ă":{"ha":844,"x_min":-11,"x_max":854,"o":"m 736 144 q 771 63 755 93 q 807 20 787 34 q 854 1 827 6 l 854 0 l 538 0 l 538 1 q 591 21 573 5 q 609 67 608 37 q 593 144 610 97 l 358 814 l 358 814 l 149 198 q 120 85 125 126 q 134 26 115 45 q 197 1 152 7 l 197 0 l -11 0 l -11 1 q 39 23 18 6 q 81 81 60 40 q 131 201 102 123 l 416 979 l 439 979 l 736 144 m 197 361 l 199 369 l 583 369 l 583 361 l 197 361 m 427 1072 q 353 1093 384 1072 q 304 1148 321 1114 q 288 1220 288 1182 q 290 1250 288 1236 l 290 1250 q 290 1250 290 1250 q 290 1250 290 1250 q 309 1191 290 1216 q 358 1154 328 1166 q 427 1141 389 1141 q 495 1154 464 1141 q 544 1191 526 1166 q 563 1250 563 1216 q 563 1250 563 1250 q 563 1250 563 1250 l 564 1250 q 566 1220 566 1236 q 549 1148 566 1182 q 502 1093 532 1114 q 427 1072 471 1072 "},"Ắ":{"ha":844,"x_min":-11,"x_max":854,"o":"m 736 144 q 771 63 755 93 q 807 20 787 34 q 854 1 827 6 l 854 0 l 538 0 l 538 1 q 591 21 573 5 q 609 67 608 37 q 593 144 610 97 l 358 814 l 358 814 l 149 198 q 120 85 125 126 q 134 26 115 45 q 197 1 152 7 l 197 0 l -11 0 l -11 1 q 39 23 18 6 q 81 81 60 40 q 131 201 102 123 l 416 979 l 439 979 l 736 144 m 197 361 l 199 369 l 583 369 l 583 361 l 197 361 m 427 1061 q 315 1092 359 1061 q 275 1173 271 1122 l 275 1173 q 321 1135 279 1149 q 427 1120 363 1120 q 533 1135 492 1120 q 579 1173 575 1149 l 580 1173 q 540 1092 584 1122 q 427 1061 496 1061 m 580 1241 l 274 1192 l 274 1193 l 580 1312 l 580 1241 "},"Ằ":{"ha":844,"x_min":-11,"x_max":854,"o":"m 736 144 q 771 63 755 93 q 807 20 787 34 q 854 1 827 6 l 854 0 l 538 0 l 538 1 q 591 21 573 5 q 609 67 608 37 q 593 144 610 97 l 358 814 l 358 814 l 149 198 q 120 85 125 126 q 134 26 115 45 q 197 1 152 7 l 197 0 l -11 0 l -11 1 q 39 23 18 6 q 81 81 60 40 q 131 201 102 123 l 416 979 l 439 979 l 736 144 m 197 361 l 199 369 l 583 369 l 583 361 l 197 361 m 427 1061 q 315 1092 359 1061 q 275 1173 271 1122 l 275 1173 q 321 1135 279 1149 q 427 1120 363 1120 q 533 1135 492 1120 q 579 1173 575 1149 l 580 1173 q 540 1092 584 1122 q 427 1061 496 1061 m 275 1241 l 275 1312 l 581 1193 l 581 1192 l 275 1241 "},"Ẵ":{"ha":844,"x_min":-11,"x_max":854,"o":"m 736 144 q 771 63 755 93 q 807 20 787 34 q 854 1 827 6 l 854 0 l 538 0 l 538 1 q 591 21 573 5 q 609 67 608 37 q 593 144 610 97 l 358 814 l 358 814 l 149 198 q 120 85 125 126 q 134 26 115 45 q 197 1 152 7 l 197 0 l -11 0 l -11 1 q 39 23 18 6 q 81 81 60 40 q 131 201 102 123 l 416 979 l 439 979 l 736 144 m 197 361 l 199 369 l 583 369 l 583 361 l 197 361 m 427 1061 q 315 1092 359 1061 q 275 1173 271 1122 l 275 1173 q 321 1135 279 1149 q 427 1120 363 1120 q 533 1135 492 1120 q 579 1173 575 1149 l 580 1173 q 540 1092 584 1122 q 427 1061 496 1061 m 498 1213 q 455 1217 475 1213 q 416 1226 435 1221 l 396 1232 q 360 1242 376 1238 q 330 1245 345 1245 q 291 1235 306 1245 q 275 1198 277 1224 l 275 1198 q 296 1267 275 1243 q 357 1291 317 1291 q 400 1287 380 1291 q 439 1278 420 1283 l 459 1272 q 495 1262 479 1265 q 525 1259 511 1259 q 564 1269 549 1259 q 580 1305 579 1280 l 581 1305 q 559 1237 581 1261 q 498 1213 538 1213 "},"Ẳ":{"ha":844,"x_min":-11,"x_max":854,"o":"m 736 144 q 771 63 755 93 q 807 20 787 34 q 854 1 827 6 l 854 0 l 538 0 l 538 1 q 591 21 573 5 q 609 67 608 37 q 593 144 610 97 l 358 814 l 358 814 l 149 198 q 120 85 125 126 q 134 26 115 45 q 197 1 152 7 l 197 0 l -11 0 l -11 1 q 39 23 18 6 q 81 81 60 40 q 131 201 102 123 l 416 979 l 439 979 l 736 144 m 197 361 l 199 369 l 583 369 l 583 361 l 197 361 m 427 1061 q 315 1092 359 1061 q 275 1173 271 1122 l 275 1173 q 321 1135 279 1149 q 427 1120 363 1120 q 533 1135 492 1120 q 579 1173 575 1149 l 580 1173 q 540 1092 584 1122 q 427 1061 496 1061 m 421 1303 q 481 1286 456 1303 q 507 1242 507 1270 q 477 1198 507 1214 q 385 1172 448 1181 l 385 1173 q 422 1194 409 1180 q 436 1225 436 1207 q 419 1255 436 1244 q 376 1265 402 1265 q 344 1262 357 1265 q 323 1252 330 1258 l 323 1253 q 358 1286 335 1270 q 421 1303 380 1303 "},"Ặ":{"ha":844,"x_min":-11,"x_max":854,"o":"m 736 144 q 771 63 755 93 q 807 20 787 34 q 854 1 827 6 l 854 0 l 538 0 l 538 1 q 591 21 573 5 q 609 67 608 37 q 593 144 610 97 l 358 814 l 358 814 l 149 198 q 120 85 125 126 q 134 26 115 45 q 197 1 152 7 l 197 0 l -11 0 l -11 1 q 39 23 18 6 q 81 81 60 40 q 131 201 102 123 l 416 979 l 439 979 l 736 144 m 197 361 l 199 369 l 583 369 l 583 361 l 197 361 m 427 1072 q 353 1093 384 1072 q 304 1148 321 1114 q 288 1220 288 1182 q 290 1250 288 1236 l 290 1250 q 290 1250 290 1250 q 290 1250 290 1250 q 309 1191 290 1216 q 358 1154 328 1166 q 427 1141 389 1141 q 495 1154 464 1141 q 544 1191 526 1166 q 563 1250 563 1216 q 563 1250 563 1250 q 563 1250 563 1250 l 564 1250 q 566 1220 566 1236 q 549 1148 566 1182 q 502 1093 532 1114 q 427 1072 471 1072 m 391 -132 q 431 -148 414 -132 q 447 -187 447 -165 q 431 -226 447 -210 q 391 -243 414 -243 q 351 -226 368 -243 q 334 -187 334 -210 q 351 -148 334 -165 q 391 -132 368 -132 "},"Ȃ":{"ha":844,"x_min":-11,"x_max":854,"o":"m 736 144 q 771 63 755 93 q 807 20 787 34 q 854 1 827 6 l 854 0 l 538 0 l 538 1 q 591 21 573 5 q 609 67 608 37 q 593 144 610 97 l 358 814 l 358 814 l 149 198 q 120 85 125 126 q 134 26 115 45 q 197 1 152 7 l 197 0 l -11 0 l -11 1 q 39 23 18 6 q 81 81 60 40 q 131 201 102 123 l 416 979 l 439 979 l 736 144 m 197 361 l 199 369 l 583 369 l 583 361 l 197 361 m 426 1250 q 500 1229 469 1250 q 549 1174 532 1208 q 566 1101 566 1140 q 564 1072 566 1086 l 563 1072 q 563 1072 563 1072 q 563 1072 563 1072 q 544 1131 563 1106 q 495 1168 526 1155 q 427 1181 464 1181 q 358 1168 389 1181 q 309 1131 328 1155 q 290 1072 290 1106 q 290 1072 290 1072 q 290 1072 290 1072 l 290 1072 q 288 1101 288 1086 q 304 1174 288 1140 q 352 1229 321 1208 q 426 1250 382 1250 "},"Ä":{"ha":844,"x_min":-11,"x_max":854,"o":"m 736 144 q 771 63 755 93 q 807 20 787 34 q 854 1 827 6 l 854 0 l 538 0 l 538 1 q 591 21 573 5 q 609 67 608 37 q 593 144 610 97 l 358 814 l 358 814 l 149 198 q 120 85 125 126 q 134 26 115 45 q 197 1 152 7 l 197 0 l -11 0 l -11 1 q 39 23 18 6 q 81 81 60 40 q 131 201 102 123 l 416 979 l 439 979 l 736 144 m 197 361 l 199 369 l 583 369 l 583 361 l 197 361 m 335 1059 q 297 1075 313 1059 q 281 1114 281 1091 q 297 1152 281 1135 q 335 1168 313 1168 q 374 1152 358 1168 q 389 1114 389 1135 q 374 1075 389 1091 q 335 1059 358 1059 m 519 1059 q 481 1075 496 1059 q 465 1114 465 1091 q 481 1152 465 1135 q 519 1168 496 1168 q 557 1152 542 1168 q 573 1114 573 1135 q 557 1075 573 1091 q 519 1059 542 1059 "},"Ǟ":{"ha":844,"x_min":-11,"x_max":854,"o":"m 736 144 q 771 63 755 93 q 807 20 787 34 q 854 1 827 6 l 854 0 l 538 0 l 538 1 q 591 21 573 5 q 609 67 608 37 q 593 144 610 97 l 358 814 l 358 814 l 149 198 q 120 85 125 126 q 134 26 115 45 q 197 1 152 7 l 197 0 l -11 0 l -11 1 q 39 23 18 6 q 81 81 60 40 q 131 201 102 123 l 416 979 l 439 979 l 736 144 m 197 361 l 199 369 l 583 369 l 583 361 l 197 361 m 341 1072 l 340 1072 q 305 1085 319 1072 q 291 1116 291 1097 q 305 1148 291 1135 q 340 1160 319 1160 l 341 1160 q 376 1148 362 1160 q 390 1116 390 1135 q 376 1085 390 1097 q 341 1072 362 1072 m 515 1072 l 513 1072 q 478 1085 492 1072 q 465 1116 465 1097 q 478 1148 465 1135 q 513 1160 492 1160 l 515 1160 q 550 1148 536 1160 q 564 1116 564 1135 q 550 1085 564 1097 q 515 1072 536 1072 m 275 1226 l 275 1276 l 581 1276 l 581 1226 l 275 1226 "},"Ã":{"ha":844,"x_min":-11,"x_max":854,"o":"m 736 144 q 771 63 755 93 q 807 20 787 34 q 854 1 827 6 l 854 0 l 538 0 l 538 1 q 591 21 573 5 q 609 67 608 37 q 593 144 610 97 l 358 814 l 358 814 l 149 198 q 120 85 125 126 q 134 26 115 45 q 197 1 152 7 l 197 0 l -11 0 l -11 1 q 39 23 18 6 q 81 81 60 40 q 131 201 102 123 l 416 979 l 439 979 l 736 144 m 197 361 l 199 369 l 583 369 l 583 361 l 197 361 m 492 1046 q 450 1055 471 1046 q 404 1081 430 1064 l 385 1094 q 353 1113 365 1107 q 326 1118 340 1118 q 294 1101 307 1118 q 278 1037 281 1085 l 277 1037 q 297 1150 273 1120 q 362 1180 321 1180 q 404 1172 383 1180 q 450 1145 424 1163 l 469 1133 q 501 1114 489 1120 q 528 1109 513 1109 q 560 1125 547 1109 q 576 1190 572 1142 l 576 1190 q 557 1077 581 1107 q 492 1046 532 1046 "},"Ā":{"ha":844,"x_min":-11,"x_max":854,"o":"m 736 144 q 771 63 755 93 q 807 20 787 34 q 854 1 827 6 l 854 0 l 538 0 l 538 1 q 591 21 573 5 q 609 67 608 37 q 593 144 610 97 l 358 814 l 358 814 l 149 198 q 120 85 125 126 q 134 26 115 45 q 197 1 152 7 l 197 0 l -11 0 l -11 1 q 39 23 18 6 q 81 81 60 40 q 131 201 102 123 l 416 979 l 439 979 l 736 144 m 197 361 l 199 369 l 583 369 l 583 361 l 197 361 m 288 1073 l 288 1131 l 568 1131 l 568 1073 l 288 1073 "},"Ả":{"ha":844,"x_min":-11,"x_max":854,"o":"m 736 144 q 771 63 755 93 q 807 20 787 34 q 854 1 827 6 l 854 0 l 538 0 l 538 1 q 591 21 573 5 q 609 67 608 37 q 593 144 610 97 l 358 814 l 358 814 l 149 198 q 120 85 125 126 q 134 26 115 45 q 197 1 152 7 l 197 0 l -11 0 l -11 1 q 39 23 18 6 q 81 81 60 40 q 131 201 102 123 l 416 979 l 439 979 l 736 144 m 197 361 l 199 369 l 583 369 l 583 361 l 197 361 m 439 1227 q 500 1207 475 1227 q 526 1158 526 1188 q 498 1095 526 1125 q 398 1035 470 1065 l 397 1035 q 445 1078 428 1055 q 463 1129 463 1102 q 445 1166 463 1152 q 397 1181 427 1181 q 360 1173 376 1181 q 332 1151 343 1164 l 331 1152 q 373 1206 345 1185 q 439 1227 401 1227 "},"Å":{"ha":844,"x_min":-11,"x_max":854,"o":"m 736 144 q 771 63 755 93 q 807 20 787 34 q 854 1 827 6 l 854 0 l 538 0 l 538 1 q 591 21 573 5 q 609 67 608 37 q 593 144 610 97 l 358 814 l 358 814 l 149 198 q 120 85 125 126 q 134 26 115 45 q 197 1 152 7 l 197 0 l -11 0 l -11 1 q 39 23 18 6 q 81 81 60 40 q 131 201 102 123 l 416 979 l 439 979 l 736 144 m 197 361 l 199 369 l 583 369 l 583 361 l 197 361 m 297 1147 q 338 1214 297 1192 q 427 1237 379 1237 q 516 1214 475 1237 q 557 1147 557 1192 q 516 1080 557 1102 q 427 1058 475 1058 q 338 1080 380 1058 q 297 1147 297 1102 m 376 1147 q 390 1084 376 1108 q 427 1059 404 1059 q 465 1084 451 1059 q 478 1147 478 1108 q 465 1210 478 1184 q 427 1236 451 1236 q 390 1210 404 1236 q 376 1147 376 1185 "},"Ǻ":{"ha":844,"x_min":-11,"x_max":854,"o":"m 736 144 q 771 63 755 93 q 807 20 787 34 q 854 1 827 6 l 854 0 l 538 0 l 538 1 q 591 21 573 5 q 609 67 608 37 q 593 144 610 97 l 358 814 l 358 814 l 149 198 q 120 85 125 126 q 134 26 115 45 q 197 1 152 7 l 197 0 l -11 0 l -11 1 q 39 23 18 6 q 81 81 60 40 q 131 201 102 123 l 416 979 l 439 979 l 736 144 m 197 361 l 199 369 l 583 369 l 583 361 l 197 361 m 429 1059 l 425 1059 q 331 1072 368 1059 q 295 1105 295 1084 q 331 1139 295 1126 q 425 1152 368 1152 l 429 1152 q 523 1139 487 1152 q 559 1105 559 1126 q 523 1072 559 1084 q 429 1059 487 1059 m 429 1061 q 464 1074 452 1061 q 476 1105 476 1086 q 464 1138 476 1125 q 429 1150 452 1150 l 425 1150 q 390 1138 403 1150 q 378 1105 378 1125 q 390 1074 378 1086 q 425 1061 403 1061 l 429 1061 m 580 1230 l 274 1181 l 274 1181 l 580 1300 l 580 1230 "},"Ḁ":{"ha":844,"x_min":-11,"x_max":854,"o":"m 736 144 q 771 63 755 93 q 807 20 787 34 q 854 1 827 6 l 854 0 l 538 0 l 538 1 q 591 21 573 5 q 609 67 608 37 q 593 144 610 97 l 358 814 l 358 814 l 149 198 q 120 85 125 126 q 134 26 115 45 q 197 1 152 7 l 197 0 l -11 0 l -11 1 q 39 23 18 6 q 81 81 60 40 q 131 201 102 123 l 416 979 l 439 979 l 736 144 m 197 361 l 199 369 l 583 369 l 583 361 l 197 361 m 246 -188 q 292 -115 246 -140 q 391 -91 337 -91 q 490 -116 445 -91 q 535 -187 535 -140 q 514 -241 535 -220 q 459 -273 492 -262 q 391 -283 427 -283 q 322 -273 355 -283 q 268 -241 289 -262 q 246 -188 246 -220 m 334 -188 q 349 -255 334 -229 q 391 -281 363 -281 q 432 -256 418 -281 q 447 -187 447 -230 q 432 -120 447 -148 q 391 -93 418 -93 q 349 -120 363 -93 q 334 -188 334 -148 "},"Ȧ":{"ha":844,"x_min":-11,"x_max":854,"o":"m 736 144 q 771 63 755 93 q 807 20 787 34 q 854 1 827 6 l 854 0 l 538 0 l 538 1 q 591 21 573 5 q 609 67 608 37 q 593 144 610 97 l 358 814 l 358 814 l 149 198 q 120 85 125 126 q 134 26 115 45 q 197 1 152 7 l 197 0 l -11 0 l -11 1 q 39 23 18 6 q 81 81 60 40 q 131 201 102 123 l 416 979 l 439 979 l 736 144 m 197 361 l 199 369 l 583 369 l 583 361 l 197 361 m 427 1057 q 388 1074 404 1057 q 371 1113 371 1090 q 388 1152 371 1135 q 427 1168 404 1168 q 467 1152 451 1168 q 484 1113 484 1135 q 467 1074 484 1090 q 427 1057 451 1057 "},"Ǡ":{"ha":844,"x_min":-11,"x_max":854,"o":"m 736 144 q 771 63 755 93 q 807 20 787 34 q 854 1 827 6 l 854 0 l 538 0 l 538 1 q 591 21 573 5 q 609 67 608 37 q 593 144 610 97 l 358 814 l 358 814 l 149 198 q 120 85 125 126 q 134 26 115 45 q 197 1 152 7 l 197 0 l -11 0 l -11 1 q 39 23 18 6 q 81 81 60 40 q 131 201 102 123 l 416 979 l 439 979 l 736 144 m 197 361 l 199 369 l 583 369 l 583 361 l 197 361 m 427 1072 q 391 1084 406 1072 q 376 1116 376 1097 q 391 1148 376 1135 q 427 1161 406 1161 q 464 1148 449 1161 q 479 1116 479 1135 q 464 1084 479 1097 q 427 1072 449 1072 m 275 1213 l 275 1263 l 581 1263 l 581 1213 l 275 1213 "},"Ạ":{"ha":844,"x_min":-11,"x_max":854,"o":"m 736 144 q 771 63 755 93 q 807 20 787 34 q 854 1 827 6 l 854 0 l 538 0 l 538 1 q 591 21 573 5 q 609 67 608 37 q 593 144 610 97 l 358 814 l 358 814 l 149 198 q 120 85 125 126 q 134 26 115 45 q 197 1 152 7 l 197 0 l -11 0 l -11 1 q 39 23 18 6 q 81 81 60 40 q 131 201 102 123 l 416 979 l 439 979 l 736 144 m 197 361 l 199 369 l 583 369 l 583 361 l 197 361 m 391 -132 q 431 -148 414 -132 q 447 -187 447 -165 q 431 -226 447 -210 q 391 -243 414 -243 q 351 -226 368 -243 q 334 -187 334 -210 q 351 -148 334 -165 q 391 -132 368 -132 "},"Ą":{"ha":844,"x_min":-11,"x_max":854,"o":"m 736 144 q 771 63 755 93 q 807 20 787 34 q 854 1 827 6 l 854 0 l 538 0 l 538 1 q 591 21 573 5 q 609 67 608 37 q 593 144 610 97 l 358 814 l 358 814 l 149 198 q 120 85 125 126 q 134 26 115 45 q 197 1 152 7 l 197 0 l -11 0 l -11 1 q 39 23 18 6 q 81 81 60 40 q 131 201 102 123 l 416 979 l 439 979 l 736 144 m 197 361 l 199 369 l 583 369 l 583 361 l 197 361 m 696 -317 q 617 -286 648 -317 q 587 -205 587 -254 q 616 -97 587 -148 q 701 1 646 -45 l 701 1 q 680 -55 687 -22 q 672 -131 672 -89 q 696 -227 672 -186 q 754 -268 721 -268 q 784 -259 771 -268 q 804 -239 797 -251 l 805 -239 q 764 -296 794 -275 q 696 -317 734 -317 "},"B":{"ha":818,"x_min":31,"x_max":764,"o":"m 764 273 q 725 146 764 199 q 623 62 687 94 q 480 15 559 30 q 321 0 402 0 l 31 0 l 31 1 q 80 17 63 8 q 103 42 97 26 q 110 88 110 59 l 110 891 q 103 937 110 921 q 80 963 97 954 q 31 979 63 972 l 31 979 l 321 979 q 532 955 441 979 q 674 880 623 930 q 724 749 724 829 q 677 626 724 675 q 556 552 630 577 q 399 523 481 526 q 590 491 507 520 q 718 407 672 462 q 764 273 764 353 m 617 268 q 589 395 617 338 q 506 486 560 452 q 372 521 451 519 l 245 523 l 245 1 l 311 3 q 540 78 463 7 q 617 268 617 149 m 583 744 q 557 859 583 807 q 472 942 532 910 q 311 977 412 973 l 245 979 l 245 524 l 372 525 q 527 580 471 526 q 583 744 583 633 "},"Ḇ":{"ha":818,"x_min":31,"x_max":764,"o":"m 764 273 q 725 146 764 199 q 623 62 687 94 q 480 15 559 30 q 321 0 402 0 l 31 0 l 31 1 q 80 17 63 8 q 103 42 97 26 q 110 88 110 59 l 110 891 q 103 937 110 921 q 80 963 97 954 q 31 979 63 972 l 31 979 l 321 979 q 532 955 441 979 q 674 880 623 930 q 724 749 724 829 q 677 626 724 675 q 556 552 630 577 q 399 523 481 526 q 590 491 507 520 q 718 407 672 462 q 764 273 764 353 m 617 268 q 589 395 617 338 q 506 486 560 452 q 372 521 451 519 l 245 523 l 245 1 l 311 3 q 540 78 463 7 q 617 268 617 149 m 583 744 q 557 859 583 807 q 472 942 532 910 q 311 977 412 973 l 245 979 l 245 524 l 372 525 q 527 580 471 526 q 583 744 583 633 "},"Ḃ":{"ha":818,"x_min":31,"x_max":764,"o":"m 764 273 q 725 146 764 199 q 623 62 687 94 q 480 15 559 30 q 321 0 402 0 l 31 0 l 31 1 q 80 17 63 8 q 103 42 97 26 q 110 88 110 59 l 110 891 q 103 937 110 921 q 80 963 97 954 q 31 979 63 972 l 31 979 l 321 979 q 532 955 441 979 q 674 880 623 930 q 724 749 724 829 q 677 626 724 675 q 556 552 630 577 q 399 523 481 526 q 590 491 507 520 q 718 407 672 462 q 764 273 764 353 m 617 268 q 589 395 617 338 q 506 486 560 452 q 372 521 451 519 l 245 523 l 245 1 l 311 3 q 540 78 463 7 q 617 268 617 149 m 583 744 q 557 859 583 807 q 472 942 532 910 q 311 977 412 973 l 245 979 l 245 524 l 372 525 q 527 580 471 526 q 583 744 583 633 m 401 1057 q 362 1074 378 1057 q 345 1113 345 1090 q 362 1152 345 1135 q 401 1168 378 1168 q 441 1152 425 1168 q 458 1113 458 1135 q 441 1074 458 1090 q 401 1057 425 1057 "},"Ḅ":{"ha":818,"x_min":31,"x_max":764,"o":"m 764 273 q 725 146 764 199 q 623 62 687 94 q 480 15 559 30 q 321 0 402 0 l 31 0 l 31 1 q 80 17 63 8 q 103 42 97 26 q 110 88 110 59 l 110 891 q 103 937 110 921 q 80 963 97 954 q 31 979 63 972 l 31 979 l 321 979 q 532 955 441 979 q 674 880 623 930 q 724 749 724 829 q 677 626 724 675 q 556 552 630 577 q 399 523 481 526 q 590 491 507 520 q 718 407 672 462 q 764 273 764 353 m 617 268 q 589 395 617 338 q 506 486 560 452 q 372 521 451 519 l 245 523 l 245 1 l 311 3 q 540 78 463 7 q 617 268 617 149 m 583 744 q 557 859 583 807 q 472 942 532 910 q 311 977 412 973 l 245 979 l 245 524 l 372 525 q 527 580 471 526 q 583 744 583 633 m 402 -132 q 442 -148 426 -132 q 458 -187 458 -165 q 442 -226 458 -210 q 402 -243 426 -243 q 362 -226 379 -243 q 346 -187 346 -210 q 362 -148 346 -165 q 402 -132 379 -132 "},"C":{"ha":911,"x_min":60,"x_max":857,"o":"m 60 503 q 98 714 60 623 q 202 866 136 804 q 356 958 269 927 q 541 989 443 989 q 743 969 672 989 q 844 925 813 949 l 855 697 l 854 697 q 815 815 842 762 q 750 906 789 868 q 658 966 711 945 q 541 987 606 987 q 366 929 440 987 q 252 766 292 872 q 212 515 212 661 q 231 325 212 418 q 291 157 250 232 q 396 37 332 82 q 549 -7 460 -7 q 654 11 605 -7 q 744 65 703 29 q 813 156 784 101 q 857 282 842 210 l 857 282 l 846 54 q 788 26 829 41 q 685 1 746 12 q 549 -9 624 -9 q 348 27 438 -9 q 194 132 258 64 q 95 294 130 199 q 60 503 60 388 "},"Ć":{"ha":911,"x_min":60,"x_max":857,"o":"m 60 503 q 98 714 60 623 q 202 866 136 804 q 356 958 269 927 q 541 989 443 989 q 743 969 672 989 q 844 925 813 949 l 855 697 l 854 697 q 815 815 842 762 q 750 906 789 868 q 658 966 711 945 q 541 987 606 987 q 366 929 440 987 q 252 766 292 872 q 212 515 212 661 q 231 325 212 418 q 291 157 250 232 q 396 37 332 82 q 549 -7 460 -7 q 654 11 605 -7 q 744 65 703 29 q 813 156 784 101 q 857 282 842 210 l 857 282 l 846 54 q 788 26 829 41 q 685 1 746 12 q 549 -9 624 -9 q 348 27 438 -9 q 194 132 258 64 q 95 294 130 199 q 60 503 60 388 m 536 1025 l 534 1025 l 608 1200 l 734 1200 l 734 1198 l 536 1025 "},"Ĉ":{"ha":911,"x_min":60,"x_max":857,"o":"m 60 503 q 98 714 60 623 q 202 866 136 804 q 356 958 269 927 q 541 989 443 989 q 743 969 672 989 q 844 925 813 949 l 855 697 l 854 697 q 815 815 842 762 q 750 906 789 868 q 658 966 711 945 q 541 987 606 987 q 366 929 440 987 q 252 766 292 872 q 212 515 212 661 q 231 325 212 418 q 291 157 250 232 q 396 37 332 82 q 549 -7 460 -7 q 654 11 605 -7 q 744 65 703 29 q 813 156 784 101 q 857 282 842 210 l 857 282 l 846 54 q 788 26 829 41 q 685 1 746 12 q 549 -9 624 -9 q 348 27 438 -9 q 194 132 258 64 q 95 294 130 199 q 60 503 60 388 m 415 1026 q 415 1026 415 1026 q 415 1026 415 1026 l 543 1200 l 581 1200 l 709 1026 l 708 1026 l 534 1140 l 589 1140 l 415 1026 "},"Č":{"ha":911,"x_min":60,"x_max":857,"o":"m 60 503 q 98 714 60 623 q 202 866 136 804 q 356 958 269 927 q 541 989 443 989 q 743 969 672 989 q 844 925 813 949 l 855 697 l 854 697 q 815 815 842 762 q 750 906 789 868 q 658 966 711 945 q 541 987 606 987 q 366 929 440 987 q 252 766 292 872 q 212 515 212 661 q 231 325 212 418 q 291 157 250 232 q 396 37 332 82 q 549 -7 460 -7 q 654 11 605 -7 q 744 65 703 29 q 813 156 784 101 q 857 282 842 210 l 857 282 l 846 54 q 788 26 829 41 q 685 1 746 12 q 549 -9 624 -9 q 348 27 438 -9 q 194 132 258 64 q 95 294 130 199 q 60 503 60 388 m 708 1223 q 708 1223 708 1223 q 708 1223 708 1223 l 580 1048 l 542 1048 l 414 1223 l 415 1223 l 589 1109 l 534 1109 l 708 1223 "},"Ċ":{"ha":911,"x_min":60,"x_max":857,"o":"m 60 503 q 98 714 60 623 q 202 866 136 804 q 356 958 269 927 q 541 989 443 989 q 743 969 672 989 q 844 925 813 949 l 855 697 l 854 697 q 815 815 842 762 q 750 906 789 868 q 658 966 711 945 q 541 987 606 987 q 366 929 440 987 q 252 766 292 872 q 212 515 212 661 q 231 325 212 418 q 291 157 250 232 q 396 37 332 82 q 549 -7 460 -7 q 654 11 605 -7 q 744 65 703 29 q 813 156 784 101 q 857 282 842 210 l 857 282 l 846 54 q 788 26 829 41 q 685 1 746 12 q 549 -9 624 -9 q 348 27 438 -9 q 194 132 258 64 q 95 294 130 199 q 60 503 60 388 m 556 1057 q 516 1074 533 1057 q 500 1113 500 1090 q 516 1152 500 1135 q 556 1168 533 1168 q 596 1152 580 1168 q 612 1113 612 1135 q 596 1074 612 1090 q 556 1057 580 1057 "},"Ç":{"ha":911,"x_min":60,"x_max":857,"o":"m 60 503 q 98 714 60 623 q 202 866 136 804 q 356 958 269 927 q 541 989 443 989 q 743 969 672 989 q 844 925 813 949 l 855 697 l 854 697 q 815 815 842 762 q 750 906 789 868 q 658 966 711 945 q 541 987 606 987 q 366 929 440 987 q 252 766 292 872 q 212 515 212 661 q 231 325 212 418 q 291 157 250 232 q 396 37 332 82 q 549 -7 460 -7 q 654 11 605 -7 q 744 65 703 29 q 813 156 784 101 q 857 282 842 210 l 857 282 l 846 54 q 788 26 829 41 q 685 1 746 12 q 549 -9 624 -9 q 348 27 438 -9 q 194 132 258 64 q 95 294 130 199 q 60 503 60 388 m 547 -280 q 475 -262 509 -280 q 428 -214 441 -245 l 429 -214 q 456 -233 439 -226 q 492 -241 473 -241 q 538 -225 519 -241 q 556 -184 556 -210 q 539 -145 556 -159 q 498 -130 522 -130 q 460 -138 471 -130 l 460 -138 l 555 -8 l 557 -8 l 557 -9 l 478 -117 l 478 -115 q 508 -95 487 -103 q 554 -87 528 -86 q 626 -114 596 -87 q 655 -182 655 -140 q 639 -235 655 -214 q 599 -269 623 -257 q 547 -280 574 -280 "},"Ḉ":{"ha":911,"x_min":60,"x_max":857,"o":"m 60 503 q 98 714 60 623 q 202 866 136 804 q 356 958 269 927 q 541 989 443 989 q 743 969 672 989 q 844 925 813 949 l 855 697 l 854 697 q 815 815 842 762 q 750 906 789 868 q 658 966 711 945 q 541 987 606 987 q 366 929 440 987 q 252 766 292 872 q 212 515 212 661 q 231 325 212 418 q 291 157 250 232 q 396 37 332 82 q 549 -7 460 -7 q 654 11 605 -7 q 744 65 703 29 q 813 156 784 101 q 857 282 842 210 l 857 282 l 846 54 q 788 26 829 41 q 685 1 746 12 q 549 -9 624 -9 q 348 27 438 -9 q 194 132 258 64 q 95 294 130 199 q 60 503 60 388 m 547 -280 q 475 -262 509 -280 q 428 -214 441 -245 l 429 -214 q 456 -233 439 -226 q 492 -241 473 -241 q 538 -225 519 -241 q 556 -184 556 -210 q 539 -145 556 -159 q 498 -130 522 -130 q 460 -138 471 -130 l 460 -138 l 555 -8 l 557 -8 l 557 -9 l 478 -117 l 478 -115 q 508 -95 487 -103 q 554 -87 528 -86 q 626 -114 596 -87 q 655 -182 655 -140 q 639 -235 655 -214 q 599 -269 623 -257 q 547 -280 574 -280 m 536 1025 l 534 1025 l 608 1200 l 734 1200 l 734 1198 l 536 1025 "},"D":{"ha":977,"x_min":31,"x_max":922,"o":"m 922 508 q 873 282 922 378 q 738 123 824 186 q 539 31 652 61 q 300 0 427 0 l 31 0 l 31 1 q 80 17 63 8 q 103 42 97 26 q 110 88 110 59 l 110 891 q 103 937 110 921 q 80 963 97 954 q 31 979 63 972 l 31 979 l 300 979 q 628 926 488 979 q 845 768 768 873 q 922 508 922 663 m 770 493 q 716 745 770 638 q 555 912 663 852 q 289 977 448 972 l 245 979 l 245 1 l 289 2 q 553 66 446 7 q 715 234 660 125 q 770 493 770 342 "},"Ḓ":{"ha":977,"x_min":31,"x_max":922,"o":"m 922 508 q 873 282 922 378 q 738 123 824 186 q 539 31 652 61 q 300 0 427 0 l 31 0 l 31 1 q 80 17 63 8 q 103 42 97 26 q 110 88 110 59 l 110 891 q 103 937 110 921 q 80 963 97 954 q 31 979 63 972 l 31 979 l 300 979 q 628 926 488 979 q 845 768 768 873 q 922 508 922 663 m 770 493 q 716 745 770 638 q 555 912 663 852 q 289 977 448 972 l 245 979 l 245 1 l 289 2 q 553 66 446 7 q 715 234 660 125 q 770 493 770 342 "},"Ď":{"ha":977,"x_min":31,"x_max":922,"o":"m 922 508 q 873 282 922 378 q 738 123 824 186 q 539 31 652 61 q 300 0 427 0 l 31 0 l 31 1 q 80 17 63 8 q 103 42 97 26 q 110 88 110 59 l 110 891 q 103 937 110 921 q 80 963 97 954 q 31 979 63 972 l 31 979 l 300 979 q 628 926 488 979 q 845 768 768 873 q 922 508 922 663 m 770 493 q 716 745 770 638 q 555 912 663 852 q 289 977 448 972 l 245 979 l 245 1 l 289 2 q 553 66 446 7 q 715 234 660 125 q 770 493 770 342 m 623 1223 q 623 1223 623 1223 q 623 1223 623 1223 l 494 1048 l 456 1048 l 328 1223 l 330 1223 l 503 1109 l 448 1109 l 623 1223 "},"Ḏ":{"ha":977,"x_min":31,"x_max":922,"o":"m 922 508 q 873 282 922 378 q 738 123 824 186 q 539 31 652 61 q 300 0 427 0 l 31 0 l 31 1 q 80 17 63 8 q 103 42 97 26 q 110 88 110 59 l 110 891 q 103 937 110 921 q 80 963 97 954 q 31 979 63 972 l 31 979 l 300 979 q 628 926 488 979 q 845 768 768 873 q 922 508 922 663 m 770 493 q 716 745 770 638 q 555 912 663 852 q 289 977 448 972 l 245 979 l 245 1 l 289 2 q 553 66 446 7 q 715 234 660 125 q 770 493 770 342 "},"Ḋ":{"ha":977,"x_min":31,"x_max":922,"o":"m 922 508 q 873 282 922 378 q 738 123 824 186 q 539 31 652 61 q 300 0 427 0 l 31 0 l 31 1 q 80 17 63 8 q 103 42 97 26 q 110 88 110 59 l 110 891 q 103 937 110 921 q 80 963 97 954 q 31 979 63 972 l 31 979 l 300 979 q 628 926 488 979 q 845 768 768 873 q 922 508 922 663 m 770 493 q 716 745 770 638 q 555 912 663 852 q 289 977 448 972 l 245 979 l 245 1 l 289 2 q 553 66 446 7 q 715 234 660 125 q 770 493 770 342 m 471 1057 q 431 1074 448 1057 q 414 1113 414 1090 q 431 1152 414 1135 q 471 1168 448 1168 q 511 1152 494 1168 q 527 1113 527 1135 q 511 1074 527 1090 q 471 1057 494 1057 "},"Ḍ":{"ha":977,"x_min":31,"x_max":922,"o":"m 922 508 q 873 282 922 378 q 738 123 824 186 q 539 31 652 61 q 300 0 427 0 l 31 0 l 31 1 q 80 17 63 8 q 103 42 97 26 q 110 88 110 59 l 110 891 q 103 937 110 921 q 80 963 97 954 q 31 979 63 972 l 31 979 l 300 979 q 628 926 488 979 q 845 768 768 873 q 922 508 922 663 m 770 493 q 716 745 770 638 q 555 912 663 852 q 289 977 448 972 l 245 979 l 245 1 l 289 2 q 553 66 446 7 q 715 234 660 125 q 770 493 770 342 m 460 -132 q 500 -148 484 -132 q 516 -187 516 -165 q 500 -226 516 -210 q 460 -243 484 -243 q 420 -226 437 -243 q 404 -187 404 -210 q 420 -148 404 -165 q 460 -132 437 -132 "},"Ḑ":{"ha":977,"x_min":31,"x_max":922,"o":"m 922 508 q 873 282 922 378 q 738 123 824 186 q 539 31 652 61 q 300 0 427 0 l 31 0 l 31 1 q 80 17 63 8 q 103 42 97 26 q 110 88 110 59 l 110 891 q 103 937 110 921 q 80 963 97 954 q 31 979 63 972 l 31 979 l 300 979 q 628 926 488 979 q 845 768 768 873 q 922 508 922 663 m 770 493 q 716 745 770 638 q 555 912 663 852 q 289 977 448 972 l 245 979 l 245 1 l 289 2 q 553 66 446 7 q 715 234 660 125 q 770 493 770 342 m 460 -283 q 381 -261 416 -283 q 334 -209 346 -239 l 334 -208 q 372 -234 349 -223 q 420 -245 395 -245 q 470 -231 451 -245 q 489 -193 489 -216 q 469 -154 489 -168 q 419 -140 450 -140 q 392 -143 406 -140 q 372 -150 379 -146 l 372 -149 q 410 -110 387 -129 q 472 -91 433 -91 q 551 -116 519 -91 q 583 -186 583 -142 q 547 -256 583 -229 q 460 -283 512 -283 "},"Ð":{"ha":977,"x_min":31,"x_max":922,"o":"m 922 508 q 873 282 922 378 q 738 123 824 186 q 539 31 652 61 q 300 0 427 0 l 31 0 l 31 1 q 80 17 63 8 q 103 42 97 26 q 110 88 110 59 l 110 891 q 103 937 110 921 q 80 963 97 954 q 31 979 63 972 l 31 979 l 300 979 q 628 926 488 979 q 845 768 768 873 q 922 508 922 663 m 770 493 q 716 745 770 638 q 555 912 663 852 q 289 977 448 972 l 245 979 l 245 1 l 289 2 q 553 66 446 7 q 715 234 660 125 q 770 493 770 342 m 31 499 l 31 505 l 448 505 l 448 499 l 31 499 "},"E":{"ha":761,"x_min":31,"x_max":724,"o":"m 673 979 l 685 763 l 684 763 q 630 886 665 842 q 532 948 596 929 q 357 973 467 968 l 245 979 l 245 503 l 433 510 q 516 526 488 512 q 557 569 545 541 q 577 640 569 597 l 578 640 l 578 363 l 577 363 q 557 435 569 407 q 516 477 545 463 q 433 494 488 492 l 245 501 l 245 1 l 411 9 q 544 25 490 13 q 632 63 598 37 q 688 132 667 89 q 724 240 709 175 l 724 240 l 709 0 l 31 0 l 31 1 q 80 17 63 8 q 103 42 97 26 q 110 88 110 59 l 110 891 q 103 937 110 921 q 80 963 97 954 q 31 979 63 972 l 31 979 l 673 979 "},"É":{"ha":761,"x_min":31,"x_max":724,"o":"m 673 979 l 685 763 l 684 763 q 630 886 665 842 q 532 948 596 929 q 357 973 467 968 l 245 979 l 245 503 l 433 510 q 516 526 488 512 q 557 569 545 541 q 577 640 569 597 l 578 640 l 578 363 l 577 363 q 557 435 569 407 q 516 477 545 463 q 433 494 488 492 l 245 501 l 245 1 l 411 9 q 544 25 490 13 q 632 63 598 37 q 688 132 667 89 q 724 240 709 175 l 724 240 l 709 0 l 31 0 l 31 1 q 80 17 63 8 q 103 42 97 26 q 110 88 110 59 l 110 891 q 103 937 110 921 q 80 963 97 954 q 31 979 63 972 l 31 979 l 673 979 m 372 1025 l 371 1025 l 445 1200 l 571 1200 l 571 1198 l 372 1025 "},"È":{"ha":761,"x_min":31,"x_max":724,"o":"m 673 979 l 685 763 l 684 763 q 630 886 665 842 q 532 948 596 929 q 357 973 467 968 l 245 979 l 245 503 l 433 510 q 516 526 488 512 q 557 569 545 541 q 577 640 569 597 l 578 640 l 578 363 l 577 363 q 557 435 569 407 q 516 477 545 463 q 433 494 488 492 l 245 501 l 245 1 l 411 9 q 544 25 490 13 q 632 63 598 37 q 688 132 667 89 q 724 240 709 175 l 724 240 l 709 0 l 31 0 l 31 1 q 80 17 63 8 q 103 42 97 26 q 110 88 110 59 l 110 891 q 103 937 110 921 q 80 963 97 954 q 31 979 63 972 l 31 979 l 673 979 m 425 1026 l 223 1199 l 223 1200 l 355 1200 l 426 1026 l 425 1026 "},"Ȅ":{"ha":761,"x_min":31,"x_max":724,"o":"m 673 979 l 685 763 l 684 763 q 630 886 665 842 q 532 948 596 929 q 357 973 467 968 l 245 979 l 245 503 l 433 510 q 516 526 488 512 q 557 569 545 541 q 577 640 569 597 l 578 640 l 578 363 l 577 363 q 557 435 569 407 q 516 477 545 463 q 433 494 488 492 l 245 501 l 245 1 l 411 9 q 544 25 490 13 q 632 63 598 37 q 688 132 667 89 q 724 240 709 175 l 724 240 l 709 0 l 31 0 l 31 1 q 80 17 63 8 q 103 42 97 26 q 110 88 110 59 l 110 891 q 103 937 110 921 q 80 963 97 954 q 31 979 63 972 l 31 979 l 673 979 m 264 1200 l 345 1025 l 343 1025 l 143 1199 l 143 1200 l 264 1200 m 454 1200 l 504 1025 l 503 1025 l 339 1199 l 339 1200 l 454 1200 "},"Ê":{"ha":761,"x_min":31,"x_max":724,"o":"m 673 979 l 685 763 l 684 763 q 630 886 665 842 q 532 948 596 929 q 357 973 467 968 l 245 979 l 245 503 l 433 510 q 516 526 488 512 q 557 569 545 541 q 577 640 569 597 l 578 640 l 578 363 l 577 363 q 557 435 569 407 q 516 477 545 463 q 433 494 488 492 l 245 501 l 245 1 l 411 9 q 544 25 490 13 q 632 63 598 37 q 688 132 667 89 q 724 240 709 175 l 724 240 l 709 0 l 31 0 l 31 1 q 80 17 63 8 q 103 42 97 26 q 110 88 110 59 l 110 891 q 103 937 110 921 q 80 963 97 954 q 31 979 63 972 l 31 979 l 673 979 m 252 1026 q 252 1026 252 1026 q 252 1026 252 1026 l 380 1200 l 418 1200 l 546 1026 l 545 1026 l 371 1140 l 426 1140 l 252 1026 "},"Ế":{"ha":761,"x_min":31,"x_max":724,"o":"m 673 979 l 685 763 l 684 763 q 630 886 665 842 q 532 948 596 929 q 357 973 467 968 l 245 979 l 245 503 l 433 510 q 516 526 488 512 q 557 569 545 541 q 577 640 569 597 l 578 640 l 578 363 l 577 363 q 557 435 569 407 q 516 477 545 463 q 433 494 488 492 l 245 501 l 245 1 l 411 9 q 544 25 490 13 q 632 63 598 37 q 688 132 667 89 q 724 240 709 175 l 724 240 l 709 0 l 31 0 l 31 1 q 80 17 63 8 q 103 42 97 26 q 110 88 110 59 l 110 891 q 103 937 110 921 q 80 963 97 954 q 31 979 63 972 l 31 979 l 673 979 m 240 1031 l 241 1031 l 387 1158 l 398 1158 l 546 1031 l 546 1031 l 385 1093 l 401 1093 l 240 1031 m 545 1225 l 239 1177 l 239 1177 l 545 1296 l 545 1225 "},"Ề":{"ha":761,"x_min":31,"x_max":724,"o":"m 673 979 l 685 763 l 684 763 q 630 886 665 842 q 532 948 596 929 q 357 973 467 968 l 245 979 l 245 503 l 433 510 q 516 526 488 512 q 557 569 545 541 q 577 640 569 597 l 578 640 l 578 363 l 577 363 q 557 435 569 407 q 516 477 545 463 q 433 494 488 492 l 245 501 l 245 1 l 411 9 q 544 25 490 13 q 632 63 598 37 q 688 132 667 89 q 724 240 709 175 l 724 240 l 709 0 l 31 0 l 31 1 q 80 17 63 8 q 103 42 97 26 q 110 88 110 59 l 110 891 q 103 937 110 921 q 80 963 97 954 q 31 979 63 972 l 31 979 l 673 979 m 240 1031 l 241 1031 l 387 1158 l 398 1158 l 546 1031 l 546 1031 l 385 1093 l 401 1093 l 240 1031 m 240 1225 l 240 1296 l 546 1177 l 546 1177 l 240 1225 "},"Ễ":{"ha":761,"x_min":31,"x_max":724,"o":"m 673 979 l 685 763 l 684 763 q 630 886 665 842 q 532 948 596 929 q 357 973 467 968 l 245 979 l 245 503 l 433 510 q 516 526 488 512 q 557 569 545 541 q 577 640 569 597 l 578 640 l 578 363 l 577 363 q 557 435 569 407 q 516 477 545 463 q 433 494 488 492 l 245 501 l 245 1 l 411 9 q 544 25 490 13 q 632 63 598 37 q 688 132 667 89 q 724 240 709 175 l 724 240 l 709 0 l 31 0 l 31 1 q 80 17 63 8 q 103 42 97 26 q 110 88 110 59 l 110 891 q 103 937 110 921 q 80 963 97 954 q 31 979 63 972 l 31 979 l 673 979 m 240 1031 l 241 1031 l 387 1158 l 398 1158 l 546 1031 l 546 1031 l 385 1093 l 401 1093 l 240 1031 m 463 1197 q 420 1201 440 1197 q 381 1211 400 1205 l 361 1217 q 326 1226 341 1223 q 296 1230 310 1230 q 257 1219 271 1230 q 241 1183 242 1208 l 240 1183 q 261 1252 240 1227 q 323 1276 283 1276 q 366 1272 345 1276 q 405 1262 386 1267 l 425 1256 q 460 1246 445 1250 q 490 1243 476 1243 q 530 1254 515 1243 q 545 1290 545 1264 l 546 1290 q 525 1221 546 1245 q 463 1197 503 1197 "},"Ể":{"ha":761,"x_min":31,"x_max":724,"o":"m 673 979 l 685 763 l 684 763 q 630 886 665 842 q 532 948 596 929 q 357 973 467 968 l 245 979 l 245 503 l 433 510 q 516 526 488 512 q 557 569 545 541 q 577 640 569 597 l 578 640 l 578 363 l 577 363 q 557 435 569 407 q 516 477 545 463 q 433 494 488 492 l 245 501 l 245 1 l 411 9 q 544 25 490 13 q 632 63 598 37 q 688 132 667 89 q 724 240 709 175 l 724 240 l 709 0 l 31 0 l 31 1 q 80 17 63 8 q 103 42 97 26 q 110 88 110 59 l 110 891 q 103 937 110 921 q 80 963 97 954 q 31 979 63 972 l 31 979 l 673 979 m 240 1031 l 241 1031 l 387 1158 l 398 1158 l 546 1031 l 546 1031 l 385 1093 l 401 1093 l 240 1031 m 528 1265 q 586 1248 562 1265 q 610 1203 610 1231 q 582 1159 610 1175 q 494 1133 553 1143 l 494 1134 q 530 1155 517 1141 q 543 1186 543 1168 q 527 1216 543 1205 q 485 1227 511 1227 q 455 1223 468 1227 q 435 1213 442 1219 l 435 1214 q 468 1248 446 1231 q 528 1265 490 1265 "},"Ệ":{"ha":761,"x_min":31,"x_max":724,"o":"m 673 979 l 685 763 l 684 763 q 630 886 665 842 q 532 948 596 929 q 357 973 467 968 l 245 979 l 245 503 l 433 510 q 516 526 488 512 q 557 569 545 541 q 577 640 569 597 l 578 640 l 578 363 l 577 363 q 557 435 569 407 q 516 477 545 463 q 433 494 488 492 l 245 501 l 245 1 l 411 9 q 544 25 490 13 q 632 63 598 37 q 688 132 667 89 q 724 240 709 175 l 724 240 l 709 0 l 31 0 l 31 1 q 80 17 63 8 q 103 42 97 26 q 110 88 110 59 l 110 891 q 103 937 110 921 q 80 963 97 954 q 31 979 63 972 l 31 979 l 673 979 m 252 1026 q 252 1026 252 1026 q 252 1026 252 1026 l 380 1200 l 418 1200 l 546 1026 l 545 1026 l 371 1140 l 426 1140 l 252 1026 m 380 -132 q 420 -148 404 -132 q 437 -187 437 -165 q 420 -226 437 -210 q 380 -243 404 -243 q 341 -226 357 -243 q 324 -187 324 -210 q 341 -148 324 -165 q 380 -132 357 -132 "},"Ḙ":{"ha":761,"x_min":31,"x_max":724,"o":"m 673 979 l 685 763 l 684 763 q 630 886 665 842 q 532 948 596 929 q 357 973 467 968 l 245 979 l 245 503 l 433 510 q 516 526 488 512 q 557 569 545 541 q 577 640 569 597 l 578 640 l 578 363 l 577 363 q 557 435 569 407 q 516 477 545 463 q 433 494 488 492 l 245 501 l 245 1 l 411 9 q 544 25 490 13 q 632 63 598 37 q 688 132 667 89 q 724 240 709 175 l 724 240 l 709 0 l 31 0 l 31 1 q 80 17 63 8 q 103 42 97 26 q 110 88 110 59 l 110 891 q 103 937 110 921 q 80 963 97 954 q 31 979 63 972 l 31 979 l 673 979 "},"Ě":{"ha":761,"x_min":31,"x_max":724,"o":"m 673 979 l 685 763 l 684 763 q 630 886 665 842 q 532 948 596 929 q 357 973 467 968 l 245 979 l 245 503 l 433 510 q 516 526 488 512 q 557 569 545 541 q 577 640 569 597 l 578 640 l 578 363 l 577 363 q 557 435 569 407 q 516 477 545 463 q 433 494 488 492 l 245 501 l 245 1 l 411 9 q 544 25 490 13 q 632 63 598 37 q 688 132 667 89 q 724 240 709 175 l 724 240 l 709 0 l 31 0 l 31 1 q 80 17 63 8 q 103 42 97 26 q 110 88 110 59 l 110 891 q 103 937 110 921 q 80 963 97 954 q 31 979 63 972 l 31 979 l 673 979 m 545 1223 q 545 1223 545 1223 q 545 1223 545 1223 l 416 1048 l 378 1048 l 250 1223 l 252 1223 l 425 1109 l 370 1109 l 545 1223 "},"Ĕ":{"ha":761,"x_min":31,"x_max":724,"o":"m 673 979 l 685 763 l 684 763 q 630 886 665 842 q 532 948 596 929 q 357 973 467 968 l 245 979 l 245 503 l 433 510 q 516 526 488 512 q 557 569 545 541 q 577 640 569 597 l 578 640 l 578 363 l 577 363 q 557 435 569 407 q 516 477 545 463 q 433 494 488 492 l 245 501 l 245 1 l 411 9 q 544 25 490 13 q 632 63 598 37 q 688 132 667 89 q 724 240 709 175 l 724 240 l 709 0 l 31 0 l 31 1 q 80 17 63 8 q 103 42 97 26 q 110 88 110 59 l 110 891 q 103 937 110 921 q 80 963 97 954 q 31 979 63 972 l 31 979 l 673 979 m 393 1072 q 318 1093 349 1072 q 270 1148 287 1114 q 253 1220 253 1182 q 255 1250 253 1236 l 256 1250 q 256 1250 256 1250 q 256 1250 256 1250 q 274 1191 256 1216 q 324 1154 293 1166 q 392 1141 355 1141 q 460 1154 429 1141 q 510 1191 491 1166 q 528 1250 528 1216 q 528 1250 528 1250 q 528 1250 528 1250 l 529 1250 q 531 1220 531 1236 q 514 1148 531 1182 q 467 1093 498 1114 q 393 1072 436 1072 "},"Ȇ":{"ha":761,"x_min":31,"x_max":724,"o":"m 673 979 l 685 763 l 684 763 q 630 886 665 842 q 532 948 596 929 q 357 973 467 968 l 245 979 l 245 503 l 433 510 q 516 526 488 512 q 557 569 545 541 q 577 640 569 597 l 578 640 l 578 363 l 577 363 q 557 435 569 407 q 516 477 545 463 q 433 494 488 492 l 245 501 l 245 1 l 411 9 q 544 25 490 13 q 632 63 598 37 q 688 132 667 89 q 724 240 709 175 l 724 240 l 709 0 l 31 0 l 31 1 q 80 17 63 8 q 103 42 97 26 q 110 88 110 59 l 110 891 q 103 937 110 921 q 80 963 97 954 q 31 979 63 972 l 31 979 l 673 979 m 391 1250 q 466 1229 435 1250 q 514 1174 497 1208 q 531 1101 531 1140 q 529 1072 531 1086 l 528 1072 q 528 1072 528 1072 q 528 1072 528 1072 q 510 1131 528 1106 q 460 1168 491 1155 q 392 1181 429 1181 q 324 1168 355 1181 q 274 1131 293 1155 q 256 1072 256 1106 q 256 1072 256 1072 q 256 1072 256 1072 l 255 1072 q 253 1101 253 1086 q 270 1174 253 1140 q 317 1229 286 1208 q 391 1250 348 1250 "},"Ë":{"ha":761,"x_min":31,"x_max":724,"o":"m 673 979 l 685 763 l 684 763 q 630 886 665 842 q 532 948 596 929 q 357 973 467 968 l 245 979 l 245 503 l 433 510 q 516 526 488 512 q 557 569 545 541 q 577 640 569 597 l 578 640 l 578 363 l 577 363 q 557 435 569 407 q 516 477 545 463 q 433 494 488 492 l 245 501 l 245 1 l 411 9 q 544 25 490 13 q 632 63 598 37 q 688 132 667 89 q 724 240 709 175 l 724 240 l 709 0 l 31 0 l 31 1 q 80 17 63 8 q 103 42 97 26 q 110 88 110 59 l 110 891 q 103 937 110 921 q 80 963 97 954 q 31 979 63 972 l 31 979 l 673 979 m 300 1059 q 262 1075 278 1059 q 247 1114 247 1091 q 262 1152 247 1135 q 300 1168 278 1168 q 339 1152 323 1168 q 355 1114 355 1135 q 339 1075 355 1091 q 300 1059 323 1059 m 485 1059 q 446 1075 462 1059 q 431 1114 431 1091 q 446 1152 431 1135 q 485 1168 462 1168 q 523 1152 507 1168 q 538 1114 538 1135 q 523 1075 538 1091 q 485 1059 507 1059 "},"Ẽ":{"ha":761,"x_min":31,"x_max":724,"o":"m 673 979 l 685 763 l 684 763 q 630 886 665 842 q 532 948 596 929 q 357 973 467 968 l 245 979 l 245 503 l 433 510 q 516 526 488 512 q 557 569 545 541 q 577 640 569 597 l 578 640 l 578 363 l 577 363 q 557 435 569 407 q 516 477 545 463 q 433 494 488 492 l 245 501 l 245 1 l 411 9 q 544 25 490 13 q 632 63 598 37 q 688 132 667 89 q 724 240 709 175 l 724 240 l 709 0 l 31 0 l 31 1 q 80 17 63 8 q 103 42 97 26 q 110 88 110 59 l 110 891 q 103 937 110 921 q 80 963 97 954 q 31 979 63 972 l 31 979 l 673 979 m 457 1046 q 416 1055 436 1046 q 370 1081 395 1064 l 350 1094 q 318 1113 330 1107 q 291 1118 306 1118 q 259 1101 272 1118 q 243 1037 247 1085 l 243 1037 q 262 1150 238 1120 q 328 1180 287 1180 q 369 1172 349 1180 q 415 1145 389 1163 l 435 1133 q 467 1114 454 1120 q 494 1109 479 1109 q 525 1125 513 1109 q 541 1190 538 1142 l 542 1190 q 522 1077 547 1107 q 457 1046 498 1046 "},"Ḛ":{"ha":761,"x_min":31,"x_max":724,"o":"m 673 979 l 685 763 l 684 763 q 630 886 665 842 q 532 948 596 929 q 357 973 467 968 l 245 979 l 245 503 l 433 510 q 516 526 488 512 q 557 569 545 541 q 577 640 569 597 l 578 640 l 578 363 l 577 363 q 557 435 569 407 q 516 477 545 463 q 433 494 488 492 l 245 501 l 245 1 l 411 9 q 544 25 490 13 q 632 63 598 37 q 688 132 667 89 q 724 240 709 175 l 724 240 l 709 0 l 31 0 l 31 1 q 80 17 63 8 q 103 42 97 26 q 110 88 110 59 l 110 891 q 103 937 110 921 q 80 963 97 954 q 31 979 63 972 l 31 979 l 673 979 "},"Ē":{"ha":761,"x_min":31,"x_max":724,"o":"m 673 979 l 685 763 l 684 763 q 630 886 665 842 q 532 948 596 929 q 357 973 467 968 l 245 979 l 245 503 l 433 510 q 516 526 488 512 q 557 569 545 541 q 577 640 569 597 l 578 640 l 578 363 l 577 363 q 557 435 569 407 q 516 477 545 463 q 433 494 488 492 l 245 501 l 245 1 l 411 9 q 544 25 490 13 q 632 63 598 37 q 688 132 667 89 q 724 240 709 175 l 724 240 l 709 0 l 31 0 l 31 1 q 80 17 63 8 q 103 42 97 26 q 110 88 110 59 l 110 891 q 103 937 110 921 q 80 963 97 954 q 31 979 63 972 l 31 979 l 673 979 m 253 1073 l 253 1131 l 533 1131 l 533 1073 l 253 1073 "},"Ḗ":{"ha":761,"x_min":31,"x_max":724,"o":"m 673 979 l 685 763 l 684 763 q 630 886 665 842 q 532 948 596 929 q 357 973 467 968 l 245 979 l 245 503 l 433 510 q 516 526 488 512 q 557 569 545 541 q 577 640 569 597 l 578 640 l 578 363 l 577 363 q 557 435 569 407 q 516 477 545 463 q 433 494 488 492 l 245 501 l 245 1 l 411 9 q 544 25 490 13 q 632 63 598 37 q 688 132 667 89 q 724 240 709 175 l 724 240 l 709 0 l 31 0 l 31 1 q 80 17 63 8 q 103 42 97 26 q 110 88 110 59 l 110 891 q 103 937 110 921 q 80 963 97 954 q 31 979 63 972 l 31 979 l 673 979 m 240 1092 l 240 1141 l 546 1141 l 546 1092 l 240 1092 m 545 1241 l 239 1192 l 239 1193 l 545 1312 l 545 1241 "},"Ḕ":{"ha":761,"x_min":31,"x_max":724,"o":"m 673 979 l 685 763 l 684 763 q 630 886 665 842 q 532 948 596 929 q 357 973 467 968 l 245 979 l 245 503 l 433 510 q 516 526 488 512 q 557 569 545 541 q 577 640 569 597 l 578 640 l 578 363 l 577 363 q 557 435 569 407 q 516 477 545 463 q 433 494 488 492 l 245 501 l 245 1 l 411 9 q 544 25 490 13 q 632 63 598 37 q 688 132 667 89 q 724 240 709 175 l 724 240 l 709 0 l 31 0 l 31 1 q 80 17 63 8 q 103 42 97 26 q 110 88 110 59 l 110 891 q 103 937 110 921 q 80 963 97 954 q 31 979 63 972 l 31 979 l 673 979 m 240 1092 l 240 1141 l 546 1141 l 546 1092 l 240 1092 m 240 1241 l 240 1312 l 546 1193 l 546 1192 l 240 1241 "},"Ẻ":{"ha":761,"x_min":31,"x_max":724,"o":"m 673 979 l 685 763 l 684 763 q 630 886 665 842 q 532 948 596 929 q 357 973 467 968 l 245 979 l 245 503 l 433 510 q 516 526 488 512 q 557 569 545 541 q 577 640 569 597 l 578 640 l 578 363 l 577 363 q 557 435 569 407 q 516 477 545 463 q 433 494 488 492 l 245 501 l 245 1 l 411 9 q 544 25 490 13 q 632 63 598 37 q 688 132 667 89 q 724 240 709 175 l 724 240 l 709 0 l 31 0 l 31 1 q 80 17 63 8 q 103 42 97 26 q 110 88 110 59 l 110 891 q 103 937 110 921 q 80 963 97 954 q 31 979 63 972 l 31 979 l 673 979 m 405 1227 q 466 1207 441 1227 q 491 1158 491 1188 q 463 1095 491 1125 q 363 1035 435 1065 l 362 1035 q 411 1078 393 1055 q 428 1129 428 1102 q 410 1166 428 1152 q 362 1181 393 1181 q 325 1173 342 1181 q 297 1151 309 1164 l 296 1152 q 338 1206 310 1185 q 405 1227 366 1227 "},"Ė":{"ha":761,"x_min":31,"x_max":724,"o":"m 673 979 l 685 763 l 684 763 q 630 886 665 842 q 532 948 596 929 q 357 973 467 968 l 245 979 l 245 503 l 433 510 q 516 526 488 512 q 557 569 545 541 q 577 640 569 597 l 578 640 l 578 363 l 577 363 q 557 435 569 407 q 516 477 545 463 q 433 494 488 492 l 245 501 l 245 1 l 411 9 q 544 25 490 13 q 632 63 598 37 q 688 132 667 89 q 724 240 709 175 l 724 240 l 709 0 l 31 0 l 31 1 q 80 17 63 8 q 103 42 97 26 q 110 88 110 59 l 110 891 q 103 937 110 921 q 80 963 97 954 q 31 979 63 972 l 31 979 l 673 979 m 393 1057 q 353 1074 370 1057 q 336 1113 336 1090 q 353 1152 336 1135 q 393 1168 370 1168 q 433 1152 416 1168 q 449 1113 449 1135 q 433 1074 449 1090 q 393 1057 416 1057 "},"Ẹ":{"ha":761,"x_min":31,"x_max":724,"o":"m 673 979 l 685 763 l 684 763 q 630 886 665 842 q 532 948 596 929 q 357 973 467 968 l 245 979 l 245 503 l 433 510 q 516 526 488 512 q 557 569 545 541 q 577 640 569 597 l 578 640 l 578 363 l 577 363 q 557 435 569 407 q 516 477 545 463 q 433 494 488 492 l 245 501 l 245 1 l 411 9 q 544 25 490 13 q 632 63 598 37 q 688 132 667 89 q 724 240 709 175 l 724 240 l 709 0 l 31 0 l 31 1 q 80 17 63 8 q 103 42 97 26 q 110 88 110 59 l 110 891 q 103 937 110 921 q 80 963 97 954 q 31 979 63 972 l 31 979 l 673 979 m 380 -132 q 420 -148 404 -132 q 437 -187 437 -165 q 420 -226 437 -210 q 380 -243 404 -243 q 341 -226 357 -243 q 324 -187 324 -210 q 341 -148 324 -165 q 380 -132 357 -132 "},"Ȩ":{"ha":761,"x_min":31,"x_max":724,"o":"m 673 979 l 685 763 l 684 763 q 630 886 665 842 q 532 948 596 929 q 357 973 467 968 l 245 979 l 245 503 l 433 510 q 516 526 488 512 q 557 569 545 541 q 577 640 569 597 l 578 640 l 578 363 l 577 363 q 557 435 569 407 q 516 477 545 463 q 433 494 488 492 l 245 501 l 245 1 l 411 9 q 544 25 490 13 q 632 63 598 37 q 688 132 667 89 q 724 240 709 175 l 724 240 l 709 0 l 31 0 l 31 1 q 80 17 63 8 q 103 42 97 26 q 110 88 110 59 l 110 891 q 103 937 110 921 q 80 963 97 954 q 31 979 63 972 l 31 979 l 673 979 m 372 -280 q 300 -262 334 -280 q 252 -214 266 -245 l 253 -214 q 280 -233 263 -226 q 317 -241 297 -241 q 362 -225 344 -241 q 380 -184 380 -210 q 363 -145 380 -159 q 322 -130 347 -130 q 284 -138 295 -130 l 284 -138 l 379 -8 l 381 -8 l 381 -9 l 302 -117 l 302 -115 q 332 -95 311 -103 q 378 -87 353 -86 q 450 -114 420 -87 q 479 -182 479 -140 q 464 -235 479 -214 q 423 -269 448 -257 q 372 -280 399 -280 "},"Ḝ":{"ha":761,"x_min":31,"x_max":724,"o":"m 673 979 l 685 763 l 684 763 q 630 886 665 842 q 532 948 596 929 q 357 973 467 968 l 245 979 l 245 503 l 433 510 q 516 526 488 512 q 557 569 545 541 q 577 640 569 597 l 578 640 l 578 363 l 577 363 q 557 435 569 407 q 516 477 545 463 q 433 494 488 492 l 245 501 l 245 1 l 411 9 q 544 25 490 13 q 632 63 598 37 q 688 132 667 89 q 724 240 709 175 l 724 240 l 709 0 l 31 0 l 31 1 q 80 17 63 8 q 103 42 97 26 q 110 88 110 59 l 110 891 q 103 937 110 921 q 80 963 97 954 q 31 979 63 972 l 31 979 l 673 979 m 372 -280 q 300 -262 334 -280 q 252 -214 266 -245 l 253 -214 q 280 -233 263 -226 q 317 -241 297 -241 q 362 -225 344 -241 q 380 -184 380 -210 q 363 -145 380 -159 q 322 -130 347 -130 q 284 -138 295 -130 l 284 -138 l 379 -8 l 381 -8 l 381 -9 l 302 -117 l 302 -115 q 332 -95 311 -103 q 378 -87 353 -86 q 450 -114 420 -87 q 479 -182 479 -140 q 464 -235 479 -214 q 423 -269 448 -257 q 372 -280 399 -280 m 393 1072 q 318 1093 349 1072 q 270 1148 287 1114 q 253 1220 253 1182 q 255 1250 253 1236 l 256 1250 q 256 1250 256 1250 q 256 1250 256 1250 q 274 1191 256 1216 q 324 1154 293 1166 q 392 1141 355 1141 q 460 1154 429 1141 q 510 1191 491 1166 q 528 1250 528 1216 q 528 1250 528 1250 q 528 1250 528 1250 l 529 1250 q 531 1220 531 1236 q 514 1148 531 1182 q 467 1093 498 1114 q 393 1072 436 1072 "},"Ę":{"ha":761,"x_min":31,"x_max":724,"o":"m 673 979 l 685 763 l 684 763 q 630 886 665 842 q 532 948 596 929 q 357 973 467 968 l 245 979 l 245 503 l 433 510 q 517 527 489 513 q 557 569 545 541 q 577 640 569 597 l 578 640 l 578 363 l 577 363 q 557 435 569 408 q 517 477 545 463 q 433 494 489 492 l 245 501 l 245 1 l 411 9 q 544 25 490 13 q 632 63 598 37 q 688 132 667 89 q 724 240 709 175 l 724 240 l 709 0 l 31 0 l 31 1 q 80 17 63 8 q 103 42 97 26 q 110 88 110 59 l 110 891 q 103 937 110 921 q 80 963 97 954 q 31 979 63 972 l 31 979 l 673 979 m 616 -317 q 537 -286 568 -317 q 506 -205 506 -254 q 536 -97 506 -148 q 620 1 566 -45 l 621 1 q 599 -55 606 -22 q 591 -131 591 -89 q 616 -227 591 -186 q 673 -268 640 -268 q 703 -259 690 -268 q 724 -239 716 -251 l 724 -239 q 684 -296 713 -275 q 616 -317 654 -317 "},"F":{"ha":677,"x_min":31,"x_max":655,"o":"m 643 979 l 655 763 l 654 763 q 604 886 636 842 q 512 948 572 929 q 348 973 452 968 l 245 979 l 245 497 l 397 504 q 480 520 452 507 q 519 563 507 534 q 539 635 531 591 l 540 635 l 540 358 l 539 358 q 519 430 531 402 q 480 472 507 458 q 397 489 452 486 l 245 496 l 245 99 q 251 47 245 66 q 275 17 257 28 q 330 1 294 7 l 330 0 l 31 0 l 31 1 q 80 17 63 8 q 103 42 97 26 q 110 88 110 59 l 110 891 q 103 937 110 921 q 80 963 97 954 q 31 979 63 972 l 31 979 l 643 979 "},"Ḟ":{"ha":677,"x_min":31,"x_max":655,"o":"m 643 979 l 655 763 l 654 763 q 604 886 636 842 q 512 948 572 929 q 348 973 452 968 l 245 979 l 245 497 l 397 504 q 480 520 452 507 q 519 563 507 534 q 539 635 531 591 l 540 635 l 540 358 l 539 358 q 519 430 531 402 q 480 472 507 458 q 397 489 452 486 l 245 496 l 245 99 q 251 47 245 66 q 275 17 257 28 q 330 1 294 7 l 330 0 l 31 0 l 31 1 q 80 17 63 8 q 103 42 97 26 q 110 88 110 59 l 110 891 q 103 937 110 921 q 80 963 97 954 q 31 979 63 972 l 31 979 l 643 979 m 360 1057 q 320 1074 337 1057 q 304 1113 304 1090 q 320 1152 304 1135 q 360 1168 337 1168 q 400 1152 384 1168 q 416 1113 416 1135 q 400 1074 416 1090 q 360 1057 384 1057 "},"G":{"ha":987,"x_min":60,"x_max":973,"o":"m 60 503 q 98 714 60 623 q 204 866 137 804 q 359 958 271 927 q 546 989 448 989 q 751 969 680 989 q 855 925 823 949 l 866 700 l 865 700 q 826 816 852 764 q 759 907 799 869 q 666 966 719 945 q 546 987 612 987 q 369 929 444 987 q 253 766 294 872 q 212 515 212 661 q 232 325 212 418 q 294 157 252 232 q 401 37 336 82 q 559 -7 467 -7 q 687 12 630 -7 q 774 59 744 31 l 774 350 q 768 402 774 384 q 746 429 762 420 q 699 440 730 437 l 699 441 l 973 441 l 973 440 q 927 429 943 437 q 905 402 911 420 q 899 350 899 384 l 899 101 q 748 21 841 51 q 559 -9 655 -9 q 354 27 446 -9 q 196 132 262 64 q 95 294 130 199 q 60 503 60 388 "},"Ǵ":{"ha":987,"x_min":60,"x_max":973,"o":"m 60 503 q 98 714 60 623 q 204 866 137 804 q 359 958 271 927 q 546 989 448 989 q 751 969 680 989 q 855 925 823 949 l 866 700 l 865 700 q 826 816 852 764 q 759 907 799 869 q 666 966 719 945 q 546 987 612 987 q 369 929 444 987 q 253 766 294 872 q 212 515 212 661 q 232 325 212 418 q 294 157 252 232 q 401 37 336 82 q 559 -7 467 -7 q 687 12 630 -7 q 774 59 744 31 l 774 350 q 768 402 774 384 q 746 429 762 420 q 699 440 730 437 l 699 441 l 973 441 l 973 440 q 927 429 943 437 q 905 402 911 420 q 899 350 899 384 l 899 101 q 748 21 841 51 q 559 -9 655 -9 q 354 27 446 -9 q 196 132 262 64 q 95 294 130 199 q 60 503 60 388 m 536 1025 l 534 1025 l 608 1200 l 734 1200 l 734 1198 l 536 1025 "},"Ĝ":{"ha":987,"x_min":60,"x_max":973,"o":"m 60 503 q 98 714 60 623 q 204 866 137 804 q 359 958 271 927 q 546 989 448 989 q 751 969 680 989 q 855 925 823 949 l 866 700 l 865 700 q 826 816 852 764 q 759 907 799 869 q 666 966 719 945 q 546 987 612 987 q 369 929 444 987 q 253 766 294 872 q 212 515 212 661 q 232 325 212 418 q 294 157 252 232 q 401 37 336 82 q 559 -7 467 -7 q 687 12 630 -7 q 774 59 744 31 l 774 350 q 768 402 774 384 q 746 429 762 420 q 699 440 730 437 l 699 441 l 973 441 l 973 440 q 927 429 943 437 q 905 402 911 420 q 899 350 899 384 l 899 101 q 748 21 841 51 q 559 -9 655 -9 q 354 27 446 -9 q 196 132 262 64 q 95 294 130 199 q 60 503 60 388 m 415 1026 q 415 1026 415 1026 q 415 1026 415 1026 l 543 1200 l 581 1200 l 709 1026 l 708 1026 l 534 1140 l 589 1140 l 415 1026 "},"Ǧ":{"ha":987,"x_min":60,"x_max":973,"o":"m 60 503 q 98 714 60 623 q 204 866 137 804 q 359 958 271 927 q 546 989 448 989 q 751 969 680 989 q 855 925 823 949 l 866 700 l 865 700 q 826 816 852 764 q 759 907 799 869 q 666 966 719 945 q 546 987 612 987 q 369 929 444 987 q 253 766 294 872 q 212 515 212 661 q 232 325 212 418 q 294 157 252 232 q 401 37 336 82 q 559 -7 467 -7 q 687 12 630 -7 q 774 59 744 31 l 774 350 q 768 402 774 384 q 746 429 762 420 q 699 440 730 437 l 699 441 l 973 441 l 973 440 q 927 429 943 437 q 905 402 911 420 q 899 350 899 384 l 899 101 q 748 21 841 51 q 559 -9 655 -9 q 354 27 446 -9 q 196 132 262 64 q 95 294 130 199 q 60 503 60 388 m 708 1223 q 708 1223 708 1223 q 708 1223 708 1223 l 580 1048 l 542 1048 l 414 1223 l 415 1223 l 589 1109 l 534 1109 l 708 1223 "},"Ğ":{"ha":987,"x_min":60,"x_max":973,"o":"m 60 503 q 98 714 60 623 q 204 866 137 804 q 359 958 271 927 q 546 989 448 989 q 751 969 680 989 q 855 925 823 949 l 866 700 l 865 700 q 826 816 852 764 q 759 907 799 869 q 666 966 719 945 q 546 987 612 987 q 369 929 444 987 q 253 766 294 872 q 212 515 212 661 q 232 325 212 418 q 294 157 252 232 q 401 37 336 82 q 559 -7 467 -7 q 687 12 630 -7 q 774 59 744 31 l 774 350 q 768 402 774 384 q 746 429 762 420 q 699 440 730 437 l 699 441 l 973 441 l 973 440 q 927 429 943 437 q 905 402 911 420 q 899 350 899 384 l 899 101 q 748 21 841 51 q 559 -9 655 -9 q 354 27 446 -9 q 196 132 262 64 q 95 294 130 199 q 60 503 60 388 m 556 1072 q 481 1093 513 1072 q 433 1148 450 1114 q 416 1220 416 1182 q 418 1250 416 1236 l 419 1250 q 419 1250 419 1250 q 419 1250 419 1250 q 438 1191 419 1216 q 487 1154 456 1166 q 555 1141 518 1141 q 624 1154 593 1141 q 673 1191 654 1166 q 692 1250 692 1216 q 692 1250 692 1250 q 692 1250 692 1250 l 692 1250 q 694 1220 694 1236 q 678 1148 694 1182 q 630 1093 661 1114 q 556 1072 600 1072 "},"Ḡ":{"ha":987,"x_min":60,"x_max":973,"o":"m 60 503 q 98 714 60 623 q 204 866 137 804 q 359 958 271 927 q 546 989 448 989 q 751 969 680 989 q 855 925 823 949 l 866 700 l 865 700 q 826 816 852 764 q 759 907 799 869 q 666 966 719 945 q 546 987 612 987 q 369 929 444 987 q 253 766 294 872 q 212 515 212 661 q 232 325 212 418 q 294 157 252 232 q 401 37 336 82 q 559 -7 467 -7 q 687 12 630 -7 q 774 59 744 31 l 774 350 q 768 402 774 384 q 746 429 762 420 q 699 440 730 437 l 699 441 l 973 441 l 973 440 q 927 429 943 437 q 905 402 911 420 q 899 350 899 384 l 899 101 q 748 21 841 51 q 559 -9 655 -9 q 354 27 446 -9 q 196 132 262 64 q 95 294 130 199 q 60 503 60 388 m 416 1073 l 416 1131 l 696 1131 l 696 1073 l 416 1073 "},"Ġ":{"ha":987,"x_min":60,"x_max":973,"o":"m 60 503 q 98 714 60 623 q 204 866 137 804 q 359 958 271 927 q 546 989 448 989 q 751 969 680 989 q 855 925 823 949 l 866 700 l 865 700 q 826 816 852 764 q 759 907 799 869 q 666 966 719 945 q 546 987 612 987 q 369 929 444 987 q 253 766 294 872 q 212 515 212 661 q 232 325 212 418 q 294 157 252 232 q 401 37 336 82 q 559 -7 467 -7 q 687 12 630 -7 q 774 59 744 31 l 774 350 q 768 402 774 384 q 746 429 762 420 q 699 440 730 437 l 699 441 l 973 441 l 973 440 q 927 429 943 437 q 905 402 911 420 q 899 350 899 384 l 899 101 q 748 21 841 51 q 559 -9 655 -9 q 354 27 446 -9 q 196 132 262 64 q 95 294 130 199 q 60 503 60 388 m 556 1057 q 516 1074 533 1057 q 500 1113 500 1090 q 516 1152 500 1135 q 556 1168 533 1168 q 596 1152 580 1168 q 612 1113 612 1135 q 596 1074 612 1090 q 556 1057 580 1057 "},"Ģ":{"ha":987,"x_min":60,"x_max":973,"o":"m 60 503 q 98 714 60 623 q 204 866 137 804 q 359 958 271 927 q 546 989 448 989 q 751 969 680 989 q 855 925 823 949 l 866 700 l 865 700 q 826 816 852 764 q 759 907 799 869 q 666 966 719 945 q 546 987 612 987 q 369 929 444 987 q 253 766 294 872 q 212 515 212 661 q 232 325 212 418 q 294 157 252 232 q 401 37 336 82 q 559 -7 467 -7 q 687 12 630 -7 q 774 59 744 31 l 774 350 q 768 402 774 384 q 746 429 762 420 q 699 440 730 437 l 699 441 l 973 441 l 973 440 q 927 429 943 437 q 905 402 911 420 q 899 350 899 384 l 899 101 q 748 21 841 51 q 559 -9 655 -9 q 354 27 446 -9 q 196 132 262 64 q 95 294 130 199 q 60 503 60 388 m 556 -283 q 477 -261 513 -283 q 430 -209 442 -239 l 431 -208 q 468 -234 445 -223 q 516 -245 491 -245 q 566 -231 547 -245 q 585 -193 585 -216 q 566 -154 585 -168 q 515 -140 546 -140 q 489 -143 502 -140 q 468 -150 475 -146 l 468 -149 q 506 -110 483 -129 q 568 -91 529 -91 q 647 -116 616 -91 q 679 -186 679 -142 q 644 -256 679 -229 q 556 -283 608 -283 "},"H":{"ha":981,"x_min":31,"x_max":949,"o":"m 245 83 q 252 40 245 55 q 275 16 258 24 q 321 1 291 7 l 321 0 l 31 0 l 31 1 q 80 17 63 8 q 103 42 97 26 q 110 88 110 59 l 110 891 q 103 937 110 921 q 80 963 97 954 q 31 979 63 972 l 31 979 l 321 979 l 321 979 q 275 963 291 972 q 252 940 258 955 q 245 897 245 924 l 245 83 m 871 88 q 877 42 871 59 q 901 17 884 26 q 949 1 918 8 l 949 0 l 659 0 l 659 1 q 706 16 690 7 q 729 40 723 24 q 735 83 735 55 l 735 897 q 729 940 735 924 q 706 963 723 955 q 659 979 690 972 l 659 979 l 949 979 l 949 979 q 901 963 918 972 q 877 937 884 954 q 871 891 871 921 l 871 88 m 178 500 l 178 504 l 803 504 l 803 500 l 178 500 "},"Ĥ":{"ha":981,"x_min":31,"x_max":949,"o":"m 245 83 q 252 40 245 55 q 275 16 258 24 q 321 1 291 7 l 321 0 l 31 0 l 31 1 q 80 17 63 8 q 103 42 97 26 q 110 88 110 59 l 110 891 q 103 937 110 921 q 80 963 97 954 q 31 979 63 972 l 31 979 l 321 979 l 321 979 q 275 963 291 972 q 252 940 258 955 q 245 897 245 924 l 245 83 m 871 88 q 877 42 871 59 q 901 17 884 26 q 949 1 918 8 l 949 0 l 659 0 l 659 1 q 706 16 690 7 q 729 40 723 24 q 735 83 735 55 l 735 897 q 729 940 735 924 q 706 963 723 955 q 659 979 690 972 l 659 979 l 949 979 l 949 979 q 901 963 918 972 q 877 937 884 954 q 871 891 871 921 l 871 88 m 178 500 l 178 504 l 803 504 l 803 500 l 178 500 m 349 1026 q 349 1026 349 1026 q 349 1026 349 1026 l 477 1200 l 515 1200 l 644 1026 l 642 1026 l 469 1140 l 524 1140 l 349 1026 "},"Ȟ":{"ha":981,"x_min":31,"x_max":949,"o":"m 245 83 q 252 40 245 55 q 275 16 258 24 q 321 1 291 7 l 321 0 l 31 0 l 31 1 q 80 17 63 8 q 103 42 97 26 q 110 88 110 59 l 110 891 q 103 937 110 921 q 80 963 97 954 q 31 979 63 972 l 31 979 l 321 979 l 321 979 q 275 963 291 972 q 252 940 258 955 q 245 897 245 924 l 245 83 m 871 88 q 877 42 871 59 q 901 17 884 26 q 949 1 918 8 l 949 0 l 659 0 l 659 1 q 706 16 690 7 q 729 40 723 24 q 735 83 735 55 l 735 897 q 729 940 735 924 q 706 963 723 955 q 659 979 690 972 l 659 979 l 949 979 l 949 979 q 901 963 918 972 q 877 937 884 954 q 871 891 871 921 l 871 88 m 178 500 l 178 504 l 803 504 l 803 500 l 178 500 m 642 1223 q 642 1223 642 1223 q 642 1223 642 1223 l 514 1048 l 476 1048 l 348 1223 l 349 1223 l 523 1109 l 468 1109 l 642 1223 "},"Ḫ":{"ha":981,"x_min":31,"x_max":949,"o":"m 245 83 q 252 40 245 55 q 275 16 258 24 q 321 1 291 7 l 321 0 l 31 0 l 31 1 q 80 17 63 8 q 103 42 97 26 q 110 88 110 59 l 110 891 q 103 937 110 921 q 80 963 97 954 q 31 979 63 972 l 31 979 l 321 979 l 321 979 q 275 963 291 972 q 252 940 258 955 q 245 897 245 924 l 245 83 m 871 88 q 877 42 871 59 q 901 17 884 26 q 949 1 918 8 l 949 0 l 659 0 l 659 1 q 706 16 690 7 q 729 40 723 24 q 735 83 735 55 l 735 897 q 729 940 735 924 q 706 963 723 955 q 659 979 690 972 l 659 979 l 949 979 l 949 979 q 901 963 918 972 q 877 937 884 954 q 871 891 871 921 l 871 88 m 178 500 l 178 504 l 803 504 l 803 500 l 178 500 "},"Ḧ":{"ha":981,"x_min":31,"x_max":949,"o":"m 245 83 q 252 40 245 55 q 275 16 258 24 q 321 1 291 7 l 321 0 l 31 0 l 31 1 q 80 17 63 8 q 103 42 97 26 q 110 88 110 59 l 110 891 q 103 937 110 921 q 80 963 97 954 q 31 979 63 972 l 31 979 l 321 979 l 321 979 q 275 963 291 972 q 252 940 258 955 q 245 897 245 924 l 245 83 m 871 88 q 877 42 871 59 q 901 17 884 26 q 949 1 918 8 l 949 0 l 659 0 l 659 1 q 706 16 690 7 q 729 40 723 24 q 735 83 735 55 l 735 897 q 729 940 735 924 q 706 963 723 955 q 659 979 690 972 l 659 979 l 949 979 l 949 979 q 901 963 918 972 q 877 937 884 954 q 871 891 871 921 l 871 88 m 178 500 l 178 504 l 803 504 l 803 500 l 178 500 m 398 1059 q 360 1075 376 1059 q 345 1114 345 1091 q 360 1152 345 1135 q 398 1168 376 1168 q 437 1152 421 1168 q 452 1114 452 1135 q 437 1075 452 1091 q 398 1059 421 1059 m 583 1059 q 544 1075 559 1059 q 528 1114 528 1091 q 544 1152 528 1135 q 583 1168 559 1168 q 621 1152 605 1168 q 636 1114 636 1135 q 621 1075 636 1091 q 583 1059 605 1059 "},"Ḣ":{"ha":981,"x_min":31,"x_max":949,"o":"m 245 83 q 252 40 245 55 q 275 16 258 24 q 321 1 291 7 l 321 0 l 31 0 l 31 1 q 80 17 63 8 q 103 42 97 26 q 110 88 110 59 l 110 891 q 103 937 110 921 q 80 963 97 954 q 31 979 63 972 l 31 979 l 321 979 l 321 979 q 275 963 291 972 q 252 940 258 955 q 245 897 245 924 l 245 83 m 871 88 q 877 42 871 59 q 901 17 884 26 q 949 1 918 8 l 949 0 l 659 0 l 659 1 q 706 16 690 7 q 729 40 723 24 q 735 83 735 55 l 735 897 q 729 940 735 924 q 706 963 723 955 q 659 979 690 972 l 659 979 l 949 979 l 949 979 q 901 963 918 972 q 877 937 884 954 q 871 891 871 921 l 871 88 m 178 500 l 178 504 l 803 504 l 803 500 l 178 500 m 490 1057 q 451 1074 467 1057 q 434 1113 434 1090 q 451 1152 434 1135 q 490 1168 467 1168 q 530 1152 514 1168 q 547 1113 547 1135 q 530 1074 547 1090 q 490 1057 514 1057 "},"Ḥ":{"ha":981,"x_min":31,"x_max":949,"o":"m 245 83 q 252 40 245 55 q 275 16 258 24 q 321 1 291 7 l 321 0 l 31 0 l 31 1 q 80 17 63 8 q 103 42 97 26 q 110 88 110 59 l 110 891 q 103 937 110 921 q 80 963 97 954 q 31 979 63 972 l 31 979 l 321 979 l 321 979 q 275 963 291 972 q 252 940 258 955 q 245 897 245 924 l 245 83 m 871 88 q 877 42 871 59 q 901 17 884 26 q 949 1 918 8 l 949 0 l 659 0 l 659 1 q 706 16 690 7 q 729 40 723 24 q 735 83 735 55 l 735 897 q 729 940 735 924 q 706 963 723 955 q 659 979 690 972 l 659 979 l 949 979 l 949 979 q 901 963 918 972 q 877 937 884 954 q 871 891 871 921 l 871 88 m 178 500 l 178 504 l 803 504 l 803 500 l 178 500 m 490 -132 q 530 -148 514 -132 q 547 -187 547 -165 q 530 -226 547 -210 q 490 -243 514 -243 q 451 -226 467 -243 q 434 -187 434 -210 q 451 -148 434 -165 q 490 -132 467 -132 "},"Ḩ":{"ha":981,"x_min":31,"x_max":949,"o":"m 169 -280 q 97 -262 131 -280 q 50 -214 63 -245 l 50 -214 q 77 -233 60 -225 q 114 -241 94 -241 q 159 -225 141 -241 q 178 -184 178 -210 q 161 -145 178 -159 q 119 -130 144 -130 q 81 -138 92 -130 l 81 -138 l 176 1 l 178 1 l 178 0 l 100 -117 l 100 -115 q 129 -95 109 -103 q 176 -87 150 -86 q 227 -100 203 -87 q 263 -133 250 -112 q 277 -182 277 -155 q 261 -235 277 -214 q 220 -269 245 -257 q 169 -280 196 -280 m 245 83 q 252 40 245 55 q 275 16 258 24 q 321 1 291 7 l 321 0 l 31 0 l 31 1 q 80 17 63 8 q 103 42 97 26 q 110 88 110 59 l 110 891 q 103 937 110 921 q 80 963 97 954 q 31 979 63 972 l 31 979 l 321 979 l 321 979 q 275 963 291 972 q 252 940 258 955 q 245 897 245 924 l 245 83 m 871 88 q 877 42 871 59 q 901 17 884 26 q 949 1 918 8 l 949 0 l 659 0 l 659 1 q 706 16 690 7 q 729 40 723 24 q 735 83 735 55 l 735 897 q 729 940 735 924 q 706 963 723 955 q 659 979 690 972 l 659 979 l 949 979 l 949 979 q 901 963 918 972 q 877 937 884 954 q 871 891 871 921 l 871 88 m 178 500 l 178 504 l 803 504 l 803 500 l 178 500 "},"Ħ":{"ha":981,"x_min":31,"x_max":949,"o":"m 245 83 q 252 40 245 55 q 275 16 258 24 q 321 1 291 7 l 321 0 l 31 0 l 31 1 q 80 17 63 8 q 103 42 97 26 q 110 88 110 59 l 110 891 q 103 937 110 921 q 80 963 97 954 q 31 979 63 972 l 31 979 l 321 979 l 321 979 q 275 963 291 972 q 252 940 258 955 q 245 897 245 924 l 245 83 m 871 88 q 877 42 871 59 q 901 17 884 26 q 949 1 918 8 l 949 0 l 659 0 l 659 1 q 706 16 690 7 q 729 40 723 24 q 735 83 735 55 l 735 897 q 729 940 735 924 q 706 963 723 955 q 659 979 690 972 l 659 979 l 949 979 l 949 979 q 901 963 918 972 q 877 937 884 954 q 871 891 871 921 l 871 88 m 178 500 l 178 504 l 803 504 l 803 500 l 178 500 m 31 735 l 31 741 l 949 741 l 949 735 l 31 735 "},"I":{"ha":366,"x_min":37,"x_max":330,"o":"m 251 88 q 257 42 251 59 q 281 17 264 26 q 330 1 298 8 l 330 0 l 37 0 l 37 1 q 85 17 68 8 q 109 42 102 26 q 115 88 115 59 l 115 891 q 109 937 115 921 q 85 963 102 954 q 37 979 68 972 l 37 979 l 330 979 l 330 979 q 281 963 298 972 q 257 937 264 954 q 251 891 251 921 l 251 88 "},"Í":{"ha":366,"x_min":37,"x_max":361,"o":"m 251 88 q 257 42 251 59 q 281 17 264 26 q 330 1 298 8 l 330 0 l 37 0 l 37 1 q 85 17 68 8 q 109 42 102 26 q 115 88 115 59 l 115 891 q 109 937 115 921 q 85 963 102 954 q 37 979 68 972 l 37 979 l 330 979 l 330 979 q 281 963 298 972 q 257 937 264 954 q 251 891 251 921 l 251 88 m 163 1025 l 161 1025 l 235 1200 l 361 1200 l 361 1198 l 163 1025 "},"Ì":{"ha":366,"x_min":14,"x_max":330,"o":"m 251 88 q 257 42 251 59 q 281 17 264 26 q 330 1 298 8 l 330 0 l 37 0 l 37 1 q 85 17 68 8 q 109 42 102 26 q 115 88 115 59 l 115 891 q 109 937 115 921 q 85 963 102 954 q 37 979 68 972 l 37 979 l 330 979 l 330 979 q 281 963 298 972 q 257 937 264 954 q 251 891 251 921 l 251 88 m 215 1026 l 14 1199 l 14 1200 l 145 1200 l 216 1026 l 215 1026 "},"Ȉ":{"ha":366,"x_min":-66,"x_max":330,"o":"m 251 88 q 257 42 251 59 q 281 17 264 26 q 330 1 298 8 l 330 0 l 37 0 l 37 1 q 85 17 68 8 q 109 42 102 26 q 115 88 115 59 l 115 891 q 109 937 115 921 q 85 963 102 954 q 37 979 68 972 l 37 979 l 330 979 l 330 979 q 281 963 298 972 q 257 937 264 954 q 251 891 251 921 l 251 88 m 54 1200 l 135 1025 l 134 1025 l -66 1199 l -66 1200 l 54 1200 m 244 1200 l 294 1025 l 293 1025 l 130 1199 l 130 1200 l 244 1200 "},"Î":{"ha":366,"x_min":37,"x_max":336,"o":"m 251 88 q 257 42 251 59 q 281 17 264 26 q 330 1 298 8 l 330 0 l 37 0 l 37 1 q 85 17 68 8 q 109 42 102 26 q 115 88 115 59 l 115 891 q 109 937 115 921 q 85 963 102 954 q 37 979 68 972 l 37 979 l 330 979 l 330 979 q 281 963 298 972 q 257 937 264 954 q 251 891 251 921 l 251 88 m 42 1026 q 42 1026 42 1026 q 42 1026 42 1026 l 170 1200 l 208 1200 l 336 1026 l 335 1026 l 161 1140 l 216 1140 l 42 1026 "},"Ǐ":{"ha":366,"x_min":37,"x_max":335,"o":"m 251 88 q 257 42 251 59 q 281 17 264 26 q 330 1 298 8 l 330 0 l 37 0 l 37 1 q 85 17 68 8 q 109 42 102 26 q 115 88 115 59 l 115 891 q 109 937 115 921 q 85 963 102 954 q 37 979 68 972 l 37 979 l 330 979 l 330 979 q 281 963 298 972 q 257 937 264 954 q 251 891 251 921 l 251 88 m 335 1223 q 335 1223 335 1223 q 335 1223 335 1223 l 207 1048 l 169 1048 l 41 1223 l 42 1223 l 216 1109 l 161 1109 l 335 1223 "},"Ĭ":{"ha":366,"x_min":37,"x_max":330,"o":"m 251 88 q 257 42 251 59 q 281 17 264 26 q 330 1 298 8 l 330 0 l 37 0 l 37 1 q 85 17 68 8 q 109 42 102 26 q 115 88 115 59 l 115 891 q 109 937 115 921 q 85 963 102 954 q 37 979 68 972 l 37 979 l 330 979 l 330 979 q 281 963 298 972 q 257 937 264 954 q 251 891 251 921 l 251 88 m 183 1072 q 109 1093 140 1072 q 60 1148 77 1114 q 43 1220 43 1182 q 45 1250 43 1236 l 46 1250 q 46 1250 46 1250 q 46 1250 46 1250 q 65 1191 46 1216 q 114 1154 83 1166 q 182 1141 145 1141 q 251 1154 220 1141 q 300 1191 281 1166 q 319 1250 319 1216 q 319 1250 319 1250 q 319 1250 319 1250 l 319 1250 q 321 1220 321 1236 q 305 1148 321 1182 q 257 1093 288 1114 q 183 1072 227 1072 "},"Ȋ":{"ha":366,"x_min":37,"x_max":330,"o":"m 251 88 q 257 42 251 59 q 281 17 264 26 q 330 1 298 8 l 330 0 l 37 0 l 37 1 q 85 17 68 8 q 109 42 102 26 q 115 88 115 59 l 115 891 q 109 937 115 921 q 85 963 102 954 q 37 979 68 972 l 37 979 l 330 979 l 330 979 q 281 963 298 972 q 257 937 264 954 q 251 891 251 921 l 251 88 m 182 1250 q 256 1229 225 1250 q 304 1174 288 1208 q 321 1101 321 1140 q 319 1072 321 1086 l 319 1072 q 319 1072 319 1072 q 319 1072 319 1072 q 300 1131 319 1106 q 251 1168 281 1155 q 182 1181 220 1181 q 114 1168 145 1181 q 65 1131 83 1155 q 46 1072 46 1106 q 46 1072 46 1072 q 46 1072 46 1072 l 45 1072 q 43 1101 43 1086 q 60 1174 43 1140 q 107 1229 77 1208 q 182 1250 138 1250 "},"Ï":{"ha":366,"x_min":37,"x_max":330,"o":"m 251 88 q 257 42 251 59 q 281 17 264 26 q 330 1 298 8 l 330 0 l 37 0 l 37 1 q 85 17 68 8 q 109 42 102 26 q 115 88 115 59 l 115 891 q 109 937 115 921 q 85 963 102 954 q 37 979 68 972 l 37 979 l 330 979 l 330 979 q 281 963 298 972 q 257 937 264 954 q 251 891 251 921 l 251 88 m 91 1059 q 53 1075 68 1059 q 37 1114 37 1091 q 53 1152 37 1135 q 91 1168 68 1168 q 130 1152 114 1168 q 145 1114 145 1135 q 130 1075 145 1091 q 91 1059 114 1059 m 275 1059 q 237 1075 252 1059 q 221 1114 221 1091 q 237 1152 221 1135 q 275 1168 252 1168 q 313 1152 298 1168 q 329 1114 329 1135 q 313 1075 329 1091 q 275 1059 298 1059 "},"Ḯ":{"ha":366,"x_min":30,"x_max":336,"o":"m 251 88 q 257 42 251 59 q 281 17 264 26 q 330 1 298 8 l 330 0 l 37 0 l 37 1 q 85 17 68 8 q 109 42 102 26 q 115 88 115 59 l 115 891 q 109 937 115 921 q 85 963 102 954 q 37 979 68 972 l 37 979 l 330 979 l 330 979 q 281 963 298 972 q 257 937 264 954 q 251 891 251 921 l 251 88 m 97 1072 l 96 1072 q 61 1085 75 1072 q 47 1116 47 1097 q 61 1148 47 1135 q 96 1160 75 1160 l 97 1160 q 132 1148 118 1160 q 146 1116 146 1135 q 132 1085 146 1097 q 97 1072 118 1072 m 271 1072 l 269 1072 q 234 1085 248 1072 q 220 1116 220 1097 q 234 1148 220 1135 q 269 1160 248 1160 l 271 1160 q 306 1148 292 1160 q 319 1116 319 1135 q 306 1085 319 1097 q 271 1072 292 1072 m 336 1240 l 30 1192 l 30 1192 l 336 1311 l 336 1240 "},"Ĩ":{"ha":366,"x_min":28,"x_max":337,"o":"m 251 88 q 257 42 251 59 q 281 17 264 26 q 330 1 298 8 l 330 0 l 37 0 l 37 1 q 85 17 68 8 q 109 42 102 26 q 115 88 115 59 l 115 891 q 109 937 115 921 q 85 963 102 954 q 37 979 68 972 l 37 979 l 330 979 l 330 979 q 281 963 298 972 q 257 937 264 954 q 251 891 251 921 l 251 88 m 248 1046 q 206 1055 227 1046 q 160 1081 186 1064 l 140 1094 q 109 1113 121 1107 q 81 1118 96 1118 q 50 1101 62 1118 q 34 1037 37 1085 l 33 1037 q 53 1150 28 1120 q 118 1180 77 1180 q 159 1172 139 1180 q 205 1145 180 1163 l 225 1133 q 257 1114 245 1120 q 284 1109 269 1109 q 316 1125 303 1109 q 332 1190 328 1142 l 332 1190 q 313 1077 337 1107 q 248 1046 288 1046 "},"Ḭ":{"ha":366,"x_min":35,"x_max":331,"o":"m 251 88 q 257 42 251 59 q 281 17 264 26 q 330 1 298 8 l 330 0 l 37 0 l 37 1 q 85 17 68 8 q 109 42 102 26 q 115 88 115 59 l 115 891 q 109 937 115 921 q 85 963 102 954 q 37 979 68 972 l 37 979 l 330 979 l 330 979 q 281 963 298 972 q 257 937 264 954 q 251 891 251 921 l 251 88 "},"Ī":{"ha":366,"x_min":37,"x_max":330,"o":"m 251 88 q 257 42 251 59 q 281 17 264 26 q 330 1 298 8 l 330 0 l 37 0 l 37 1 q 85 17 68 8 q 109 42 102 26 q 115 88 115 59 l 115 891 q 109 937 115 921 q 85 963 102 954 q 37 979 68 972 l 37 979 l 330 979 l 330 979 q 281 963 298 972 q 257 937 264 954 q 251 891 251 921 l 251 88 m 43 1073 l 43 1131 l 323 1131 l 323 1073 l 43 1073 "},"Ỉ":{"ha":366,"x_min":37,"x_max":330,"o":"m 251 88 q 257 42 251 59 q 281 17 264 26 q 330 1 298 8 l 330 0 l 37 0 l 37 1 q 85 17 68 8 q 109 42 102 26 q 115 88 115 59 l 115 891 q 109 937 115 921 q 85 963 102 954 q 37 979 68 972 l 37 979 l 330 979 l 330 979 q 281 963 298 972 q 257 937 264 954 q 251 891 251 921 l 251 88 m 195 1227 q 256 1207 231 1227 q 281 1158 281 1188 q 254 1095 281 1125 q 154 1035 226 1065 l 153 1035 q 201 1078 184 1055 q 218 1129 218 1102 q 201 1166 218 1152 q 153 1181 183 1181 q 116 1173 132 1181 q 87 1151 99 1164 l 87 1152 q 129 1206 100 1185 q 195 1227 157 1227 "},"İ":{"ha":366,"x_min":37,"x_max":330,"o":"m 251 88 q 257 42 251 59 q 281 17 264 26 q 330 1 298 8 l 330 0 l 37 0 l 37 1 q 85 17 68 8 q 109 42 102 26 q 115 88 115 59 l 115 891 q 109 937 115 921 q 85 963 102 954 q 37 979 68 972 l 37 979 l 330 979 l 330 979 q 281 963 298 972 q 257 937 264 954 q 251 891 251 921 l 251 88 m 183 1057 q 143 1074 160 1057 q 127 1113 127 1090 q 143 1152 127 1135 q 183 1168 160 1168 q 223 1152 207 1168 q 239 1113 239 1135 q 223 1074 239 1090 q 183 1057 207 1057 "},"Ị":{"ha":366,"x_min":37,"x_max":330,"o":"m 251 88 q 257 42 251 59 q 281 17 264 26 q 330 1 298 8 l 330 0 l 37 0 l 37 1 q 85 17 68 8 q 109 42 102 26 q 115 88 115 59 l 115 891 q 109 937 115 921 q 85 963 102 954 q 37 979 68 972 l 37 979 l 330 979 l 330 979 q 281 963 298 972 q 257 937 264 954 q 251 891 251 921 l 251 88 m 183 -132 q 223 -148 207 -132 q 239 -187 239 -165 q 223 -226 239 -210 q 183 -243 207 -243 q 143 -226 160 -243 q 127 -187 127 -210 q 143 -148 127 -165 q 183 -132 160 -132 "},"Į":{"ha":366,"x_min":37,"x_max":330,"o":"m 251 88 q 257 42 251 59 q 281 17 264 26 q 330 1 298 8 l 330 0 l 37 0 l 37 1 q 85 17 68 8 q 109 42 102 26 q 115 88 115 59 l 115 891 q 109 937 115 921 q 85 963 102 954 q 37 979 68 972 l 37 979 l 330 979 l 330 979 q 281 963 298 972 q 257 937 264 954 q 251 891 251 921 l 251 88 m 191 -317 q 112 -286 142 -317 q 81 -205 81 -254 q 111 -97 81 -148 q 195 1 140 -45 l 195 1 q 174 -55 181 -22 q 166 -131 166 -89 q 191 -227 166 -186 q 248 -268 215 -268 q 278 -259 265 -268 q 298 -239 291 -251 l 299 -239 q 258 -296 288 -275 q 191 -317 229 -317 "},"J":{"ha":345,"x_min":-81,"x_max":319,"o":"m 240 157 q 218 4 240 70 q 155 -113 196 -62 q 54 -202 113 -163 q -81 -275 -5 -241 l -81 -275 q 31 -169 -9 -229 q 88 -26 71 -110 q 104 178 104 58 l 104 891 q 98 937 104 921 q 75 963 92 954 q 26 979 58 972 l 26 979 l 319 979 l 319 979 q 270 963 287 972 q 247 937 253 954 q 240 891 240 921 l 240 157 "},"Ĵ":{"ha":345,"x_min":-81,"x_max":326,"o":"m 240 157 q 218 4 240 70 q 155 -113 196 -62 q 54 -202 113 -163 q -81 -275 -5 -241 l -81 -275 q 31 -169 -9 -229 q 88 -26 71 -110 q 104 178 104 58 l 104 891 q 98 937 104 921 q 75 963 92 954 q 26 979 58 972 l 26 979 l 319 979 l 319 979 q 270 963 287 972 q 247 937 253 954 q 240 891 240 921 l 240 157 m 31 1026 q 31 1026 31 1026 q 31 1026 31 1026 l 159 1200 l 197 1200 l 326 1026 l 324 1026 l 151 1140 l 205 1140 l 31 1026 "},"K":{"ha":849,"x_min":31,"x_max":849,"o":"m 245 83 q 252 40 245 55 q 275 16 258 24 q 321 1 291 7 l 321 0 l 31 0 l 31 1 q 80 17 63 8 q 103 42 97 26 q 110 88 110 59 l 110 891 q 103 937 110 921 q 80 963 97 954 q 31 979 63 972 l 31 979 l 321 979 l 321 979 q 275 963 291 972 q 252 940 258 955 q 245 897 245 924 l 245 83 m 644 0 l 323 513 l 576 806 q 650 902 629 866 q 662 956 671 938 q 612 979 652 974 l 612 979 l 828 979 l 828 979 q 761 949 795 970 q 685 891 726 928 q 589 800 644 855 q 497 704 545 755 q 412 614 450 653 l 412 614 l 682 187 q 753 83 724 121 q 804 27 781 45 q 849 1 826 9 l 849 0 l 644 0 m 326 510 l 243 512 l 243 513 l 326 515 l 326 510 "},"Ḱ":{"ha":849,"x_min":31,"x_max":849,"o":"m 245 83 q 252 40 245 55 q 275 16 258 24 q 321 1 291 7 l 321 0 l 31 0 l 31 1 q 80 17 63 8 q 103 42 97 26 q 110 88 110 59 l 110 891 q 103 937 110 921 q 80 963 97 954 q 31 979 63 972 l 31 979 l 321 979 l 321 979 q 275 963 291 972 q 252 940 258 955 q 245 897 245 924 l 245 83 m 644 0 l 323 513 l 576 806 q 650 902 629 866 q 662 956 671 938 q 612 979 652 974 l 612 979 l 828 979 l 828 979 q 761 949 795 970 q 685 891 726 928 q 589 800 644 855 q 497 704 545 755 q 412 614 450 653 l 412 614 l 682 187 q 753 83 724 121 q 804 27 781 45 q 849 1 826 9 l 849 0 l 644 0 m 326 510 l 243 512 l 243 513 l 326 515 l 326 510 m 399 1025 l 397 1025 l 471 1199 l 597 1199 l 597 1198 l 399 1025 "},"Ǩ":{"ha":849,"x_min":31,"x_max":849,"o":"m 245 83 q 252 40 245 55 q 275 16 258 24 q 321 1 291 7 l 321 0 l 31 0 l 31 1 q 80 17 63 8 q 103 42 97 26 q 110 88 110 59 l 110 891 q 103 937 110 921 q 80 963 97 954 q 31 979 63 972 l 31 979 l 321 979 l 321 979 q 275 963 291 972 q 252 940 258 955 q 245 897 245 924 l 245 83 m 644 0 l 323 513 l 576 806 q 650 902 629 866 q 662 956 671 938 q 612 979 652 974 l 612 979 l 828 979 l 828 979 q 761 949 795 970 q 685 891 726 928 q 589 800 644 855 q 497 704 545 755 q 412 614 450 653 l 412 614 l 682 187 q 753 83 724 121 q 804 27 781 45 q 849 1 826 9 l 849 0 l 644 0 m 326 510 l 243 512 l 243 513 l 326 515 l 326 510 m 571 1222 q 571 1222 571 1222 q 571 1222 571 1222 l 443 1048 l 405 1048 l 277 1222 l 278 1222 l 452 1108 l 397 1108 l 571 1222 "},"Ḵ":{"ha":849,"x_min":31,"x_max":849,"o":"m 245 83 q 252 40 245 55 q 275 16 258 24 q 321 1 291 7 l 321 0 l 31 0 l 31 1 q 80 17 63 8 q 103 42 97 26 q 110 88 110 59 l 110 891 q 103 937 110 921 q 80 963 97 954 q 31 979 63 972 l 31 979 l 321 979 l 321 979 q 275 963 291 972 q 252 940 258 955 q 245 897 245 924 l 245 83 m 644 0 l 323 513 l 576 806 q 650 902 629 866 q 662 956 671 938 q 612 979 652 974 l 612 979 l 828 979 l 828 979 q 761 949 795 970 q 685 891 726 928 q 589 800 644 855 q 497 704 545 755 q 412 614 450 653 l 412 614 l 682 187 q 753 83 724 121 q 804 27 781 45 q 849 1 826 9 l 849 0 l 644 0 m 326 510 l 243 512 l 243 513 l 326 515 l 326 510 "},"Ḳ":{"ha":849,"x_min":31,"x_max":849,"o":"m 245 83 q 252 40 245 55 q 275 16 258 24 q 321 1 291 7 l 321 0 l 31 0 l 31 1 q 80 17 63 8 q 103 42 97 26 q 110 88 110 59 l 110 891 q 103 937 110 921 q 80 963 97 954 q 31 979 63 972 l 31 979 l 321 979 l 321 979 q 275 963 291 972 q 252 940 258 955 q 245 897 245 924 l 245 83 m 644 0 l 323 513 l 576 806 q 650 902 629 866 q 662 956 671 938 q 612 979 652 974 l 612 979 l 828 979 l 828 979 q 761 949 795 970 q 685 891 726 928 q 589 800 644 855 q 497 704 545 755 q 412 614 450 653 l 412 614 l 682 187 q 753 83 724 121 q 804 27 781 45 q 849 1 826 9 l 849 0 l 644 0 m 326 510 l 243 512 l 243 513 l 326 515 l 326 510 m 433 -132 q 473 -148 456 -132 q 489 -187 489 -165 q 473 -226 489 -210 q 433 -243 456 -243 q 393 -226 410 -243 q 376 -187 376 -210 q 393 -148 376 -165 q 433 -132 410 -132 "},"Ķ":{"ha":849,"x_min":31,"x_max":849,"o":"m 245 83 q 252 40 245 55 q 275 16 258 24 q 321 1 291 7 l 321 0 l 31 0 l 31 1 q 80 17 63 8 q 103 42 97 26 q 110 88 110 59 l 110 891 q 103 937 110 921 q 80 963 97 954 q 31 979 63 972 l 31 979 l 321 979 l 321 979 q 275 963 291 972 q 252 940 258 955 q 245 897 245 924 l 245 83 m 644 0 l 323 513 l 576 806 q 650 902 629 866 q 662 956 671 938 q 612 979 652 974 l 612 979 l 828 979 l 828 979 q 761 949 795 970 q 685 891 726 928 q 589 800 644 855 q 497 704 545 755 q 412 614 450 653 l 412 614 l 682 187 q 753 83 724 121 q 804 27 781 45 q 849 1 826 9 l 849 0 l 644 0 m 326 510 l 243 512 l 243 513 l 326 515 l 326 510 m 433 -283 q 354 -261 389 -283 q 307 -209 319 -239 l 307 -208 q 345 -234 321 -223 q 393 -245 368 -245 q 443 -231 424 -245 q 462 -193 462 -216 q 442 -154 462 -168 q 392 -140 422 -140 q 365 -143 378 -140 q 345 -150 352 -146 l 345 -149 q 382 -110 359 -129 q 445 -91 406 -91 q 524 -116 492 -91 q 555 -186 555 -142 q 520 -256 555 -229 q 433 -283 485 -283 "},"L":{"ha":694,"x_min":31,"x_max":675,"o":"m 661 0 l 31 0 l 31 1 q 80 17 63 8 q 103 42 97 26 q 110 88 110 59 l 110 891 q 103 937 110 921 q 80 963 97 954 q 31 979 63 972 l 31 979 l 330 979 l 330 979 q 275 962 294 972 q 251 932 257 951 q 245 880 245 913 l 245 1 l 347 5 q 488 22 431 9 q 581 61 545 35 q 638 131 616 87 q 675 240 660 174 l 675 240 l 661 0 "},"Ĺ":{"ha":694,"x_min":31,"x_max":675,"o":"m 661 0 l 31 0 l 31 1 q 80 17 63 8 q 103 42 97 26 q 110 88 110 59 l 110 891 q 103 937 110 921 q 80 963 97 954 q 31 979 63 972 l 31 979 l 330 979 l 330 979 q 275 962 294 972 q 251 932 257 951 q 245 880 245 913 l 245 1 l 347 5 q 488 22 431 9 q 581 61 545 35 q 638 131 616 87 q 675 240 660 174 l 675 240 l 661 0 m 157 1025 l 156 1025 l 230 1200 l 356 1200 l 356 1198 l 157 1025 "},"Ḽ":{"ha":694,"x_min":31,"x_max":675,"o":"m 661 0 l 31 0 l 31 1 q 80 17 63 8 q 103 42 97 26 q 110 88 110 59 l 110 891 q 103 937 110 921 q 80 963 97 954 q 31 979 63 972 l 31 979 l 330 979 l 330 979 q 275 962 294 972 q 251 932 257 951 q 245 880 245 913 l 245 1 l 347 5 q 488 22 431 9 q 581 61 545 35 q 638 131 616 87 q 675 240 660 174 l 675 240 l 661 0 "},"Ľ":{"ha":694,"x_min":31,"x_max":675,"o":"m 661 0 l 31 0 l 31 1 q 80 17 63 8 q 103 42 97 26 q 110 88 110 59 l 110 891 q 103 937 110 921 q 80 963 97 954 q 31 979 63 972 l 31 979 l 330 979 l 330 979 q 275 962 294 972 q 251 932 257 951 q 245 880 245 913 l 245 1 l 347 5 q 488 22 431 9 q 581 61 545 35 q 638 131 616 87 q 675 240 660 174 l 675 240 l 661 0 m 444 747 l 444 747 l 472 1006 l 575 1006 l 444 747 "},"Ḻ":{"ha":694,"x_min":31,"x_max":675,"o":"m 661 0 l 31 0 l 31 1 q 80 17 63 8 q 103 42 97 26 q 110 88 110 59 l 110 891 q 103 937 110 921 q 80 963 97 954 q 31 979 63 972 l 31 979 l 330 979 l 330 979 q 275 962 294 972 q 251 932 257 951 q 245 880 245 913 l 245 1 l 347 5 q 488 22 431 9 q 581 61 545 35 q 638 131 616 87 q 675 240 660 174 l 675 240 l 661 0 "},"Ŀ":{"ha":694,"x_min":31,"x_max":675,"o":"m 661 0 l 31 0 l 31 1 q 80 17 63 8 q 103 42 97 26 q 110 88 110 59 l 110 891 q 103 937 110 921 q 80 963 97 954 q 31 979 63 972 l 31 979 l 330 979 l 330 979 q 275 962 294 972 q 251 932 257 951 q 245 880 245 913 l 245 1 l 347 5 q 488 22 431 9 q 581 61 545 35 q 638 131 616 87 q 675 240 660 174 l 675 240 l 661 0 m 446 464 q 399 483 418 464 q 379 529 379 503 q 399 575 379 555 q 446 594 418 594 q 493 575 473 594 q 512 529 512 555 q 493 483 512 503 q 446 464 473 464 "},"Ḷ":{"ha":694,"x_min":31,"x_max":675,"o":"m 661 0 l 31 0 l 31 1 q 80 17 63 8 q 103 42 97 26 q 110 88 110 59 l 110 891 q 103 937 110 921 q 80 963 97 954 q 31 979 63 972 l 31 979 l 330 979 l 330 979 q 275 962 294 972 q 251 932 257 951 q 245 880 245 913 l 245 1 l 347 5 q 488 22 431 9 q 581 61 545 35 q 638 131 616 87 q 675 240 660 174 l 675 240 l 661 0 m 382 -132 q 422 -148 406 -132 q 439 -187 439 -165 q 422 -226 439 -210 q 382 -243 406 -243 q 343 -226 359 -243 q 326 -187 326 -210 q 343 -148 326 -165 q 382 -132 359 -132 "},"Ḹ":{"ha":694,"x_min":31,"x_max":675,"o":"m 661 0 l 31 0 l 31 1 q 80 17 63 8 q 103 42 97 26 q 110 88 110 59 l 110 891 q 103 937 110 921 q 80 963 97 954 q 31 979 63 972 l 31 979 l 330 979 l 330 979 q 275 962 294 972 q 251 932 257 951 q 245 880 245 913 l 245 1 l 347 5 q 488 22 431 9 q 581 61 545 35 q 638 131 616 87 q 675 240 660 174 l 675 240 l 661 0 m 382 -132 q 422 -148 406 -132 q 439 -187 439 -165 q 422 -226 439 -210 q 382 -243 406 -243 q 343 -226 359 -243 q 326 -187 326 -210 q 343 -148 326 -165 q 382 -132 359 -132 m 38 1073 l 38 1131 l 318 1131 l 318 1073 l 38 1073 "},"Ļ":{"ha":694,"x_min":31,"x_max":675,"o":"m 661 0 l 31 0 l 31 1 q 80 17 63 8 q 103 42 97 26 q 110 88 110 59 l 110 891 q 103 937 110 921 q 80 963 97 954 q 31 979 63 972 l 31 979 l 330 979 l 330 979 q 275 962 294 972 q 251 932 257 951 q 245 880 245 913 l 245 1 l 347 5 q 488 22 431 9 q 581 61 545 35 q 638 131 616 87 q 675 240 660 174 l 675 240 l 661 0 m 382 -283 q 304 -261 339 -283 q 256 -209 269 -239 l 257 -208 q 294 -234 271 -223 q 342 -245 317 -245 q 393 -231 374 -245 q 412 -193 412 -216 q 392 -154 412 -168 q 342 -140 372 -140 q 315 -143 328 -140 q 294 -150 302 -146 l 294 -149 q 332 -110 309 -129 q 395 -91 355 -91 q 474 -116 442 -91 q 505 -186 505 -142 q 470 -256 505 -229 q 382 -283 435 -283 "},"Ł":{"ha":694,"x_min":31,"x_max":675,"o":"m 661 0 l 31 0 l 31 1 q 80 17 63 8 q 103 42 97 26 q 110 88 110 59 l 110 891 q 103 937 110 921 q 80 963 97 954 q 31 979 63 972 l 31 979 l 330 979 l 330 979 q 275 962 294 972 q 251 932 257 951 q 245 880 245 913 l 245 1 l 347 5 q 488 22 431 9 q 581 61 545 35 q 638 131 616 87 q 675 240 660 174 l 675 240 l 661 0 m 31 446 l 31 452 l 484 582 l 484 576 l 31 446 "},"M":{"ha":1123,"x_min":-2,"x_max":1105,"o":"m 254 979 l 574 144 l 574 144 l 869 979 l 1063 979 l 1063 979 q 1020 963 1036 972 q 1000 937 1005 954 q 996 892 995 920 l 1028 87 q 1035 40 1029 57 q 1057 15 1041 23 q 1105 1 1073 6 l 1105 0 l 818 0 l 818 1 q 865 14 848 6 q 888 40 882 22 q 892 87 894 57 l 859 903 l 863 903 l 576 144 l 522 0 l 493 0 l 130 930 l 138 930 l 120 186 q 124 79 119 117 q 148 24 129 41 q 205 1 167 7 l 205 0 l -2 0 l -2 1 q 58 24 37 7 q 87 79 79 41 q 100 186 96 117 l 134 859 q 129 921 136 897 q 106 958 122 944 q 66 979 90 971 l 66 979 l 254 979 "},"Ḿ":{"ha":1123,"x_min":-2,"x_max":1105,"o":"m 254 979 l 574 144 l 574 144 l 869 979 l 1063 979 l 1063 979 q 1020 963 1036 972 q 1000 937 1005 954 q 996 892 995 920 l 1028 87 q 1035 40 1029 57 q 1057 15 1041 23 q 1105 1 1073 6 l 1105 0 l 818 0 l 818 1 q 865 14 848 6 q 888 40 882 22 q 892 87 894 57 l 859 903 l 863 903 l 576 144 l 522 0 l 493 0 l 130 930 l 138 930 l 120 186 q 124 79 119 117 q 148 24 129 41 q 205 1 167 7 l 205 0 l -2 0 l -2 1 q 58 24 37 7 q 87 79 79 41 q 100 186 96 117 l 134 859 q 129 921 136 897 q 106 958 122 944 q 66 979 90 971 l 66 979 l 254 979 m 546 1025 l 545 1025 l 618 1200 l 745 1200 l 745 1198 l 546 1025 "},"Ṁ":{"ha":1123,"x_min":-2,"x_max":1105,"o":"m 254 979 l 574 144 l 574 144 l 869 979 l 1063 979 l 1063 979 q 1020 963 1036 972 q 1000 937 1005 954 q 996 892 995 920 l 1028 87 q 1035 40 1029 57 q 1057 15 1041 23 q 1105 1 1073 6 l 1105 0 l 818 0 l 818 1 q 865 14 848 6 q 888 40 882 22 q 892 87 894 57 l 859 903 l 863 903 l 576 144 l 522 0 l 493 0 l 130 930 l 138 930 l 120 186 q 124 79 119 117 q 148 24 129 41 q 205 1 167 7 l 205 0 l -2 0 l -2 1 q 58 24 37 7 q 87 79 79 41 q 100 186 96 117 l 134 859 q 129 921 136 897 q 106 958 122 944 q 66 979 90 971 l 66 979 l 254 979 m 566 1057 q 527 1074 543 1057 q 510 1113 510 1090 q 527 1152 510 1135 q 566 1168 543 1168 q 606 1152 590 1168 q 623 1113 623 1135 q 606 1074 623 1090 q 566 1057 590 1057 "},"Ṃ":{"ha":1123,"x_min":-2,"x_max":1105,"o":"m 254 979 l 574 144 l 574 144 l 869 979 l 1063 979 l 1063 979 q 1020 963 1036 972 q 1000 937 1005 954 q 996 892 995 920 l 1028 87 q 1035 40 1029 57 q 1057 15 1041 23 q 1105 1 1073 6 l 1105 0 l 818 0 l 818 1 q 865 14 848 6 q 888 40 882 22 q 892 87 894 57 l 859 903 l 863 903 l 576 144 l 522 0 l 493 0 l 130 930 l 138 930 l 120 186 q 124 79 119 117 q 148 24 129 41 q 205 1 167 7 l 205 0 l -2 0 l -2 1 q 58 24 37 7 q 87 79 79 41 q 100 186 96 117 l 134 859 q 129 921 136 897 q 106 958 122 944 q 66 979 90 971 l 66 979 l 254 979 m 509 -132 q 549 -148 533 -132 q 566 -187 566 -165 q 549 -226 566 -210 q 509 -243 533 -243 q 470 -226 486 -243 q 453 -187 453 -210 q 470 -148 453 -165 q 509 -132 486 -132 "},"N":{"ha":907,"x_min":7,"x_max":903,"o":"m 243 979 l 802 197 l 802 197 l 789 779 q 781 896 788 854 q 754 955 774 937 q 696 979 735 973 l 696 979 l 903 979 l 903 979 q 845 955 865 973 q 818 896 825 937 q 810 779 810 854 l 803 0 l 771 0 l 99 937 l 111 937 l 121 201 q 129 83 122 125 q 156 24 136 42 q 214 1 176 7 l 214 0 l 7 0 l 7 1 q 66 25 46 7 q 93 84 85 43 q 100 201 100 125 l 109 859 q 101 920 110 897 q 76 956 93 942 q 35 979 60 969 l 35 979 l 243 979 "},"Ń":{"ha":907,"x_min":7,"x_max":903,"o":"m 243 979 l 802 197 l 802 197 l 789 779 q 781 896 788 854 q 754 955 774 937 q 696 979 735 973 l 696 979 l 903 979 l 903 979 q 845 955 865 973 q 818 896 825 937 q 810 779 810 854 l 803 0 l 771 0 l 99 937 l 111 937 l 121 201 q 129 83 122 125 q 156 24 136 42 q 214 1 176 7 l 214 0 l 7 0 l 7 1 q 66 25 46 7 q 93 84 85 43 q 100 201 100 125 l 109 859 q 101 920 110 897 q 76 956 93 942 q 35 979 60 969 l 35 979 l 243 979 m 465 1025 l 464 1025 l 538 1200 l 664 1200 l 664 1198 l 465 1025 "},"Ǹ":{"ha":907,"x_min":7,"x_max":903,"o":"m 243 979 l 802 197 l 802 197 l 789 779 q 781 896 788 854 q 754 955 774 937 q 696 979 735 973 l 696 979 l 903 979 l 903 979 q 845 955 865 973 q 818 896 825 937 q 810 779 810 854 l 803 0 l 771 0 l 99 937 l 111 937 l 121 201 q 129 83 122 125 q 156 24 136 42 q 214 1 176 7 l 214 0 l 7 0 l 7 1 q 66 25 46 7 q 93 84 85 43 q 100 201 100 125 l 109 859 q 101 920 110 897 q 76 956 93 942 q 35 979 60 969 l 35 979 l 243 979 m 517 1026 l 316 1199 l 316 1200 l 448 1200 l 519 1026 l 517 1026 "},"Ṋ":{"ha":907,"x_min":7,"x_max":903,"o":"m 243 979 l 802 197 l 802 197 l 789 779 q 781 896 788 854 q 754 955 774 937 q 696 979 735 973 l 696 979 l 903 979 l 903 979 q 845 955 865 973 q 818 896 825 937 q 810 779 810 854 l 803 0 l 771 0 l 99 937 l 111 937 l 121 201 q 129 83 122 125 q 156 24 136 42 q 214 1 176 7 l 214 0 l 7 0 l 7 1 q 66 25 46 7 q 93 84 85 43 q 100 201 100 125 l 109 859 q 101 920 110 897 q 76 956 93 942 q 35 979 60 969 l 35 979 l 243 979 "},"Ň":{"ha":907,"x_min":7,"x_max":903,"o":"m 243 979 l 802 197 l 802 197 l 789 779 q 781 896 788 854 q 754 955 774 937 q 696 979 735 973 l 696 979 l 903 979 l 903 979 q 845 955 865 973 q 818 896 825 937 q 810 779 810 854 l 803 0 l 771 0 l 99 937 l 111 937 l 121 201 q 129 83 122 125 q 156 24 136 42 q 214 1 176 7 l 214 0 l 7 0 l 7 1 q 66 25 46 7 q 93 84 85 43 q 100 201 100 125 l 109 859 q 101 920 110 897 q 76 956 93 942 q 35 979 60 969 l 35 979 l 243 979 m 637 1223 q 637 1223 637 1223 q 637 1223 637 1223 l 509 1048 l 471 1048 l 343 1223 l 345 1223 l 518 1109 l 463 1109 l 637 1223 "},"Ñ":{"ha":907,"x_min":7,"x_max":903,"o":"m 243 979 l 802 197 l 802 197 l 789 779 q 781 896 788 854 q 754 955 774 937 q 696 979 735 973 l 696 979 l 903 979 l 903 979 q 845 955 865 973 q 818 896 825 937 q 810 779 810 854 l 803 0 l 771 0 l 99 937 l 111 937 l 121 201 q 129 83 122 125 q 156 24 136 42 q 214 1 176 7 l 214 0 l 7 0 l 7 1 q 66 25 46 7 q 93 84 85 43 q 100 201 100 125 l 109 859 q 101 920 110 897 q 76 956 93 942 q 35 979 60 969 l 35 979 l 243 979 m 550 1046 q 509 1055 529 1046 q 463 1081 488 1064 l 443 1094 q 411 1113 423 1107 q 384 1118 399 1118 q 352 1101 365 1118 q 336 1037 340 1085 l 336 1037 q 355 1150 331 1120 q 420 1180 380 1180 q 462 1172 441 1180 q 508 1145 482 1163 l 528 1133 q 559 1114 547 1120 q 587 1109 572 1109 q 618 1125 606 1109 q 634 1190 631 1142 l 635 1190 q 615 1077 640 1107 q 550 1046 591 1046 "},"Ṉ":{"ha":907,"x_min":7,"x_max":903,"o":"m 243 979 l 802 197 l 802 197 l 789 779 q 781 896 788 854 q 754 955 774 937 q 696 979 735 973 l 696 979 l 903 979 l 903 979 q 845 955 865 973 q 818 896 825 937 q 810 779 810 854 l 803 0 l 771 0 l 99 937 l 111 937 l 121 201 q 129 83 122 125 q 156 24 136 42 q 214 1 176 7 l 214 0 l 7 0 l 7 1 q 66 25 46 7 q 93 84 85 43 q 100 201 100 125 l 109 859 q 101 920 110 897 q 76 956 93 942 q 35 979 60 969 l 35 979 l 243 979 "},"Ṅ":{"ha":907,"x_min":7,"x_max":903,"o":"m 243 979 l 802 197 l 802 197 l 789 779 q 781 896 788 854 q 754 955 774 937 q 696 979 735 973 l 696 979 l 903 979 l 903 979 q 845 955 865 973 q 818 896 825 937 q 810 779 810 854 l 803 0 l 771 0 l 99 937 l 111 937 l 121 201 q 129 83 122 125 q 156 24 136 42 q 214 1 176 7 l 214 0 l 7 0 l 7 1 q 66 25 46 7 q 93 84 85 43 q 100 201 100 125 l 109 859 q 101 920 110 897 q 76 956 93 942 q 35 979 60 969 l 35 979 l 243 979 m 486 1057 q 446 1074 463 1057 q 429 1113 429 1090 q 446 1152 429 1135 q 486 1168 463 1168 q 526 1152 509 1168 q 542 1113 542 1135 q 526 1074 542 1090 q 486 1057 509 1057 "},"Ṇ":{"ha":907,"x_min":7,"x_max":903,"o":"m 243 979 l 802 197 l 802 197 l 789 779 q 781 896 788 854 q 754 955 774 937 q 696 979 735 973 l 696 979 l 903 979 l 903 979 q 845 955 865 973 q 818 896 825 937 q 810 779 810 854 l 803 0 l 771 0 l 99 937 l 111 937 l 121 201 q 129 83 122 125 q 156 24 136 42 q 214 1 176 7 l 214 0 l 7 0 l 7 1 q 66 25 46 7 q 93 84 85 43 q 100 201 100 125 l 109 859 q 101 920 110 897 q 76 956 93 942 q 35 979 60 969 l 35 979 l 243 979 m 456 -132 q 496 -148 479 -132 q 512 -187 512 -165 q 496 -226 512 -210 q 456 -243 479 -243 q 416 -226 433 -243 q 399 -187 399 -210 q 416 -148 399 -165 q 456 -132 433 -132 "},"Ņ":{"ha":907,"x_min":7,"x_max":903,"o":"m 243 979 l 802 197 l 802 197 l 789 779 q 781 896 788 854 q 754 955 774 937 q 696 979 735 973 l 696 979 l 903 979 l 903 979 q 845 955 865 973 q 818 896 825 937 q 810 779 810 854 l 803 0 l 771 0 l 99 937 l 111 937 l 121 201 q 129 83 122 125 q 156 24 136 42 q 214 1 176 7 l 214 0 l 7 0 l 7 1 q 66 25 46 7 q 93 84 85 43 q 100 201 100 125 l 109 859 q 101 920 110 897 q 76 956 93 942 q 35 979 60 969 l 35 979 l 243 979 m 456 -283 q 377 -261 412 -283 q 330 -209 342 -239 l 330 -208 q 368 -234 345 -223 q 416 -245 391 -245 q 466 -231 447 -245 q 485 -193 485 -216 q 465 -154 485 -168 q 415 -140 446 -140 q 388 -143 401 -140 q 368 -150 375 -146 l 368 -149 q 406 -110 382 -129 q 468 -91 429 -91 q 547 -116 515 -91 q 578 -186 578 -142 q 543 -256 578 -229 q 456 -283 508 -283 "},"O":{"ha":1074,"x_min":60,"x_max":1015,"o":"m 60 490 q 93 684 60 593 q 189 842 127 774 q 339 950 252 911 q 533 989 426 989 q 710 955 624 989 q 865 856 796 920 q 974 699 934 791 q 1015 490 1015 606 q 981 297 1015 388 q 885 138 947 207 q 735 30 822 68 q 541 -9 648 -9 q 364 25 450 -9 q 209 124 278 60 q 100 282 140 189 q 60 490 60 374 m 212 497 q 235 293 212 385 q 301 133 258 201 q 405 29 344 66 q 541 -7 465 -7 q 727 56 656 -7 q 830 230 798 119 q 863 484 863 340 q 840 688 863 595 q 773 847 817 780 q 669 950 730 913 q 533 987 608 987 q 348 924 418 987 q 244 751 277 861 q 212 497 212 640 "},"Ó":{"ha":1074,"x_min":60,"x_max":1015,"o":"m 60 490 q 93 684 60 593 q 189 842 127 774 q 339 950 252 911 q 533 989 426 989 q 710 955 624 989 q 865 856 796 920 q 974 699 934 791 q 1015 490 1015 606 q 981 297 1015 388 q 885 138 947 207 q 735 30 822 68 q 541 -9 648 -9 q 364 25 450 -9 q 209 124 278 60 q 100 282 140 189 q 60 490 60 374 m 212 497 q 235 293 212 385 q 301 133 258 201 q 405 29 344 66 q 541 -7 465 -7 q 727 56 656 -7 q 830 230 798 119 q 863 484 863 340 q 840 688 863 595 q 773 847 817 780 q 669 950 730 913 q 533 987 608 987 q 348 924 418 987 q 244 751 277 861 q 212 497 212 640 m 515 1025 l 514 1025 l 588 1200 l 714 1200 l 714 1198 l 515 1025 "},"Ò":{"ha":1074,"x_min":60,"x_max":1015,"o":"m 60 490 q 93 684 60 593 q 189 842 127 774 q 339 950 252 911 q 533 989 426 989 q 710 955 624 989 q 865 856 796 920 q 974 699 934 791 q 1015 490 1015 606 q 981 297 1015 388 q 885 138 947 207 q 735 30 822 68 q 541 -9 648 -9 q 364 25 450 -9 q 209 124 278 60 q 100 282 140 189 q 60 490 60 374 m 212 497 q 235 293 212 385 q 301 133 258 201 q 405 29 344 66 q 541 -7 465 -7 q 727 56 656 -7 q 830 230 798 119 q 863 484 863 340 q 840 688 863 595 q 773 847 817 780 q 669 950 730 913 q 533 987 608 987 q 348 924 418 987 q 244 751 277 861 q 212 497 212 640 m 568 1026 l 366 1199 l 366 1200 l 498 1200 l 569 1026 l 568 1026 "},"Ő":{"ha":1074,"x_min":60,"x_max":1015,"o":"m 60 490 q 93 684 60 593 q 189 842 127 774 q 339 950 252 911 q 533 989 426 989 q 710 955 624 989 q 865 856 796 920 q 974 699 934 791 q 1015 490 1015 606 q 981 297 1015 388 q 885 138 947 207 q 735 30 822 68 q 541 -9 648 -9 q 364 25 450 -9 q 209 124 278 60 q 100 282 140 189 q 60 490 60 374 m 212 497 q 235 293 212 385 q 301 133 258 201 q 405 29 344 66 q 541 -7 465 -7 q 727 56 656 -7 q 830 230 798 119 q 863 484 863 340 q 840 688 863 595 q 773 847 817 780 q 669 950 730 913 q 533 987 608 987 q 348 924 418 987 q 244 751 277 861 q 212 497 212 640 m 486 1200 l 601 1201 l 601 1200 l 437 1026 l 436 1026 l 486 1200 m 675 1200 l 797 1201 l 797 1200 l 597 1026 l 595 1026 l 675 1200 "},"Ȍ":{"ha":1074,"x_min":60,"x_max":1015,"o":"m 60 490 q 93 684 60 593 q 189 842 127 774 q 339 950 252 911 q 533 989 426 989 q 710 955 624 989 q 865 856 796 920 q 974 699 934 791 q 1015 490 1015 606 q 981 297 1015 388 q 885 138 947 207 q 735 30 822 68 q 541 -9 648 -9 q 364 25 450 -9 q 209 124 278 60 q 100 282 140 189 q 60 490 60 374 m 212 497 q 235 293 212 385 q 301 133 258 201 q 405 29 344 66 q 541 -7 465 -7 q 727 56 656 -7 q 830 230 798 119 q 863 484 863 340 q 840 688 863 595 q 773 847 817 780 q 669 950 730 913 q 533 987 608 987 q 348 924 418 987 q 244 751 277 861 q 212 497 212 640 m 407 1200 l 488 1025 l 486 1025 l 286 1199 l 286 1200 l 407 1200 m 597 1200 l 647 1025 l 646 1025 l 482 1199 l 482 1200 l 597 1200 "},"Ô":{"ha":1074,"x_min":60,"x_max":1015,"o":"m 60 490 q 93 684 60 593 q 189 842 127 774 q 339 950 252 911 q 533 989 426 989 q 710 955 624 989 q 865 856 796 920 q 974 699 934 791 q 1015 490 1015 606 q 981 297 1015 388 q 885 138 947 207 q 735 30 822 68 q 541 -9 648 -9 q 364 25 450 -9 q 209 124 278 60 q 100 282 140 189 q 60 490 60 374 m 212 497 q 235 293 212 385 q 301 133 258 201 q 405 29 344 66 q 541 -7 465 -7 q 727 56 656 -7 q 830 230 798 119 q 863 484 863 340 q 840 688 863 595 q 773 847 817 780 q 669 950 730 913 q 533 987 608 987 q 348 924 418 987 q 244 751 277 861 q 212 497 212 640 m 395 1026 q 395 1026 395 1026 q 395 1026 395 1026 l 523 1200 l 561 1200 l 689 1026 l 688 1026 l 514 1140 l 569 1140 l 395 1026 "},"Ố":{"ha":1074,"x_min":60,"x_max":1015,"o":"m 60 490 q 93 684 60 593 q 189 842 127 774 q 339 950 252 911 q 533 989 426 989 q 710 955 624 989 q 865 856 796 920 q 974 699 934 791 q 1015 490 1015 606 q 981 297 1015 388 q 885 138 947 207 q 735 30 822 68 q 541 -9 648 -9 q 364 25 450 -9 q 209 124 278 60 q 100 282 140 189 q 60 490 60 374 m 212 497 q 235 293 212 385 q 301 133 258 201 q 405 29 344 66 q 541 -7 465 -7 q 727 56 656 -7 q 830 230 798 119 q 863 484 863 340 q 840 688 863 595 q 773 847 817 780 q 669 950 730 913 q 533 987 608 987 q 348 924 418 987 q 244 751 277 861 q 212 497 212 640 m 383 1031 l 384 1031 l 530 1158 l 541 1158 l 689 1031 l 689 1031 l 528 1093 l 544 1093 l 383 1031 m 688 1225 l 382 1177 l 382 1177 l 688 1296 l 688 1225 "},"Ồ":{"ha":1074,"x_min":60,"x_max":1015,"o":"m 60 490 q 93 684 60 593 q 189 842 127 774 q 339 950 252 911 q 533 989 426 989 q 710 955 624 989 q 865 856 796 920 q 974 699 934 791 q 1015 490 1015 606 q 981 297 1015 388 q 885 138 947 207 q 735 30 822 68 q 541 -9 648 -9 q 364 25 450 -9 q 209 124 278 60 q 100 282 140 189 q 60 490 60 374 m 212 497 q 235 293 212 385 q 301 133 258 201 q 405 29 344 66 q 541 -7 465 -7 q 727 56 656 -7 q 830 230 798 119 q 863 484 863 340 q 840 688 863 595 q 773 847 817 780 q 669 950 730 913 q 533 987 608 987 q 348 924 418 987 q 244 751 277 861 q 212 497 212 640 m 383 1031 l 384 1031 l 530 1158 l 541 1158 l 689 1031 l 689 1031 l 528 1093 l 544 1093 l 383 1031 m 383 1225 l 383 1296 l 689 1177 l 689 1177 l 383 1225 "},"Ỗ":{"ha":1074,"x_min":60,"x_max":1015,"o":"m 60 490 q 93 684 60 593 q 189 842 127 774 q 339 950 252 911 q 533 989 426 989 q 710 955 624 989 q 865 856 796 920 q 974 699 934 791 q 1015 490 1015 606 q 981 297 1015 388 q 885 138 947 207 q 735 30 822 68 q 541 -9 648 -9 q 364 25 450 -9 q 209 124 278 60 q 100 282 140 189 q 60 490 60 374 m 212 497 q 235 293 212 385 q 301 133 258 201 q 405 29 344 66 q 541 -7 465 -7 q 727 56 656 -7 q 830 230 798 119 q 863 484 863 340 q 840 688 863 595 q 773 847 817 780 q 669 950 730 913 q 533 987 608 987 q 348 924 418 987 q 244 751 277 861 q 212 497 212 640 m 383 1031 l 384 1031 l 530 1158 l 541 1158 l 689 1031 l 689 1031 l 528 1093 l 544 1093 l 383 1031 m 606 1197 q 563 1201 583 1197 q 524 1211 543 1205 l 505 1217 q 469 1226 484 1223 q 439 1230 453 1230 q 400 1219 414 1230 q 384 1183 385 1208 l 383 1183 q 405 1252 383 1227 q 466 1276 426 1276 q 509 1272 488 1276 q 548 1262 529 1267 l 568 1256 q 604 1246 588 1250 q 633 1243 619 1243 q 673 1254 658 1243 q 688 1290 688 1264 l 689 1290 q 668 1221 689 1245 q 606 1197 646 1197 "},"Ổ":{"ha":1074,"x_min":60,"x_max":1015,"o":"m 60 490 q 93 684 60 593 q 189 842 127 774 q 339 950 252 911 q 533 989 426 989 q 710 955 624 989 q 865 856 796 920 q 974 699 934 791 q 1015 490 1015 606 q 981 297 1015 388 q 885 138 947 207 q 735 30 822 68 q 541 -9 648 -9 q 364 25 450 -9 q 209 124 278 60 q 100 282 140 189 q 60 490 60 374 m 212 497 q 235 293 212 385 q 301 133 258 201 q 405 29 344 66 q 541 -7 465 -7 q 727 56 656 -7 q 830 230 798 119 q 863 484 863 340 q 840 688 863 595 q 773 847 817 780 q 669 950 730 913 q 533 987 608 987 q 348 924 418 987 q 244 751 277 861 q 212 497 212 640 m 383 1031 l 384 1031 l 530 1158 l 541 1158 l 689 1031 l 689 1031 l 528 1093 l 544 1093 l 383 1031 m 671 1265 q 729 1248 705 1265 q 753 1203 753 1231 q 725 1159 753 1175 q 637 1133 696 1143 l 637 1134 q 673 1155 660 1141 q 686 1186 686 1168 q 670 1216 686 1205 q 628 1227 654 1227 q 598 1223 611 1227 q 578 1213 585 1219 l 578 1214 q 611 1248 589 1231 q 671 1265 633 1265 "},"Ộ":{"ha":1074,"x_min":60,"x_max":1015,"o":"m 60 490 q 93 684 60 593 q 189 842 127 774 q 339 950 252 911 q 533 989 426 989 q 710 955 624 989 q 865 856 796 920 q 974 699 934 791 q 1015 490 1015 606 q 981 297 1015 388 q 885 138 947 207 q 735 30 822 68 q 541 -9 648 -9 q 364 25 450 -9 q 209 124 278 60 q 100 282 140 189 q 60 490 60 374 m 212 497 q 235 293 212 385 q 301 133 258 201 q 405 29 344 66 q 541 -7 465 -7 q 727 56 656 -7 q 830 230 798 119 q 863 484 863 340 q 840 688 863 595 q 773 847 817 780 q 669 950 730 913 q 533 987 608 987 q 348 924 418 987 q 244 751 277 861 q 212 497 212 640 m 395 1026 q 395 1026 395 1026 q 395 1026 395 1026 l 523 1200 l 561 1200 l 689 1026 l 688 1026 l 514 1140 l 569 1140 l 395 1026 m 543 -132 q 583 -148 566 -132 q 599 -187 599 -165 q 583 -226 599 -210 q 543 -243 566 -243 q 503 -226 519 -243 q 486 -187 486 -210 q 503 -148 486 -165 q 543 -132 519 -132 "},"Ǒ":{"ha":1074,"x_min":60,"x_max":1015,"o":"m 60 490 q 93 684 60 593 q 189 842 127 774 q 339 950 252 911 q 533 989 426 989 q 710 955 624 989 q 865 856 796 920 q 974 699 934 791 q 1015 490 1015 606 q 981 297 1015 388 q 885 138 947 207 q 735 30 822 68 q 541 -9 648 -9 q 364 25 450 -9 q 209 124 278 60 q 100 282 140 189 q 60 490 60 374 m 212 497 q 235 293 212 385 q 301 133 258 201 q 405 29 344 66 q 541 -7 465 -7 q 727 56 656 -7 q 830 230 798 119 q 863 484 863 340 q 840 688 863 595 q 773 847 817 780 q 669 950 730 913 q 533 987 608 987 q 348 924 418 987 q 244 751 277 861 q 212 497 212 640 m 688 1223 q 688 1223 688 1223 q 688 1223 688 1223 l 559 1048 l 522 1048 l 393 1223 l 395 1223 l 568 1109 l 513 1109 l 688 1223 "},"Ŏ":{"ha":1074,"x_min":60,"x_max":1015,"o":"m 60 490 q 93 684 60 593 q 189 842 127 774 q 339 950 252 911 q 533 989 426 989 q 710 955 624 989 q 865 856 796 920 q 974 699 934 791 q 1015 490 1015 606 q 981 297 1015 388 q 885 138 947 207 q 735 30 822 68 q 541 -9 648 -9 q 364 25 450 -9 q 209 124 278 60 q 100 282 140 189 q 60 490 60 374 m 212 497 q 235 293 212 385 q 301 133 258 201 q 405 29 344 66 q 541 -7 465 -7 q 727 56 656 -7 q 830 230 798 119 q 863 484 863 340 q 840 688 863 595 q 773 847 817 780 q 669 950 730 913 q 533 987 608 987 q 348 924 418 987 q 244 751 277 861 q 212 497 212 640 m 536 1072 q 461 1093 492 1072 q 413 1148 430 1114 q 396 1220 396 1182 q 398 1250 396 1236 l 399 1250 q 399 1250 399 1250 q 399 1250 399 1250 q 417 1191 399 1216 q 467 1154 436 1166 q 535 1141 498 1141 q 603 1154 572 1141 q 653 1191 634 1166 q 671 1250 671 1216 q 671 1250 671 1250 q 671 1250 671 1250 l 672 1250 q 674 1220 674 1236 q 657 1148 674 1182 q 610 1093 641 1114 q 536 1072 579 1072 "},"Ȏ":{"ha":1074,"x_min":60,"x_max":1015,"o":"m 60 490 q 93 684 60 593 q 189 842 127 774 q 339 950 252 911 q 533 989 426 989 q 710 955 624 989 q 865 856 796 920 q 974 699 934 791 q 1015 490 1015 606 q 981 297 1015 388 q 885 138 947 207 q 735 30 822 68 q 541 -9 648 -9 q 364 25 450 -9 q 209 124 278 60 q 100 282 140 189 q 60 490 60 374 m 212 497 q 235 293 212 385 q 301 133 258 201 q 405 29 344 66 q 541 -7 465 -7 q 727 56 656 -7 q 830 230 798 119 q 863 484 863 340 q 840 688 863 595 q 773 847 817 780 q 669 950 730 913 q 533 987 608 987 q 348 924 418 987 q 244 751 277 861 q 212 497 212 640 m 534 1250 q 609 1229 578 1250 q 657 1174 640 1208 q 674 1101 674 1140 q 672 1072 674 1086 l 671 1072 q 671 1072 671 1072 q 671 1072 671 1072 q 653 1131 671 1106 q 603 1168 634 1155 q 535 1181 572 1181 q 467 1168 498 1181 q 417 1131 436 1155 q 399 1072 399 1106 q 399 1072 399 1072 q 399 1072 399 1072 l 398 1072 q 396 1101 396 1086 q 413 1174 396 1140 q 460 1229 429 1208 q 534 1250 491 1250 "},"Ö":{"ha":1074,"x_min":60,"x_max":1015,"o":"m 60 490 q 93 684 60 593 q 189 842 127 774 q 339 950 252 911 q 533 989 426 989 q 710 955 624 989 q 865 856 796 920 q 974 699 934 791 q 1015 490 1015 606 q 981 297 1015 388 q 885 138 947 207 q 735 30 822 68 q 541 -9 648 -9 q 364 25 450 -9 q 209 124 278 60 q 100 282 140 189 q 60 490 60 374 m 212 497 q 235 293 212 385 q 301 133 258 201 q 405 29 344 66 q 541 -7 465 -7 q 727 56 656 -7 q 830 230 798 119 q 863 484 863 340 q 840 688 863 595 q 773 847 817 780 q 669 950 730 913 q 533 987 608 987 q 348 924 418 987 q 244 751 277 861 q 212 497 212 640 m 444 1059 q 406 1075 421 1059 q 390 1114 390 1091 q 406 1152 390 1135 q 444 1168 421 1168 q 482 1152 467 1168 q 498 1114 498 1135 q 482 1075 498 1091 q 444 1059 467 1059 m 628 1059 q 589 1075 605 1059 q 574 1114 574 1091 q 589 1152 574 1135 q 628 1168 605 1168 q 666 1152 650 1168 q 682 1114 682 1135 q 666 1075 682 1091 q 628 1059 650 1059 "},"Ȫ":{"ha":1074,"x_min":60,"x_max":1015,"o":"m 60 490 q 93 684 60 593 q 189 842 127 774 q 339 950 252 911 q 533 989 426 989 q 710 955 624 989 q 865 856 796 920 q 974 699 934 791 q 1015 490 1015 606 q 981 297 1015 388 q 885 138 947 207 q 735 30 822 68 q 541 -9 648 -9 q 364 25 450 -9 q 209 124 278 60 q 100 282 140 189 q 60 490 60 374 m 212 497 q 235 293 212 385 q 301 133 258 201 q 405 29 344 66 q 541 -7 465 -7 q 727 56 656 -7 q 830 230 798 119 q 863 484 863 340 q 840 688 863 595 q 773 847 817 780 q 669 950 730 913 q 533 987 608 987 q 348 924 418 987 q 244 751 277 861 q 212 497 212 640 m 450 1072 l 448 1072 q 413 1085 427 1072 q 399 1116 399 1097 q 413 1148 399 1135 q 448 1160 427 1160 l 450 1160 q 485 1148 471 1160 q 498 1116 498 1135 q 485 1085 498 1097 q 450 1072 471 1072 m 623 1072 l 622 1072 q 587 1085 601 1072 q 573 1116 573 1097 q 587 1148 573 1135 q 622 1160 601 1160 l 623 1160 q 658 1148 644 1160 q 672 1116 672 1135 q 658 1085 672 1097 q 623 1072 644 1072 m 383 1226 l 383 1276 l 689 1276 l 689 1226 l 383 1226 "},"Õ":{"ha":1074,"x_min":60,"x_max":1015,"o":"m 60 490 q 93 684 60 593 q 189 842 127 774 q 339 950 252 911 q 533 989 426 989 q 710 955 624 989 q 865 856 796 920 q 974 699 934 791 q 1015 490 1015 606 q 981 297 1015 388 q 885 138 947 207 q 735 30 822 68 q 541 -9 648 -9 q 364 25 450 -9 q 209 124 278 60 q 100 282 140 189 q 60 490 60 374 m 212 497 q 235 293 212 385 q 301 133 258 201 q 405 29 344 66 q 541 -7 465 -7 q 727 56 656 -7 q 830 230 798 119 q 863 484 863 340 q 840 688 863 595 q 773 847 817 780 q 669 950 730 913 q 533 987 608 987 q 348 924 418 987 q 244 751 277 861 q 212 497 212 640 m 600 1046 q 559 1055 579 1046 q 513 1081 538 1064 l 493 1094 q 461 1113 473 1107 q 434 1118 449 1118 q 402 1101 415 1118 q 387 1037 390 1085 l 386 1037 q 406 1150 381 1120 q 471 1180 430 1180 q 512 1172 492 1180 q 558 1145 532 1163 l 578 1133 q 610 1114 597 1120 q 637 1109 622 1109 q 668 1125 656 1109 q 684 1190 681 1142 l 685 1190 q 665 1077 690 1107 q 600 1046 641 1046 "},"Ṍ":{"ha":1074,"x_min":60,"x_max":1015,"o":"m 60 490 q 93 684 60 593 q 189 842 127 774 q 339 950 252 911 q 533 989 426 989 q 710 955 624 989 q 865 856 796 920 q 974 699 934 791 q 1015 490 1015 606 q 981 297 1015 388 q 885 138 947 207 q 735 30 822 68 q 541 -9 648 -9 q 364 25 450 -9 q 209 124 278 60 q 100 282 140 189 q 60 490 60 374 m 212 497 q 235 293 212 385 q 301 133 258 201 q 405 29 344 66 q 541 -7 465 -7 q 727 56 656 -7 q 830 230 798 119 q 863 484 863 340 q 840 688 863 595 q 773 847 817 780 q 669 950 730 913 q 533 987 608 987 q 348 924 418 987 q 244 751 277 861 q 212 497 212 640 m 606 1078 q 563 1082 583 1078 q 524 1091 543 1086 l 505 1097 q 469 1107 484 1103 q 439 1110 453 1110 q 400 1100 414 1110 q 384 1063 385 1089 l 383 1063 q 405 1132 383 1108 q 466 1156 426 1156 q 509 1152 488 1156 q 548 1143 529 1148 l 568 1137 q 604 1127 588 1131 q 633 1124 619 1124 q 673 1134 658 1124 q 688 1171 688 1145 l 689 1171 q 668 1102 689 1126 q 606 1078 646 1078 m 688 1240 l 382 1192 l 382 1192 l 688 1311 l 688 1240 "},"Ṏ":{"ha":1074,"x_min":60,"x_max":1015,"o":"m 60 490 q 93 684 60 593 q 189 842 127 774 q 339 950 252 911 q 533 989 426 989 q 710 955 624 989 q 865 856 796 920 q 974 699 934 791 q 1015 490 1015 606 q 981 297 1015 388 q 885 138 947 207 q 735 30 822 68 q 541 -9 648 -9 q 364 25 450 -9 q 209 124 278 60 q 100 282 140 189 q 60 490 60 374 m 212 497 q 235 293 212 385 q 301 133 258 201 q 405 29 344 66 q 541 -7 465 -7 q 727 56 656 -7 q 830 230 798 119 q 863 484 863 340 q 840 688 863 595 q 773 847 817 780 q 669 950 730 913 q 533 987 608 987 q 348 924 418 987 q 244 751 277 861 q 212 497 212 640 m 606 1078 q 563 1082 583 1078 q 524 1091 543 1086 l 505 1097 q 469 1107 484 1103 q 439 1110 453 1110 q 400 1100 414 1110 q 384 1063 385 1089 l 383 1063 q 405 1132 383 1108 q 466 1156 426 1156 q 509 1152 488 1156 q 548 1143 529 1148 l 568 1137 q 604 1127 588 1131 q 633 1124 619 1124 q 673 1134 658 1124 q 688 1171 688 1145 l 689 1171 q 668 1102 689 1126 q 606 1078 646 1078 m 450 1207 l 448 1207 q 413 1220 427 1207 q 399 1251 399 1232 q 413 1283 399 1270 q 448 1295 427 1295 l 450 1295 q 485 1283 471 1295 q 498 1251 498 1270 q 485 1220 498 1232 q 450 1207 471 1207 m 623 1207 l 622 1207 q 587 1220 601 1207 q 573 1251 573 1232 q 587 1283 573 1270 q 622 1295 601 1295 l 623 1295 q 658 1283 644 1295 q 672 1251 672 1270 q 658 1220 672 1232 q 623 1207 644 1207 "},"Ȭ":{"ha":1074,"x_min":60,"x_max":1015,"o":"m 60 490 q 93 684 60 593 q 189 842 127 774 q 339 950 252 911 q 533 989 426 989 q 710 955 624 989 q 865 856 796 920 q 974 699 934 791 q 1015 490 1015 606 q 981 297 1015 388 q 885 138 947 207 q 735 30 822 68 q 541 -9 648 -9 q 364 25 450 -9 q 209 124 278 60 q 100 282 140 189 q 60 490 60 374 m 212 497 q 235 293 212 385 q 301 133 258 201 q 405 29 344 66 q 541 -7 465 -7 q 727 56 656 -7 q 830 230 798 119 q 863 484 863 340 q 840 688 863 595 q 773 847 817 780 q 669 950 730 913 q 533 987 608 987 q 348 924 418 987 q 244 751 277 861 q 212 497 212 640 m 606 1078 q 563 1082 583 1078 q 524 1091 543 1086 l 505 1097 q 469 1107 484 1103 q 439 1110 453 1110 q 400 1100 414 1110 q 384 1063 385 1089 l 383 1063 q 405 1132 383 1108 q 466 1156 426 1156 q 509 1152 488 1156 q 548 1143 529 1148 l 568 1137 q 604 1127 588 1131 q 633 1124 619 1124 q 673 1134 658 1124 q 688 1171 688 1145 l 689 1171 q 668 1102 689 1126 q 606 1078 646 1078 m 383 1226 l 383 1276 l 689 1276 l 689 1226 l 383 1226 "},"Ō":{"ha":1074,"x_min":60,"x_max":1015,"o":"m 60 490 q 93 684 60 593 q 189 842 127 774 q 339 950 252 911 q 533 989 426 989 q 710 955 624 989 q 865 856 796 920 q 974 699 934 791 q 1015 490 1015 606 q 981 297 1015 388 q 885 138 947 207 q 735 30 822 68 q 541 -9 648 -9 q 364 25 450 -9 q 209 124 278 60 q 100 282 140 189 q 60 490 60 374 m 212 497 q 235 293 212 385 q 301 133 258 201 q 405 29 344 66 q 541 -7 465 -7 q 727 56 656 -7 q 830 230 798 119 q 863 484 863 340 q 840 688 863 595 q 773 847 817 780 q 669 950 730 913 q 533 987 608 987 q 348 924 418 987 q 244 751 277 861 q 212 497 212 640 m 396 1073 l 396 1131 l 676 1131 l 676 1073 l 396 1073 "},"Ṓ":{"ha":1074,"x_min":60,"x_max":1015,"o":"m 60 490 q 93 684 60 593 q 189 842 127 774 q 339 950 252 911 q 533 989 426 989 q 710 955 624 989 q 865 856 796 920 q 974 699 934 791 q 1015 490 1015 606 q 981 297 1015 388 q 885 138 947 207 q 735 30 822 68 q 541 -9 648 -9 q 364 25 450 -9 q 209 124 278 60 q 100 282 140 189 q 60 490 60 374 m 212 497 q 235 293 212 385 q 301 133 258 201 q 405 29 344 66 q 541 -7 465 -7 q 727 56 656 -7 q 830 230 798 119 q 863 484 863 340 q 840 688 863 595 q 773 847 817 780 q 669 950 730 913 q 533 987 608 987 q 348 924 418 987 q 244 751 277 861 q 212 497 212 640 m 383 1092 l 383 1141 l 689 1141 l 689 1092 l 383 1092 m 688 1241 l 382 1192 l 382 1193 l 688 1312 l 688 1241 "},"Ṑ":{"ha":1074,"x_min":60,"x_max":1015,"o":"m 60 490 q 93 684 60 593 q 189 842 127 774 q 339 950 252 911 q 533 989 426 989 q 710 955 624 989 q 865 856 796 920 q 974 699 934 791 q 1015 490 1015 606 q 981 297 1015 388 q 885 138 947 207 q 735 30 822 68 q 541 -9 648 -9 q 364 25 450 -9 q 209 124 278 60 q 100 282 140 189 q 60 490 60 374 m 212 497 q 235 293 212 385 q 301 133 258 201 q 405 29 344 66 q 541 -7 465 -7 q 727 56 656 -7 q 830 230 798 119 q 863 484 863 340 q 840 688 863 595 q 773 847 817 780 q 669 950 730 913 q 533 987 608 987 q 348 924 418 987 q 244 751 277 861 q 212 497 212 640 m 383 1092 l 383 1141 l 689 1141 l 689 1092 l 383 1092 m 383 1241 l 383 1312 l 689 1193 l 689 1192 l 383 1241 "},"Ỏ":{"ha":1074,"x_min":60,"x_max":1015,"o":"m 60 490 q 93 684 60 593 q 189 842 127 774 q 339 950 252 911 q 533 989 426 989 q 710 955 624 989 q 865 856 796 920 q 974 699 934 791 q 1015 490 1015 606 q 981 297 1015 388 q 885 138 947 207 q 735 30 822 68 q 541 -9 648 -9 q 364 25 450 -9 q 209 124 278 60 q 100 282 140 189 q 60 490 60 374 m 212 497 q 235 293 212 385 q 301 133 258 201 q 405 29 344 66 q 541 -7 465 -7 q 727 56 656 -7 q 830 230 798 119 q 863 484 863 340 q 840 688 863 595 q 773 847 817 780 q 669 950 730 913 q 533 987 608 987 q 348 924 418 987 q 244 751 277 861 q 212 497 212 640 m 548 1227 q 609 1207 584 1227 q 634 1158 634 1188 q 606 1095 634 1125 q 507 1035 578 1065 l 505 1035 q 554 1078 536 1055 q 571 1129 571 1102 q 553 1166 571 1152 q 505 1181 536 1181 q 468 1173 485 1181 q 440 1151 452 1164 l 439 1152 q 481 1206 453 1185 q 548 1227 509 1227 "},"Ȯ":{"ha":1074,"x_min":60,"x_max":1015,"o":"m 60 490 q 93 684 60 593 q 189 842 127 774 q 339 950 252 911 q 533 989 426 989 q 710 955 624 989 q 865 856 796 920 q 974 699 934 791 q 1015 490 1015 606 q 981 297 1015 388 q 885 138 947 207 q 735 30 822 68 q 541 -9 648 -9 q 364 25 450 -9 q 209 124 278 60 q 100 282 140 189 q 60 490 60 374 m 212 497 q 235 293 212 385 q 301 133 258 201 q 405 29 344 66 q 541 -7 465 -7 q 727 56 656 -7 q 830 230 798 119 q 863 484 863 340 q 840 688 863 595 q 773 847 817 780 q 669 950 730 913 q 533 987 608 987 q 348 924 418 987 q 244 751 277 861 q 212 497 212 640 m 536 1057 q 496 1074 513 1057 q 479 1113 479 1090 q 496 1152 479 1135 q 536 1168 513 1168 q 576 1152 559 1168 q 592 1113 592 1135 q 576 1074 592 1090 q 536 1057 559 1057 "},"Ȱ":{"ha":1074,"x_min":60,"x_max":1015,"o":"m 60 490 q 93 684 60 593 q 189 842 127 774 q 339 950 252 911 q 533 989 426 989 q 710 955 624 989 q 865 856 796 920 q 974 699 934 791 q 1015 490 1015 606 q 981 297 1015 388 q 885 138 947 207 q 735 30 822 68 q 541 -9 648 -9 q 364 25 450 -9 q 209 124 278 60 q 100 282 140 189 q 60 490 60 374 m 212 497 q 235 293 212 385 q 301 133 258 201 q 405 29 344 66 q 541 -7 465 -7 q 727 56 656 -7 q 830 230 798 119 q 863 484 863 340 q 840 688 863 595 q 773 847 817 780 q 669 950 730 913 q 533 987 608 987 q 348 924 418 987 q 244 751 277 861 q 212 497 212 640 m 536 1072 q 499 1084 514 1072 q 484 1116 484 1097 q 499 1148 484 1135 q 536 1161 514 1161 q 572 1148 557 1161 q 587 1116 587 1135 q 572 1084 587 1097 q 536 1072 557 1072 m 383 1213 l 383 1263 l 689 1263 l 689 1213 l 383 1213 "},"Ọ":{"ha":1074,"x_min":60,"x_max":1015,"o":"m 60 490 q 93 684 60 593 q 189 842 127 774 q 339 950 252 911 q 533 989 426 989 q 710 955 624 989 q 865 856 796 920 q 974 699 934 791 q 1015 490 1015 606 q 981 297 1015 388 q 885 138 947 207 q 735 30 822 68 q 541 -9 648 -9 q 364 25 450 -9 q 209 124 278 60 q 100 282 140 189 q 60 490 60 374 m 212 497 q 235 293 212 385 q 301 133 258 201 q 405 29 344 66 q 541 -7 465 -7 q 727 56 656 -7 q 830 230 798 119 q 863 484 863 340 q 840 688 863 595 q 773 847 817 780 q 669 950 730 913 q 533 987 608 987 q 348 924 418 987 q 244 751 277 861 q 212 497 212 640 m 543 -132 q 583 -148 566 -132 q 599 -187 599 -165 q 583 -226 599 -210 q 543 -243 566 -243 q 503 -226 519 -243 q 486 -187 486 -210 q 503 -148 486 -165 q 543 -132 519 -132 "},"Ǫ":{"ha":1074,"x_min":60,"x_max":1015,"o":"m 60 490 q 93 684 60 593 q 189 842 127 774 q 339 950 252 911 q 533 989 426 989 q 710 955 624 989 q 865 856 796 920 q 974 699 934 791 q 1015 490 1015 606 q 981 297 1015 388 q 885 138 947 207 q 735 30 822 68 q 541 -9 648 -9 q 364 25 450 -9 q 209 124 278 60 q 100 282 140 189 q 60 490 60 374 m 212 497 q 235 293 212 385 q 301 133 258 201 q 405 29 344 66 q 541 -7 465 -7 q 727 56 656 -7 q 830 230 798 119 q 863 484 863 340 q 840 688 863 595 q 773 847 817 780 q 669 950 730 913 q 533 987 608 987 q 348 924 418 987 q 244 751 277 861 q 212 497 212 640 m 550 -317 q 471 -286 502 -317 q 440 -208 440 -255 q 470 -102 440 -152 q 554 -8 500 -53 l 555 -8 q 526 -136 526 -53 q 550 -229 526 -189 q 608 -268 574 -268 q 637 -259 625 -268 q 658 -239 650 -251 l 659 -239 q 618 -296 648 -275 q 550 -317 588 -317 "},"Ǭ":{"ha":1074,"x_min":60,"x_max":1015,"o":"m 60 490 q 93 684 60 593 q 189 842 127 774 q 339 950 252 911 q 533 989 426 989 q 710 955 624 989 q 865 856 796 920 q 974 699 934 791 q 1015 490 1015 606 q 981 297 1015 388 q 885 138 947 207 q 735 30 822 68 q 541 -9 648 -9 q 364 25 450 -9 q 209 124 278 60 q 100 282 140 189 q 60 490 60 374 m 212 497 q 235 293 212 385 q 301 133 258 201 q 405 29 344 66 q 541 -7 465 -7 q 727 56 656 -7 q 830 230 798 119 q 863 484 863 340 q 840 688 863 595 q 773 847 817 780 q 669 950 730 913 q 533 987 608 987 q 348 924 418 987 q 244 751 277 861 q 212 497 212 640 m 550 -317 q 471 -286 502 -317 q 440 -208 440 -255 q 470 -102 440 -152 q 554 -8 500 -53 l 555 -8 q 526 -136 526 -53 q 550 -229 526 -189 q 608 -268 574 -268 q 637 -259 625 -268 q 658 -239 650 -251 l 659 -239 q 618 -296 648 -275 q 550 -317 588 -317 m 396 1073 l 396 1131 l 676 1131 l 676 1073 l 396 1073 "},"Ơ":{"ha":1085,"x_min":60,"x_max":1015,"o":"m 60 490 q 93 684 60 593 q 189 842 127 774 q 339 950 252 911 q 533 989 426 989 q 613 981 577 989 q 682 972 648 972 q 823 1013 775 972 q 870 1114 870 1054 q 863 1164 870 1142 q 845 1197 855 1186 l 846 1197 q 927 1154 895 1186 q 960 1075 960 1121 q 935 1013 960 1038 q 866 974 910 987 q 764 961 822 961 q 704 965 733 961 q 655 972 675 969 l 655 973 q 834 882 753 947 q 965 718 916 817 q 1015 490 1015 618 q 981 297 1015 388 q 885 138 947 207 q 735 30 822 68 q 541 -9 648 -9 q 364 25 450 -9 q 209 124 278 60 q 100 282 140 189 q 60 490 60 374 m 212 497 q 235 293 212 385 q 301 133 258 201 q 405 29 344 66 q 541 -7 465 -7 q 727 56 656 -7 q 830 230 798 119 q 863 484 863 340 q 840 688 863 595 q 773 847 817 780 q 669 950 730 913 q 533 987 608 987 q 348 924 418 987 q 244 751 277 861 q 212 497 212 640 "},"Ớ":{"ha":1085,"x_min":60,"x_max":1015,"o":"m 60 490 q 93 684 60 593 q 189 842 127 774 q 339 950 252 911 q 533 989 426 989 q 613 981 577 989 q 682 972 648 972 q 823 1013 775 972 q 870 1114 870 1054 q 863 1164 870 1142 q 845 1197 855 1186 l 846 1197 q 927 1154 895 1186 q 960 1075 960 1121 q 935 1013 960 1038 q 866 974 910 987 q 764 961 822 961 q 704 965 733 961 q 655 972 675 969 l 655 973 q 834 882 753 947 q 965 718 916 817 q 1015 490 1015 618 q 981 297 1015 388 q 885 138 947 207 q 735 30 822 68 q 541 -9 648 -9 q 364 25 450 -9 q 209 124 278 60 q 100 282 140 189 q 60 490 60 374 m 212 497 q 235 293 212 385 q 301 133 258 201 q 405 29 344 66 q 541 -7 465 -7 q 727 56 656 -7 q 830 230 798 119 q 863 484 863 340 q 840 688 863 595 q 773 847 817 780 q 669 950 730 913 q 533 987 608 987 q 348 924 418 987 q 244 751 277 861 q 212 497 212 640 m 513 1025 l 511 1025 l 585 1199 l 711 1199 l 711 1198 l 513 1025 "},"Ờ":{"ha":1085,"x_min":60,"x_max":1015,"o":"m 60 490 q 93 684 60 593 q 189 842 127 774 q 339 950 252 911 q 533 989 426 989 q 613 981 577 989 q 682 972 648 972 q 823 1013 775 972 q 870 1114 870 1054 q 863 1164 870 1142 q 845 1197 855 1186 l 846 1197 q 927 1154 895 1186 q 960 1075 960 1121 q 935 1013 960 1038 q 866 974 910 987 q 764 961 822 961 q 704 965 733 961 q 655 972 675 969 l 655 973 q 834 882 753 947 q 965 718 916 817 q 1015 490 1015 618 q 981 297 1015 388 q 885 138 947 207 q 735 30 822 68 q 541 -9 648 -9 q 364 25 450 -9 q 209 124 278 60 q 100 282 140 189 q 60 490 60 374 m 212 497 q 235 293 212 385 q 301 133 258 201 q 405 29 344 66 q 541 -7 465 -7 q 727 56 656 -7 q 830 230 798 119 q 863 484 863 340 q 840 688 863 595 q 773 847 817 780 q 669 950 730 913 q 533 987 608 987 q 348 924 418 987 q 244 751 277 861 q 212 497 212 640 m 565 1025 l 363 1198 l 363 1200 l 495 1200 l 566 1025 l 565 1025 "},"Ỡ":{"ha":1085,"x_min":60,"x_max":1015,"o":"m 60 490 q 93 684 60 593 q 189 842 127 774 q 339 950 252 911 q 533 989 426 989 q 613 981 577 989 q 682 972 648 972 q 823 1013 775 972 q 870 1114 870 1054 q 863 1164 870 1142 q 845 1197 855 1186 l 846 1197 q 927 1154 895 1186 q 960 1075 960 1121 q 935 1013 960 1038 q 866 974 910 987 q 764 961 822 961 q 704 965 733 961 q 655 972 675 969 l 655 973 q 834 882 753 947 q 965 718 916 817 q 1015 490 1015 618 q 981 297 1015 388 q 885 138 947 207 q 735 30 822 68 q 541 -9 648 -9 q 364 25 450 -9 q 209 124 278 60 q 100 282 140 189 q 60 490 60 374 m 212 497 q 235 293 212 385 q 301 133 258 201 q 405 29 344 66 q 541 -7 465 -7 q 727 56 656 -7 q 830 230 798 119 q 863 484 863 340 q 840 688 863 595 q 773 847 817 780 q 669 950 730 913 q 533 987 608 987 q 348 924 418 987 q 244 751 277 861 q 212 497 212 640 m 597 1046 q 556 1055 576 1046 q 510 1080 536 1063 l 490 1093 q 458 1112 471 1107 q 431 1117 446 1117 q 400 1101 412 1117 q 384 1036 387 1084 l 383 1036 q 403 1149 378 1119 q 468 1179 427 1179 q 509 1171 489 1179 q 555 1145 530 1162 l 575 1132 q 607 1114 595 1119 q 634 1108 619 1108 q 666 1125 653 1108 q 682 1189 678 1141 l 682 1189 q 663 1076 687 1107 q 597 1046 638 1046 "},"Ở":{"ha":1085,"x_min":60,"x_max":1015,"o":"m 60 490 q 93 684 60 593 q 189 842 127 774 q 339 950 252 911 q 533 989 426 989 q 613 981 577 989 q 682 972 648 972 q 823 1013 775 972 q 870 1114 870 1054 q 863 1164 870 1142 q 845 1197 855 1186 l 846 1197 q 927 1154 895 1186 q 960 1075 960 1121 q 935 1013 960 1038 q 866 974 910 987 q 764 961 822 961 q 704 965 733 961 q 655 972 675 969 l 655 973 q 834 882 753 947 q 965 718 916 817 q 1015 490 1015 618 q 981 297 1015 388 q 885 138 947 207 q 735 30 822 68 q 541 -9 648 -9 q 364 25 450 -9 q 209 124 278 60 q 100 282 140 189 q 60 490 60 374 m 212 497 q 235 293 212 385 q 301 133 258 201 q 405 29 344 66 q 541 -7 465 -7 q 727 56 656 -7 q 830 230 798 119 q 863 484 863 340 q 840 688 863 595 q 773 847 817 780 q 669 950 730 913 q 533 987 608 987 q 348 924 418 987 q 244 751 277 861 q 212 497 212 640 m 545 1226 q 606 1207 581 1226 q 631 1157 631 1187 q 604 1094 631 1124 q 504 1034 576 1064 l 503 1034 q 551 1078 534 1054 q 568 1128 568 1101 q 551 1165 568 1151 q 503 1180 533 1180 q 466 1172 482 1180 q 437 1150 449 1164 l 437 1151 q 478 1205 450 1184 q 545 1226 507 1226 "},"Ợ":{"ha":1085,"x_min":60,"x_max":1015,"o":"m 60 490 q 93 684 60 593 q 189 842 127 774 q 339 950 252 911 q 533 989 426 989 q 613 981 577 989 q 682 972 648 972 q 823 1013 775 972 q 870 1114 870 1054 q 863 1164 870 1142 q 845 1197 855 1186 l 846 1197 q 927 1154 895 1186 q 960 1075 960 1121 q 935 1013 960 1038 q 866 974 910 987 q 764 961 822 961 q 704 965 733 961 q 655 972 675 969 l 655 973 q 834 882 753 947 q 965 718 916 817 q 1015 490 1015 618 q 981 297 1015 388 q 885 138 947 207 q 735 30 822 68 q 541 -9 648 -9 q 364 25 450 -9 q 209 124 278 60 q 100 282 140 189 q 60 490 60 374 m 212 497 q 235 293 212 385 q 301 133 258 201 q 405 29 344 66 q 541 -7 465 -7 q 727 56 656 -7 q 830 230 798 119 q 863 484 863 340 q 840 688 863 595 q 773 847 817 780 q 669 950 730 913 q 533 987 608 987 q 348 924 418 987 q 244 751 277 861 q 212 497 212 640 m 545 -132 q 585 -148 569 -132 q 602 -187 602 -165 q 585 -226 602 -210 q 545 -243 569 -243 q 506 -226 522 -243 q 489 -187 489 -210 q 506 -148 489 -165 q 545 -132 522 -132 "},"Ø":{"ha":1074,"x_min":60,"x_max":1015,"o":"m 60 490 q 93 684 60 593 q 189 842 127 774 q 339 950 252 911 q 533 989 426 989 q 710 955 624 989 q 865 856 796 920 q 974 699 934 791 q 1015 490 1015 606 q 981 297 1015 388 q 885 138 947 207 q 735 30 822 68 q 541 -9 648 -9 q 364 25 450 -9 q 209 124 278 60 q 100 282 140 189 q 60 490 60 374 m 212 497 q 235 293 212 385 q 301 133 258 201 q 405 29 344 66 q 541 -7 465 -7 q 727 56 656 -7 q 830 230 798 119 q 863 484 863 340 q 840 688 863 595 q 773 847 817 780 q 669 950 730 913 q 533 987 608 987 q 348 924 418 987 q 244 751 277 861 q 212 497 212 640 m 941 968 l 945 965 l 133 10 l 129 14 l 941 968 "},"Ǿ":{"ha":1074,"x_min":60,"x_max":1015,"o":"m 60 490 q 93 684 60 593 q 189 842 127 774 q 339 950 252 911 q 533 989 426 989 q 710 955 624 989 q 865 856 796 920 q 974 699 934 791 q 1015 490 1015 606 q 981 297 1015 388 q 885 138 947 207 q 735 30 822 68 q 541 -9 648 -9 q 364 25 450 -9 q 209 124 278 60 q 100 282 140 189 q 60 490 60 374 m 212 497 q 235 293 212 385 q 301 133 258 201 q 405 29 344 66 q 541 -7 465 -7 q 727 56 656 -7 q 830 230 798 119 q 863 484 863 340 q 840 688 863 595 q 773 847 817 780 q 669 950 730 913 q 533 987 608 987 q 348 924 418 987 q 244 751 277 861 q 212 497 212 640 m 941 968 l 945 965 l 133 10 l 129 14 l 941 968 m 515 1025 l 514 1025 l 588 1199 l 714 1199 l 714 1198 l 515 1025 "},"P":{"ha":768,"x_min":31,"x_max":732,"o":"m 732 707 q 699 578 732 633 q 608 489 665 524 q 476 436 550 454 q 321 419 402 419 l 245 419 l 245 99 q 251 47 245 66 q 275 17 257 28 q 330 1 294 7 l 330 0 l 31 0 l 31 1 q 80 17 63 8 q 103 42 97 26 q 110 88 110 59 l 110 891 q 103 937 110 921 q 80 963 97 954 q 31 979 63 972 l 31 979 l 321 979 q 628 907 524 979 q 732 707 732 834 m 586 702 q 558 836 586 774 q 470 935 531 897 q 311 977 410 973 l 245 979 l 245 420 l 311 422 q 468 464 408 425 q 557 566 529 503 q 586 702 586 629 "},"Ṕ":{"ha":768,"x_min":31,"x_max":732,"o":"m 732 707 q 699 578 732 633 q 608 489 665 524 q 476 436 550 454 q 321 419 402 419 l 245 419 l 245 99 q 251 47 245 66 q 275 17 257 28 q 330 1 294 7 l 330 0 l 31 0 l 31 1 q 80 17 63 8 q 103 42 97 26 q 110 88 110 59 l 110 891 q 103 937 110 921 q 80 963 97 954 q 31 979 63 972 l 31 979 l 321 979 q 628 907 524 979 q 732 707 732 834 m 586 702 q 558 836 586 774 q 470 935 531 897 q 311 977 410 973 l 245 979 l 245 420 l 311 422 q 468 464 408 425 q 557 566 529 503 q 586 702 586 629 m 330 1025 l 328 1025 l 402 1200 l 528 1200 l 528 1198 l 330 1025 "},"Ṗ":{"ha":768,"x_min":31,"x_max":732,"o":"m 732 707 q 699 578 732 633 q 608 489 665 524 q 476 436 550 454 q 321 419 402 419 l 245 419 l 245 99 q 251 47 245 66 q 275 17 257 28 q 330 1 294 7 l 330 0 l 31 0 l 31 1 q 80 17 63 8 q 103 42 97 26 q 110 88 110 59 l 110 891 q 103 937 110 921 q 80 963 97 954 q 31 979 63 972 l 31 979 l 321 979 q 628 907 524 979 q 732 707 732 834 m 586 702 q 558 836 586 774 q 470 935 531 897 q 311 977 410 973 l 245 979 l 245 420 l 311 422 q 468 464 408 425 q 557 566 529 503 q 586 702 586 629 m 350 1057 q 310 1074 327 1057 q 294 1113 294 1090 q 310 1152 294 1135 q 350 1168 327 1168 q 390 1152 374 1168 q 406 1113 406 1135 q 390 1074 406 1090 q 350 1057 374 1057 "},"Q":{"ha":1074,"x_min":60,"x_max":1015,"o":"m 60 490 q 93 684 60 593 q 189 842 127 774 q 339 950 252 911 q 533 989 426 989 q 710 955 624 989 q 865 856 796 920 q 974 699 934 791 q 1015 490 1015 606 q 981 297 1015 388 q 885 138 947 207 q 735 30 822 68 q 541 -9 648 -9 q 364 25 450 -9 q 209 124 278 60 q 100 282 140 189 q 60 490 60 374 m 212 497 q 235 293 212 385 q 301 133 258 201 q 405 29 344 66 q 541 -7 465 -7 q 726 56 656 -7 q 830 230 797 119 q 863 484 863 340 q 840 688 863 595 q 774 847 817 780 q 669 950 730 913 q 533 987 608 987 q 348 924 418 987 q 244 751 277 861 q 212 497 212 640 m 833 -221 q 758 -209 793 -221 q 683 -171 722 -197 q 593 -102 644 -145 l 475 -2 q 496 -5 484 -3 q 520 -8 508 -7 q 541 -9 532 -9 q 591 -6 562 -9 q 635 3 620 -3 l 763 -94 q 887 -161 833 -146 q 997 -159 941 -176 l 997 -160 q 922 -204 964 -186 q 833 -221 880 -221 "},"R":{"ha":822,"x_min":31,"x_max":819,"o":"m 723 720 q 696 614 723 661 q 621 535 669 567 q 512 490 574 503 l 512 505 l 675 187 q 738 75 713 113 q 782 22 763 37 q 819 1 800 7 l 819 0 l 629 0 l 393 469 l 245 469 l 245 83 q 252 41 245 56 q 275 18 258 26 q 321 1 291 9 l 321 0 l 31 0 l 31 1 q 80 19 63 9 q 103 44 97 28 q 110 88 110 60 l 110 891 q 103 939 110 922 q 80 964 97 956 q 31 979 63 973 l 31 979 l 324 979 q 544 948 456 979 q 678 858 633 916 q 723 720 723 800 m 582 714 q 557 839 582 781 q 473 936 532 898 q 311 977 414 973 l 245 979 l 245 469 l 332 472 q 511 536 441 475 q 582 714 582 597 "},"Ŕ":{"ha":822,"x_min":31,"x_max":819,"o":"m 723 720 q 696 614 723 661 q 621 535 669 567 q 512 490 574 503 l 512 505 l 675 187 q 738 75 713 113 q 782 22 763 37 q 819 1 800 7 l 819 0 l 629 0 l 393 469 l 245 469 l 245 83 q 252 41 245 56 q 275 18 258 26 q 321 1 291 9 l 321 0 l 31 0 l 31 1 q 80 19 63 9 q 103 44 97 28 q 110 88 110 60 l 110 891 q 103 939 110 922 q 80 964 97 956 q 31 979 63 973 l 31 979 l 324 979 q 544 948 456 979 q 678 858 633 916 q 723 720 723 800 m 582 714 q 557 839 582 781 q 473 936 532 898 q 311 977 414 973 l 245 979 l 245 469 l 332 472 q 511 536 441 475 q 582 714 582 597 m 361 1025 l 360 1025 l 434 1200 l 560 1200 l 560 1198 l 361 1025 "},"Ȑ":{"ha":822,"x_min":31,"x_max":819,"o":"m 723 720 q 696 614 723 661 q 621 535 669 567 q 512 490 574 503 l 512 505 l 675 187 q 738 75 713 113 q 782 22 763 37 q 819 1 800 7 l 819 0 l 629 0 l 393 469 l 245 469 l 245 83 q 252 41 245 56 q 275 18 258 26 q 321 1 291 9 l 321 0 l 31 0 l 31 1 q 80 19 63 9 q 103 44 97 28 q 110 88 110 60 l 110 891 q 103 939 110 922 q 80 964 97 956 q 31 979 63 973 l 31 979 l 324 979 q 544 948 456 979 q 678 858 633 916 q 723 720 723 800 m 582 714 q 557 839 582 781 q 473 936 532 898 q 311 977 414 973 l 245 979 l 245 469 l 332 472 q 511 536 441 475 q 582 714 582 597 m 253 1200 l 334 1025 l 332 1025 l 132 1199 l 132 1200 l 253 1200 m 443 1200 l 493 1025 l 492 1025 l 328 1199 l 328 1200 l 443 1200 "},"Ř":{"ha":822,"x_min":31,"x_max":819,"o":"m 723 720 q 696 614 723 661 q 621 535 669 567 q 512 490 574 503 l 512 505 l 675 187 q 738 75 713 113 q 782 22 763 37 q 819 1 800 7 l 819 0 l 629 0 l 393 469 l 245 469 l 245 83 q 252 41 245 56 q 275 18 258 26 q 321 1 291 9 l 321 0 l 31 0 l 31 1 q 80 19 63 9 q 103 44 97 28 q 110 88 110 60 l 110 891 q 103 939 110 922 q 80 964 97 956 q 31 979 63 973 l 31 979 l 324 979 q 544 948 456 979 q 678 858 633 916 q 723 720 723 800 m 582 714 q 557 839 582 781 q 473 936 532 898 q 311 977 414 973 l 245 979 l 245 469 l 332 472 q 511 536 441 475 q 582 714 582 597 m 534 1223 q 534 1223 534 1223 q 534 1223 534 1223 l 406 1048 l 368 1048 l 239 1223 l 241 1223 l 414 1109 l 359 1109 l 534 1223 "},"Ȓ":{"ha":822,"x_min":31,"x_max":819,"o":"m 723 720 q 696 614 723 661 q 621 535 669 567 q 512 490 574 503 l 512 505 l 675 187 q 738 75 713 113 q 782 22 763 37 q 819 1 800 7 l 819 0 l 629 0 l 393 469 l 245 469 l 245 83 q 252 41 245 56 q 275 18 258 26 q 321 1 291 9 l 321 0 l 31 0 l 31 1 q 80 19 63 9 q 103 44 97 28 q 110 88 110 60 l 110 891 q 103 939 110 922 q 80 964 97 956 q 31 979 63 973 l 31 979 l 324 979 q 544 948 456 979 q 678 858 633 916 q 723 720 723 800 m 582 714 q 557 839 582 781 q 473 936 532 898 q 311 977 414 973 l 245 979 l 245 469 l 332 472 q 511 536 441 475 q 582 714 582 597 m 380 1250 q 455 1229 424 1250 q 503 1174 486 1208 q 520 1101 520 1140 q 518 1072 520 1086 l 517 1072 q 517 1072 517 1072 q 517 1072 517 1072 q 499 1131 517 1106 q 449 1168 480 1155 q 381 1181 418 1181 q 313 1168 344 1181 q 263 1131 282 1155 q 245 1072 245 1106 q 245 1072 245 1072 q 245 1072 245 1072 l 244 1072 q 242 1101 242 1086 q 259 1174 242 1140 q 306 1229 275 1208 q 380 1250 337 1250 "},"Ṟ":{"ha":822,"x_min":31,"x_max":819,"o":"m 723 720 q 696 614 723 661 q 621 535 669 567 q 512 490 574 503 l 512 505 l 675 187 q 738 75 713 113 q 782 22 763 37 q 819 1 800 7 l 819 0 l 629 0 l 393 469 l 245 469 l 245 83 q 252 41 245 56 q 275 18 258 26 q 321 1 291 9 l 321 0 l 31 0 l 31 1 q 80 19 63 9 q 103 44 97 28 q 110 88 110 60 l 110 891 q 103 939 110 922 q 80 964 97 956 q 31 979 63 973 l 31 979 l 324 979 q 544 948 456 979 q 678 858 633 916 q 723 720 723 800 m 582 714 q 557 839 582 781 q 473 936 532 898 q 311 977 414 973 l 245 979 l 245 469 l 332 472 q 511 536 441 475 q 582 714 582 597 "},"Ṙ":{"ha":822,"x_min":31,"x_max":819,"o":"m 723 720 q 696 614 723 661 q 621 535 669 567 q 512 490 574 503 l 512 505 l 675 187 q 738 75 713 113 q 782 22 763 37 q 819 1 800 7 l 819 0 l 629 0 l 393 469 l 245 469 l 245 83 q 252 41 245 56 q 275 18 258 26 q 321 1 291 9 l 321 0 l 31 0 l 31 1 q 80 19 63 9 q 103 44 97 28 q 110 88 110 60 l 110 891 q 103 939 110 922 q 80 964 97 956 q 31 979 63 973 l 31 979 l 324 979 q 544 948 456 979 q 678 858 633 916 q 723 720 723 800 m 582 714 q 557 839 582 781 q 473 936 532 898 q 311 977 414 973 l 245 979 l 245 469 l 332 472 q 511 536 441 475 q 582 714 582 597 m 382 1057 q 342 1074 359 1057 q 326 1113 326 1090 q 342 1152 326 1135 q 382 1168 359 1168 q 422 1152 406 1168 q 438 1113 438 1135 q 422 1074 438 1090 q 382 1057 406 1057 "},"Ṛ":{"ha":822,"x_min":31,"x_max":819,"o":"m 723 720 q 696 614 723 661 q 621 535 669 567 q 512 490 574 503 l 512 505 l 675 187 q 738 75 713 113 q 782 22 763 37 q 819 1 800 7 l 819 0 l 629 0 l 393 469 l 245 469 l 245 83 q 252 41 245 56 q 275 18 258 26 q 321 1 291 9 l 321 0 l 31 0 l 31 1 q 80 19 63 9 q 103 44 97 28 q 110 88 110 60 l 110 891 q 103 939 110 922 q 80 964 97 956 q 31 979 63 973 l 31 979 l 324 979 q 544 948 456 979 q 678 858 633 916 q 723 720 723 800 m 582 714 q 557 839 582 781 q 473 936 532 898 q 311 977 414 973 l 245 979 l 245 469 l 332 472 q 511 536 441 475 q 582 714 582 597 m 382 -132 q 422 -148 406 -132 q 438 -187 438 -165 q 422 -226 438 -210 q 382 -243 406 -243 q 342 -226 359 -243 q 326 -187 326 -210 q 342 -148 326 -165 q 382 -132 359 -132 "},"Ṝ":{"ha":822,"x_min":31,"x_max":819,"o":"m 723 720 q 696 614 723 661 q 621 535 669 567 q 512 490 574 503 l 512 505 l 675 187 q 738 75 713 113 q 782 22 763 37 q 819 1 800 7 l 819 0 l 629 0 l 393 469 l 245 469 l 245 83 q 252 41 245 56 q 275 18 258 26 q 321 1 291 9 l 321 0 l 31 0 l 31 1 q 80 19 63 9 q 103 44 97 28 q 110 88 110 60 l 110 891 q 103 939 110 922 q 80 964 97 956 q 31 979 63 973 l 31 979 l 324 979 q 544 948 456 979 q 678 858 633 916 q 723 720 723 800 m 582 714 q 557 839 582 781 q 473 936 532 898 q 311 977 414 973 l 245 979 l 245 469 l 332 472 q 511 536 441 475 q 582 714 582 597 m 382 -132 q 422 -148 406 -132 q 438 -187 438 -165 q 422 -226 438 -210 q 382 -243 406 -243 q 342 -226 359 -243 q 326 -187 326 -210 q 342 -148 326 -165 q 382 -132 359 -132 m 242 1073 l 242 1131 l 522 1131 l 522 1073 l 242 1073 "},"Ŗ":{"ha":822,"x_min":31,"x_max":819,"o":"m 723 720 q 696 614 723 661 q 621 535 669 567 q 512 490 574 503 l 512 505 l 675 187 q 738 75 713 113 q 782 22 763 37 q 819 1 800 7 l 819 0 l 629 0 l 393 469 l 245 469 l 245 83 q 252 41 245 56 q 275 18 258 26 q 321 1 291 9 l 321 0 l 31 0 l 31 1 q 80 19 63 9 q 103 44 97 28 q 110 88 110 60 l 110 891 q 103 939 110 922 q 80 964 97 956 q 31 979 63 973 l 31 979 l 324 979 q 544 948 456 979 q 678 858 633 916 q 723 720 723 800 m 582 714 q 557 839 582 781 q 473 936 532 898 q 311 977 414 973 l 245 979 l 245 469 l 332 472 q 511 536 441 475 q 582 714 582 597 m 382 -283 q 303 -261 338 -283 q 256 -209 268 -239 l 256 -208 q 294 -234 271 -223 q 342 -245 317 -245 q 392 -231 373 -245 q 411 -193 411 -216 q 391 -154 411 -168 q 341 -140 372 -140 q 314 -143 328 -140 q 294 -150 301 -146 l 294 -149 q 332 -110 309 -129 q 394 -91 355 -91 q 473 -116 441 -91 q 505 -186 505 -142 q 469 -256 505 -229 q 382 -283 434 -283 "},"S":{"ha":735,"x_min":60,"x_max":681,"o":"m 364 -9 q 184 10 256 -9 q 71 54 113 29 l 60 279 l 60 279 q 106 152 77 205 q 174 62 135 98 q 262 10 214 27 q 364 -7 310 -7 q 513 47 453 -7 q 574 201 574 102 q 525 332 574 279 q 373 425 475 384 l 295 456 q 126 571 185 500 q 68 739 68 641 q 113 882 68 827 q 229 963 158 937 q 374 989 299 989 q 529 972 470 989 q 614 938 588 956 l 624 734 l 623 734 q 568 870 602 814 q 486 957 534 926 q 374 987 438 987 q 225 937 276 987 q 175 808 175 887 q 229 676 175 727 q 375 587 283 625 l 450 555 q 621 439 560 510 q 681 270 681 368 q 636 122 681 184 q 518 25 591 59 q 364 -9 446 -9 "},"Ś":{"ha":735,"x_min":60,"x_max":681,"o":"m 364 -9 q 184 10 256 -9 q 71 54 113 29 l 60 279 l 60 279 q 106 152 77 205 q 174 62 135 98 q 262 10 214 27 q 364 -7 310 -7 q 513 47 453 -7 q 574 201 574 102 q 525 332 574 279 q 373 425 475 384 l 295 456 q 126 571 185 500 q 68 739 68 641 q 113 882 68 827 q 229 963 158 937 q 374 989 299 989 q 529 972 470 989 q 614 938 588 956 l 624 734 l 623 734 q 568 870 602 814 q 486 957 534 926 q 374 987 438 987 q 225 937 276 987 q 175 808 175 887 q 229 676 175 727 q 375 587 283 625 l 450 555 q 621 439 560 510 q 681 270 681 368 q 636 122 681 184 q 518 25 591 59 q 364 -9 446 -9 m 349 1025 l 347 1025 l 421 1200 l 547 1200 l 547 1198 l 349 1025 "},"Ṥ":{"ha":735,"x_min":60,"x_max":681,"o":"m 364 -9 q 184 10 256 -9 q 71 54 113 29 l 60 279 l 60 279 q 106 152 77 205 q 174 62 135 98 q 262 10 214 27 q 364 -7 310 -7 q 513 47 453 -7 q 574 201 574 102 q 525 332 574 279 q 373 425 475 384 l 295 456 q 126 571 185 500 q 68 739 68 641 q 113 882 68 827 q 229 963 158 937 q 374 989 299 989 q 529 972 470 989 q 614 938 588 956 l 624 734 l 623 734 q 568 870 602 814 q 486 957 534 926 q 374 987 438 987 q 225 937 276 987 q 175 808 175 887 q 229 676 175 727 q 375 587 283 625 l 450 555 q 621 439 560 510 q 681 270 681 368 q 636 122 681 184 q 518 25 591 59 q 364 -9 446 -9 m 522 1112 l 216 1063 l 216 1063 l 522 1182 l 522 1112 m 369 1192 q 332 1205 347 1192 q 317 1237 317 1218 q 332 1269 317 1256 q 369 1282 347 1282 q 406 1269 391 1282 q 420 1237 420 1256 q 406 1205 420 1218 q 369 1192 391 1192 "},"Ŝ":{"ha":735,"x_min":60,"x_max":681,"o":"m 364 -9 q 184 10 256 -9 q 71 54 113 29 l 60 279 l 60 279 q 106 152 77 205 q 174 62 135 98 q 262 10 214 27 q 364 -7 310 -7 q 513 47 453 -7 q 574 201 574 102 q 525 332 574 279 q 373 425 475 384 l 295 456 q 126 571 185 500 q 68 739 68 641 q 113 882 68 827 q 229 963 158 937 q 374 989 299 989 q 529 972 470 989 q 614 938 588 956 l 624 734 l 623 734 q 568 870 602 814 q 486 957 534 926 q 374 987 438 987 q 225 937 276 987 q 175 808 175 887 q 229 676 175 727 q 375 587 283 625 l 450 555 q 621 439 560 510 q 681 270 681 368 q 636 122 681 184 q 518 25 591 59 q 364 -9 446 -9 m 228 1026 q 228 1026 228 1026 q 228 1026 228 1026 l 356 1200 l 394 1200 l 522 1026 l 521 1026 l 347 1140 l 402 1140 l 228 1026 "},"Š":{"ha":735,"x_min":60,"x_max":681,"o":"m 364 -9 q 184 10 256 -9 q 71 54 113 29 l 60 279 l 60 279 q 106 152 77 205 q 174 62 135 98 q 262 10 214 27 q 364 -7 310 -7 q 513 47 453 -7 q 574 201 574 102 q 525 332 574 279 q 373 425 475 384 l 295 456 q 126 571 185 500 q 68 739 68 641 q 113 882 68 827 q 229 963 158 937 q 374 989 299 989 q 529 972 470 989 q 614 938 588 956 l 624 734 l 623 734 q 568 870 602 814 q 486 957 534 926 q 374 987 438 987 q 225 937 276 987 q 175 808 175 887 q 229 676 175 727 q 375 587 283 625 l 450 555 q 621 439 560 510 q 681 270 681 368 q 636 122 681 184 q 518 25 591 59 q 364 -9 446 -9 m 521 1223 q 521 1223 521 1223 q 521 1223 521 1223 l 393 1048 l 355 1048 l 227 1223 l 228 1223 l 401 1109 l 347 1109 l 521 1223 "},"Ṧ":{"ha":735,"x_min":60,"x_max":681,"o":"m 364 -9 q 184 10 256 -9 q 71 54 113 29 l 60 279 l 60 279 q 106 152 77 205 q 174 62 135 98 q 262 10 214 27 q 364 -7 310 -7 q 513 47 453 -7 q 574 201 574 102 q 525 332 574 279 q 373 425 475 384 l 295 456 q 126 571 185 500 q 68 739 68 641 q 113 882 68 827 q 229 963 158 937 q 374 989 299 989 q 529 972 470 989 q 614 938 588 956 l 624 734 l 623 734 q 568 870 602 814 q 486 957 534 926 q 374 987 438 987 q 225 937 276 987 q 175 808 175 887 q 229 676 175 727 q 375 587 283 625 l 450 555 q 621 439 560 510 q 681 270 681 368 q 636 122 681 184 q 518 25 591 59 q 364 -9 446 -9 m 526 1191 l 526 1190 l 375 1064 l 363 1064 l 212 1190 l 212 1191 l 376 1129 l 361 1129 l 526 1191 m 369 1204 q 332 1217 347 1204 q 317 1249 317 1230 q 332 1280 317 1267 q 369 1293 347 1293 q 406 1280 391 1293 q 420 1249 420 1267 q 406 1217 420 1230 q 369 1204 391 1204 "},"Ṡ":{"ha":735,"x_min":60,"x_max":681,"o":"m 364 -9 q 184 10 256 -9 q 71 54 113 29 l 60 279 l 60 279 q 106 152 77 205 q 174 62 135 98 q 262 10 214 27 q 364 -7 310 -7 q 513 47 453 -7 q 574 201 574 102 q 525 332 574 279 q 373 425 475 384 l 295 456 q 126 571 185 500 q 68 739 68 641 q 113 882 68 827 q 229 963 158 937 q 374 989 299 989 q 529 972 470 989 q 614 938 588 956 l 624 734 l 623 734 q 568 870 602 814 q 486 957 534 926 q 374 987 438 987 q 225 937 276 987 q 175 808 175 887 q 229 676 175 727 q 375 587 283 625 l 450 555 q 621 439 560 510 q 681 270 681 368 q 636 122 681 184 q 518 25 591 59 q 364 -9 446 -9 m 369 1057 q 329 1074 346 1057 q 313 1113 313 1090 q 329 1152 313 1135 q 369 1168 346 1168 q 409 1152 393 1168 q 425 1113 425 1135 q 409 1074 425 1090 q 369 1057 393 1057 "},"Ṣ":{"ha":735,"x_min":60,"x_max":681,"o":"m 364 -9 q 184 10 256 -9 q 71 54 113 29 l 60 279 l 60 279 q 106 152 77 205 q 174 62 135 98 q 262 10 214 27 q 364 -7 310 -7 q 513 47 453 -7 q 574 201 574 102 q 525 332 574 279 q 373 425 475 384 l 295 456 q 126 571 185 500 q 68 739 68 641 q 113 882 68 827 q 229 963 158 937 q 374 989 299 989 q 529 972 470 989 q 614 938 588 956 l 624 734 l 623 734 q 568 870 602 814 q 486 957 534 926 q 374 987 438 987 q 225 937 276 987 q 175 808 175 887 q 229 676 175 727 q 375 587 283 625 l 450 555 q 621 439 560 510 q 681 270 681 368 q 636 122 681 184 q 518 25 591 59 q 364 -9 446 -9 m 369 -132 q 409 -148 393 -132 q 425 -187 425 -165 q 409 -226 425 -210 q 369 -243 393 -243 q 329 -226 346 -243 q 313 -187 313 -210 q 329 -148 313 -165 q 369 -132 346 -132 "},"Ṩ":{"ha":735,"x_min":60,"x_max":681,"o":"m 364 -9 q 184 10 256 -9 q 71 54 113 29 l 60 279 l 60 279 q 106 152 77 205 q 174 62 135 98 q 262 10 214 27 q 364 -7 310 -7 q 513 47 453 -7 q 574 201 574 102 q 525 332 574 279 q 373 425 475 384 l 295 456 q 126 571 185 500 q 68 739 68 641 q 113 882 68 827 q 229 963 158 937 q 374 989 299 989 q 529 972 470 989 q 614 938 588 956 l 624 734 l 623 734 q 568 870 602 814 q 486 957 534 926 q 374 987 438 987 q 225 937 276 987 q 175 808 175 887 q 229 676 175 727 q 375 587 283 625 l 450 555 q 621 439 560 510 q 681 270 681 368 q 636 122 681 184 q 518 25 591 59 q 364 -9 446 -9 m 369 1057 q 329 1074 346 1057 q 313 1113 313 1090 q 329 1152 313 1135 q 369 1168 346 1168 q 409 1152 393 1168 q 425 1113 425 1135 q 409 1074 425 1090 q 369 1057 393 1057 m 369 -132 q 409 -148 393 -132 q 425 -187 425 -165 q 409 -226 425 -210 q 369 -243 393 -243 q 329 -226 346 -243 q 313 -187 313 -210 q 329 -148 313 -165 q 369 -132 346 -132 "},"Ș":{"ha":735,"x_min":60,"x_max":681,"o":"m 364 -9 q 184 10 256 -9 q 71 54 113 29 l 60 279 l 60 279 q 106 152 77 205 q 174 62 135 98 q 262 10 214 27 q 364 -7 310 -7 q 513 47 453 -7 q 574 201 574 102 q 525 332 574 279 q 373 425 475 384 l 295 456 q 126 571 185 500 q 68 739 68 641 q 113 882 68 827 q 229 963 158 937 q 374 989 299 989 q 529 972 470 989 q 614 938 588 956 l 624 734 l 623 734 q 568 870 602 814 q 486 957 534 926 q 374 987 438 987 q 225 937 276 987 q 175 808 175 887 q 229 676 175 727 q 375 587 283 625 l 450 555 q 621 439 560 510 q 681 270 681 368 q 636 122 681 184 q 518 25 591 59 q 364 -9 446 -9 m 369 -283 q 290 -261 326 -283 q 243 -209 255 -239 l 243 -208 q 281 -234 258 -223 q 329 -245 304 -245 q 379 -231 360 -245 q 398 -193 398 -216 q 378 -154 398 -168 q 328 -140 359 -140 q 301 -143 315 -140 q 281 -150 288 -146 l 281 -149 q 319 -110 296 -129 q 381 -91 342 -91 q 460 -116 429 -91 q 492 -186 492 -142 q 456 -256 492 -229 q 369 -283 421 -283 "},"Ş":{"ha":735,"x_min":60,"x_max":681,"o":"m 364 -9 q 184 10 256 -9 q 71 54 113 29 l 60 279 l 60 279 q 106 152 77 205 q 174 62 135 98 q 262 10 214 27 q 364 -7 310 -7 q 513 47 453 -7 q 574 201 574 102 q 525 332 574 279 q 373 425 475 384 l 295 456 q 126 571 185 500 q 68 739 68 641 q 113 882 68 827 q 229 963 158 937 q 374 989 299 989 q 529 972 470 989 q 614 938 588 956 l 624 734 l 623 734 q 568 870 602 814 q 486 957 534 926 q 374 987 438 987 q 225 937 276 987 q 175 808 175 887 q 229 676 175 727 q 375 587 283 625 l 450 555 q 621 439 560 510 q 681 270 681 368 q 636 122 681 184 q 518 25 591 59 q 364 -9 446 -9 m 360 -280 q 288 -262 322 -280 q 241 -214 254 -245 l 241 -214 q 269 -233 252 -226 q 305 -241 286 -241 q 351 -225 332 -241 q 369 -184 369 -210 q 352 -145 369 -159 q 311 -130 335 -130 q 273 -138 283 -130 l 273 -138 l 368 -8 l 370 -8 l 370 -9 l 291 -117 l 291 -115 q 320 -95 300 -103 q 367 -87 341 -86 q 438 -114 409 -87 q 468 -182 468 -140 q 452 -235 468 -214 q 412 -269 436 -257 q 360 -280 387 -280 "},"T":{"ha":811,"x_min":22,"x_max":789,"o":"m 777 979 l 789 763 l 789 763 q 740 886 770 842 q 654 950 709 930 q 511 976 600 970 l 473 979 l 473 99 q 479 47 473 66 q 503 17 485 28 q 557 1 522 7 l 557 0 l 254 0 l 254 1 q 308 17 290 7 q 332 47 326 28 q 338 99 338 66 l 338 979 l 300 976 q 157 950 211 970 q 72 886 102 930 q 22 763 41 842 l 22 763 l 34 979 l 777 979 "},"Ṱ":{"ha":811,"x_min":22,"x_max":789,"o":"m 777 979 l 789 763 l 789 763 q 740 886 770 842 q 654 950 709 930 q 511 976 600 970 l 473 979 l 473 99 q 479 47 473 66 q 503 17 485 28 q 557 1 522 7 l 557 0 l 254 0 l 254 1 q 308 17 290 7 q 332 47 326 28 q 338 99 338 66 l 338 979 l 300 976 q 157 950 211 970 q 72 886 102 930 q 22 763 41 842 l 22 763 l 34 979 l 777 979 "},"Ť":{"ha":811,"x_min":22,"x_max":789,"o":"m 777 979 l 789 763 l 789 763 q 740 886 770 842 q 654 950 709 930 q 511 976 600 970 l 473 979 l 473 99 q 479 47 473 66 q 503 17 485 28 q 557 1 522 7 l 557 0 l 254 0 l 254 1 q 308 17 290 7 q 332 47 326 28 q 338 99 338 66 l 338 979 l 300 976 q 157 950 211 970 q 72 886 102 930 q 22 763 41 842 l 22 763 l 34 979 l 777 979 m 557 1223 q 557 1223 557 1223 q 557 1223 557 1223 l 429 1048 l 391 1048 l 263 1223 l 264 1223 l 438 1109 l 383 1109 l 557 1223 "},"Ṯ":{"ha":811,"x_min":22,"x_max":789,"o":"m 777 979 l 789 763 l 789 763 q 740 886 770 842 q 654 950 709 930 q 511 976 600 970 l 473 979 l 473 99 q 479 47 473 66 q 503 17 485 28 q 557 1 522 7 l 557 0 l 254 0 l 254 1 q 308 17 290 7 q 332 47 326 28 q 338 99 338 66 l 338 979 l 300 976 q 157 950 211 970 q 72 886 102 930 q 22 763 41 842 l 22 763 l 34 979 l 777 979 "},"Ṫ":{"ha":811,"x_min":22,"x_max":789,"o":"m 777 979 l 789 763 l 789 763 q 740 886 770 842 q 654 950 709 930 q 511 976 600 970 l 473 979 l 473 99 q 479 47 473 66 q 503 17 485 28 q 557 1 522 7 l 557 0 l 254 0 l 254 1 q 308 17 290 7 q 332 47 326 28 q 338 99 338 66 l 338 979 l 300 976 q 157 950 211 970 q 72 886 102 930 q 22 763 41 842 l 22 763 l 34 979 l 777 979 m 406 1057 q 366 1074 382 1057 q 349 1113 349 1090 q 366 1152 349 1135 q 406 1168 382 1168 q 446 1152 429 1168 q 462 1113 462 1135 q 446 1074 462 1090 q 406 1057 429 1057 "},"Ṭ":{"ha":811,"x_min":22,"x_max":789,"o":"m 777 979 l 789 763 l 789 763 q 740 886 770 842 q 654 950 709 930 q 511 976 600 970 l 473 979 l 473 99 q 479 47 473 66 q 503 17 485 28 q 557 1 522 7 l 557 0 l 254 0 l 254 1 q 308 17 290 7 q 332 47 326 28 q 338 99 338 66 l 338 979 l 300 976 q 157 950 211 970 q 72 886 102 930 q 22 763 41 842 l 22 763 l 34 979 l 777 979 m 406 -132 q 446 -148 429 -132 q 462 -187 462 -165 q 446 -226 462 -210 q 406 -243 429 -243 q 366 -226 382 -243 q 349 -187 349 -210 q 366 -148 349 -165 q 406 -132 382 -132 "},"Ț":{"ha":811,"x_min":22,"x_max":789,"o":"m 777 979 l 789 763 l 789 763 q 740 886 770 842 q 654 950 709 930 q 511 976 600 970 l 473 979 l 473 99 q 479 47 473 66 q 503 17 485 28 q 557 1 522 7 l 557 0 l 254 0 l 254 1 q 308 17 290 7 q 332 47 326 28 q 338 99 338 66 l 338 979 l 300 976 q 157 950 211 970 q 72 886 102 930 q 22 763 41 842 l 22 763 l 34 979 l 777 979 m 406 -283 q 327 -261 362 -283 q 279 -209 292 -239 l 280 -208 q 317 -234 294 -223 q 366 -245 340 -245 q 416 -231 397 -245 q 435 -193 435 -216 q 415 -154 435 -168 q 365 -140 395 -140 q 338 -143 351 -140 q 317 -150 325 -146 l 317 -149 q 355 -110 332 -129 q 418 -91 378 -91 q 497 -116 465 -91 q 528 -186 528 -142 q 493 -256 528 -229 q 406 -283 458 -283 "},"Ţ":{"ha":811,"x_min":22,"x_max":789,"o":"m 397 -280 q 325 -262 359 -280 q 277 -214 291 -245 l 278 -214 q 305 -233 288 -225 q 342 -241 322 -241 q 387 -225 369 -241 q 406 -184 406 -210 q 389 -145 406 -159 q 347 -130 372 -130 q 309 -138 320 -130 l 309 -138 l 404 1 l 406 1 l 406 0 l 328 -117 l 328 -115 q 357 -95 336 -103 q 404 -87 378 -86 q 454 -100 431 -87 q 491 -133 477 -112 q 505 -182 505 -155 q 489 -235 505 -214 q 448 -269 473 -257 q 397 -280 424 -280 m 777 979 l 789 763 l 789 763 q 740 886 770 842 q 654 950 709 930 q 511 976 600 970 l 473 979 l 473 99 q 479 47 473 66 q 503 17 485 28 q 557 1 522 7 l 557 0 l 254 0 l 254 1 q 308 17 290 7 q 332 47 326 28 q 338 99 338 66 l 338 979 l 300 976 q 157 950 211 970 q 72 886 102 930 q 22 763 41 842 l 22 763 l 34 979 l 777 979 "},"Ŧ":{"ha":811,"x_min":22,"x_max":789,"o":"m 777 979 l 789 763 l 789 763 q 740 886 770 842 q 654 950 709 930 q 511 976 600 970 l 473 979 l 473 99 q 479 47 473 66 q 503 17 485 28 q 557 1 522 7 l 557 0 l 254 0 l 254 1 q 308 17 290 7 q 332 47 326 28 q 338 99 338 66 l 338 979 l 300 976 q 157 950 211 970 q 72 886 102 930 q 22 763 41 842 l 22 763 l 34 979 l 777 979 m 165 499 l 165 505 l 646 505 l 646 499 l 165 499 "},"U":{"ha":922,"x_min":16,"x_max":920,"o":"m 92 897 q 86 940 92 924 q 63 963 80 955 q 16 979 47 972 l 16 979 l 307 979 l 307 979 q 258 963 275 972 q 234 937 241 954 q 228 891 228 921 l 228 395 q 265 170 228 256 q 369 44 302 83 q 522 4 435 4 q 680 51 612 4 q 786 180 748 97 q 821 376 823 264 l 814 779 q 806 895 813 854 q 778 954 798 936 q 718 979 758 971 l 718 979 l 920 979 l 920 979 q 866 955 884 972 q 841 896 848 937 q 833 779 834 854 l 826 376 q 786 177 824 264 q 670 40 748 90 q 471 -9 593 -9 q 330 12 398 -9 q 208 81 262 33 q 123 210 155 130 q 92 408 92 290 l 92 897 "},"Ú":{"ha":922,"x_min":16,"x_max":920,"o":"m 92 897 q 86 940 92 924 q 63 963 80 955 q 16 979 47 972 l 16 979 l 307 979 l 307 979 q 258 963 275 972 q 234 937 241 954 q 228 891 228 921 l 228 395 q 265 170 228 256 q 369 44 302 83 q 522 4 435 4 q 680 51 612 4 q 786 180 748 97 q 821 376 823 264 l 814 779 q 806 895 813 854 q 778 954 798 936 q 718 979 758 971 l 718 979 l 920 979 l 920 979 q 866 955 884 972 q 841 896 848 937 q 833 779 834 854 l 826 376 q 786 177 824 264 q 670 40 748 90 q 471 -9 593 -9 q 330 12 398 -9 q 208 81 262 33 q 123 210 155 130 q 92 408 92 290 l 92 897 m 494 1025 l 492 1025 l 566 1200 l 692 1200 l 692 1198 l 494 1025 "},"Ù":{"ha":922,"x_min":16,"x_max":920,"o":"m 92 897 q 86 940 92 924 q 63 963 80 955 q 16 979 47 972 l 16 979 l 307 979 l 307 979 q 258 963 275 972 q 234 937 241 954 q 228 891 228 921 l 228 395 q 265 170 228 256 q 369 44 302 83 q 522 4 435 4 q 680 51 612 4 q 786 180 748 97 q 821 376 823 264 l 814 779 q 806 895 813 854 q 778 954 798 936 q 718 979 758 971 l 718 979 l 920 979 l 920 979 q 866 955 884 972 q 841 896 848 937 q 833 779 834 854 l 826 376 q 786 177 824 264 q 670 40 748 90 q 471 -9 593 -9 q 330 12 398 -9 q 208 81 262 33 q 123 210 155 130 q 92 408 92 290 l 92 897 m 546 1026 l 345 1199 l 345 1200 l 476 1200 l 547 1026 l 546 1026 "},"Ű":{"ha":922,"x_min":16,"x_max":920,"o":"m 92 897 q 86 940 92 924 q 63 963 80 955 q 16 979 47 972 l 16 979 l 307 979 l 307 979 q 258 963 275 972 q 234 937 241 954 q 228 891 228 921 l 228 395 q 265 170 228 256 q 369 44 302 83 q 522 4 435 4 q 680 51 612 4 q 786 180 748 97 q 821 376 823 264 l 814 779 q 806 895 813 854 q 778 954 798 936 q 718 979 758 971 l 718 979 l 920 979 l 920 979 q 866 955 884 972 q 841 896 848 937 q 833 779 834 854 l 826 376 q 786 177 824 264 q 670 40 748 90 q 471 -9 593 -9 q 330 12 398 -9 q 208 81 262 33 q 123 210 155 130 q 92 408 92 290 l 92 897 m 464 1200 l 579 1201 l 579 1200 l 416 1026 l 414 1026 l 464 1200 m 654 1200 l 775 1201 l 775 1200 l 575 1026 l 574 1026 l 654 1200 "},"Ȕ":{"ha":922,"x_min":16,"x_max":920,"o":"m 92 897 q 86 940 92 924 q 63 963 80 955 q 16 979 47 972 l 16 979 l 307 979 l 307 979 q 258 963 275 972 q 234 937 241 954 q 228 891 228 921 l 228 395 q 265 170 228 256 q 369 44 302 83 q 522 4 435 4 q 680 51 612 4 q 786 180 748 97 q 821 376 823 264 l 814 779 q 806 895 813 854 q 778 954 798 936 q 718 979 758 971 l 718 979 l 920 979 l 920 979 q 866 955 884 972 q 841 896 848 937 q 833 779 834 854 l 826 376 q 786 177 824 264 q 670 40 748 90 q 471 -9 593 -9 q 330 12 398 -9 q 208 81 262 33 q 123 210 155 130 q 92 408 92 290 l 92 897 m 385 1200 l 466 1025 l 465 1025 l 264 1199 l 264 1200 l 385 1200 m 575 1200 l 625 1025 l 624 1025 l 460 1199 l 460 1200 l 575 1200 "},"Û":{"ha":922,"x_min":16,"x_max":920,"o":"m 92 897 q 86 940 92 924 q 63 963 80 955 q 16 979 47 972 l 16 979 l 307 979 l 307 979 q 258 963 275 972 q 234 937 241 954 q 228 891 228 921 l 228 395 q 265 170 228 256 q 369 44 302 83 q 522 4 435 4 q 680 51 612 4 q 786 180 748 97 q 821 376 823 264 l 814 779 q 806 895 813 854 q 778 954 798 936 q 718 979 758 971 l 718 979 l 920 979 l 920 979 q 866 955 884 972 q 841 896 848 937 q 833 779 834 854 l 826 376 q 786 177 824 264 q 670 40 748 90 q 471 -9 593 -9 q 330 12 398 -9 q 208 81 262 33 q 123 210 155 130 q 92 408 92 290 l 92 897 m 373 1026 q 373 1026 373 1026 q 373 1026 373 1026 l 501 1200 l 539 1200 l 667 1026 l 666 1026 l 492 1140 l 547 1140 l 373 1026 "},"Ṷ":{"ha":922,"x_min":16,"x_max":920,"o":"m 92 897 q 86 940 92 924 q 63 963 80 955 q 16 979 47 972 l 16 979 l 307 979 l 307 979 q 258 963 275 972 q 234 937 241 954 q 228 891 228 921 l 228 395 q 265 170 228 256 q 369 44 302 83 q 522 4 435 4 q 680 51 612 4 q 786 180 748 97 q 821 376 823 264 l 814 779 q 806 895 813 854 q 778 954 798 936 q 718 979 758 971 l 718 979 l 920 979 l 920 979 q 866 955 884 972 q 841 896 848 937 q 833 779 834 854 l 826 376 q 786 177 824 264 q 670 40 748 90 q 471 -9 593 -9 q 330 12 398 -9 q 208 81 262 33 q 123 210 155 130 q 92 408 92 290 l 92 897 "},"Ǔ":{"ha":922,"x_min":16,"x_max":920,"o":"m 92 897 q 86 940 92 924 q 63 963 80 955 q 16 979 47 972 l 16 979 l 307 979 l 307 979 q 258 963 275 972 q 234 937 241 954 q 228 891 228 921 l 228 395 q 265 170 228 256 q 369 44 302 83 q 522 4 435 4 q 680 51 612 4 q 786 180 748 97 q 821 376 823 264 l 814 779 q 806 895 813 854 q 778 954 798 936 q 718 979 758 971 l 718 979 l 920 979 l 920 979 q 866 955 884 972 q 841 896 848 937 q 833 779 834 854 l 826 376 q 786 177 824 264 q 670 40 748 90 q 471 -9 593 -9 q 330 12 398 -9 q 208 81 262 33 q 123 210 155 130 q 92 408 92 290 l 92 897 m 666 1223 q 666 1223 666 1223 q 666 1223 666 1223 l 538 1048 l 500 1048 l 372 1223 l 373 1223 l 547 1109 l 492 1109 l 666 1223 "},"Ŭ":{"ha":922,"x_min":16,"x_max":920,"o":"m 92 897 q 86 940 92 924 q 63 963 80 955 q 16 979 47 972 l 16 979 l 307 979 l 307 979 q 258 963 275 972 q 234 937 241 954 q 228 891 228 921 l 228 395 q 265 170 228 256 q 369 44 302 83 q 522 4 435 4 q 680 51 612 4 q 786 180 748 97 q 821 376 823 264 l 814 779 q 806 895 813 854 q 778 954 798 936 q 718 979 758 971 l 718 979 l 920 979 l 920 979 q 866 955 884 972 q 841 896 848 937 q 833 779 834 854 l 826 376 q 786 177 824 264 q 670 40 748 90 q 471 -9 593 -9 q 330 12 398 -9 q 208 81 262 33 q 123 210 155 130 q 92 408 92 290 l 92 897 m 514 1072 q 439 1093 471 1072 q 391 1148 408 1114 q 374 1220 374 1182 q 376 1250 374 1236 l 377 1250 q 377 1250 377 1250 q 377 1250 377 1250 q 396 1191 377 1216 q 445 1154 414 1166 q 513 1141 476 1141 q 582 1154 551 1141 q 631 1191 612 1166 q 650 1250 650 1216 q 650 1250 650 1250 q 650 1250 650 1250 l 650 1250 q 652 1220 652 1236 q 636 1148 652 1182 q 588 1093 619 1114 q 514 1072 557 1072 "},"Ȗ":{"ha":922,"x_min":16,"x_max":920,"o":"m 92 897 q 86 940 92 924 q 63 963 80 955 q 16 979 47 972 l 16 979 l 307 979 l 307 979 q 258 963 275 972 q 234 937 241 954 q 228 891 228 921 l 228 395 q 265 170 228 256 q 369 44 302 83 q 522 4 435 4 q 680 51 612 4 q 786 180 748 97 q 821 376 823 264 l 814 779 q 806 895 813 854 q 778 954 798 936 q 718 979 758 971 l 718 979 l 920 979 l 920 979 q 866 955 884 972 q 841 896 848 937 q 833 779 834 854 l 826 376 q 786 177 824 264 q 670 40 748 90 q 471 -9 593 -9 q 330 12 398 -9 q 208 81 262 33 q 123 210 155 130 q 92 408 92 290 l 92 897 m 513 1250 q 587 1229 556 1250 q 635 1174 618 1208 q 652 1101 652 1140 q 650 1072 652 1086 l 650 1072 q 650 1072 650 1072 q 650 1072 650 1072 q 631 1131 650 1106 q 582 1168 612 1155 q 513 1181 551 1181 q 445 1168 476 1181 q 396 1131 414 1155 q 377 1072 377 1106 q 377 1072 377 1072 q 377 1072 377 1072 l 376 1072 q 374 1101 374 1086 q 391 1174 374 1140 q 438 1229 408 1208 q 513 1250 469 1250 "},"Ü":{"ha":922,"x_min":16,"x_max":920,"o":"m 92 897 q 86 940 92 924 q 63 963 80 955 q 16 979 47 972 l 16 979 l 307 979 l 307 979 q 258 963 275 972 q 234 937 241 954 q 228 891 228 921 l 228 395 q 265 170 228 256 q 369 44 302 83 q 522 4 435 4 q 680 51 612 4 q 786 180 748 97 q 821 376 823 264 l 814 779 q 806 895 813 854 q 778 954 798 936 q 718 979 758 971 l 718 979 l 920 979 l 920 979 q 866 955 884 972 q 841 896 848 937 q 833 779 834 854 l 826 376 q 786 177 824 264 q 670 40 748 90 q 471 -9 593 -9 q 330 12 398 -9 q 208 81 262 33 q 123 210 155 130 q 92 408 92 290 l 92 897 m 422 1059 q 384 1075 399 1059 q 368 1114 368 1091 q 384 1152 368 1135 q 422 1168 399 1168 q 460 1152 445 1168 q 476 1114 476 1135 q 460 1075 476 1091 q 422 1059 445 1059 m 606 1059 q 568 1075 583 1059 q 552 1114 552 1091 q 568 1152 552 1135 q 606 1168 583 1168 q 644 1152 629 1168 q 660 1114 660 1135 q 644 1075 660 1091 q 606 1059 629 1059 "},"Ǘ":{"ha":922,"x_min":16,"x_max":920,"o":"m 92 897 q 86 940 92 924 q 63 963 80 955 q 16 979 47 972 l 16 979 l 307 979 l 307 979 q 258 963 275 972 q 234 937 241 954 q 228 891 228 921 l 228 395 q 265 170 228 256 q 369 44 302 83 q 522 4 435 4 q 680 51 612 4 q 786 180 748 97 q 821 376 823 264 l 814 779 q 806 895 813 854 q 778 954 798 936 q 718 979 758 971 l 718 979 l 920 979 l 920 979 q 866 955 884 972 q 841 896 848 937 q 833 779 834 854 l 826 376 q 786 177 824 264 q 670 40 748 90 q 471 -9 593 -9 q 330 12 398 -9 q 208 81 262 33 q 123 210 155 130 q 92 408 92 290 l 92 897 m 428 1072 l 427 1072 q 392 1085 406 1072 q 378 1116 378 1097 q 392 1148 378 1135 q 427 1160 406 1160 l 428 1160 q 463 1148 449 1160 q 477 1116 477 1135 q 463 1085 477 1097 q 428 1072 449 1072 m 602 1072 l 600 1072 q 565 1085 579 1072 q 551 1116 551 1097 q 565 1148 551 1135 q 600 1160 579 1160 l 602 1160 q 636 1148 623 1160 q 650 1116 650 1135 q 636 1085 650 1097 q 602 1072 623 1072 m 667 1240 l 361 1192 l 361 1192 l 667 1311 l 667 1240 "},"Ǜ":{"ha":922,"x_min":16,"x_max":920,"o":"m 92 897 q 86 940 92 924 q 63 963 80 955 q 16 979 47 972 l 16 979 l 307 979 l 307 979 q 258 963 275 972 q 234 937 241 954 q 228 891 228 921 l 228 395 q 265 170 228 256 q 369 44 302 83 q 522 4 435 4 q 680 51 612 4 q 786 180 748 97 q 821 376 823 264 l 814 779 q 806 895 813 854 q 778 954 798 936 q 718 979 758 971 l 718 979 l 920 979 l 920 979 q 866 955 884 972 q 841 896 848 937 q 833 779 834 854 l 826 376 q 786 177 824 264 q 670 40 748 90 q 471 -9 593 -9 q 330 12 398 -9 q 208 81 262 33 q 123 210 155 130 q 92 408 92 290 l 92 897 m 428 1072 l 427 1072 q 392 1085 406 1072 q 378 1116 378 1097 q 392 1148 378 1135 q 427 1160 406 1160 l 428 1160 q 463 1148 449 1160 q 477 1116 477 1135 q 463 1085 477 1097 q 428 1072 449 1072 m 602 1072 l 600 1072 q 565 1085 579 1072 q 551 1116 551 1097 q 565 1148 551 1135 q 600 1160 579 1160 l 602 1160 q 636 1148 623 1160 q 650 1116 650 1135 q 636 1085 650 1097 q 602 1072 623 1072 m 361 1240 l 361 1311 l 667 1192 l 667 1192 l 361 1240 "},"Ǚ":{"ha":922,"x_min":16,"x_max":920,"o":"m 92 897 q 86 940 92 924 q 63 963 80 955 q 16 979 47 972 l 16 979 l 307 979 l 307 979 q 258 963 275 972 q 234 937 241 954 q 228 891 228 921 l 228 395 q 265 170 228 256 q 369 44 302 83 q 522 4 435 4 q 680 51 612 4 q 786 180 748 97 q 821 376 823 264 l 814 779 q 806 895 813 854 q 778 954 798 936 q 718 979 758 971 l 718 979 l 920 979 l 920 979 q 866 955 884 972 q 841 896 848 937 q 833 779 834 854 l 826 376 q 786 177 824 264 q 670 40 748 90 q 471 -9 593 -9 q 330 12 398 -9 q 208 81 262 33 q 123 210 155 130 q 92 408 92 290 l 92 897 m 428 1072 l 427 1072 q 392 1085 406 1072 q 378 1116 378 1097 q 392 1148 378 1135 q 427 1160 406 1160 l 428 1160 q 463 1148 449 1160 q 477 1116 477 1135 q 463 1085 477 1097 q 428 1072 449 1072 m 602 1072 l 600 1072 q 565 1085 579 1072 q 551 1116 551 1097 q 565 1148 551 1135 q 600 1160 579 1160 l 602 1160 q 636 1148 623 1160 q 650 1116 650 1135 q 636 1085 650 1097 q 602 1072 623 1072 m 667 1312 l 666 1312 l 519 1190 l 509 1190 l 361 1312 l 361 1312 l 522 1253 l 506 1253 l 667 1312 "},"Ǖ":{"ha":922,"x_min":16,"x_max":920,"o":"m 92 897 q 86 940 92 924 q 63 963 80 955 q 16 979 47 972 l 16 979 l 307 979 l 307 979 q 258 963 275 972 q 234 937 241 954 q 228 891 228 921 l 228 395 q 265 170 228 256 q 369 44 302 83 q 522 4 435 4 q 680 51 612 4 q 786 180 748 97 q 821 376 823 264 l 814 779 q 806 895 813 854 q 778 954 798 936 q 718 979 758 971 l 718 979 l 920 979 l 920 979 q 866 955 884 972 q 841 896 848 937 q 833 779 834 854 l 826 376 q 786 177 824 264 q 670 40 748 90 q 471 -9 593 -9 q 330 12 398 -9 q 208 81 262 33 q 123 210 155 130 q 92 408 92 290 l 92 897 m 428 1072 l 427 1072 q 392 1085 406 1072 q 378 1116 378 1097 q 392 1148 378 1135 q 427 1160 406 1160 l 428 1160 q 463 1148 449 1160 q 477 1116 477 1135 q 463 1085 477 1097 q 428 1072 449 1072 m 602 1072 l 600 1072 q 565 1085 579 1072 q 551 1116 551 1097 q 565 1148 551 1135 q 600 1160 579 1160 l 602 1160 q 636 1148 623 1160 q 650 1116 650 1135 q 636 1085 650 1097 q 602 1072 623 1072 m 361 1226 l 361 1276 l 667 1276 l 667 1226 l 361 1226 "},"Ṳ":{"ha":922,"x_min":16,"x_max":920,"o":"m 92 897 q 86 940 92 924 q 63 963 80 955 q 16 979 47 972 l 16 979 l 307 979 l 307 979 q 258 963 275 972 q 234 937 241 954 q 228 891 228 921 l 228 395 q 265 170 228 256 q 369 44 302 83 q 522 4 435 4 q 680 51 612 4 q 786 180 748 97 q 821 376 823 264 l 814 779 q 806 895 813 854 q 778 954 798 936 q 718 979 758 971 l 718 979 l 920 979 l 920 979 q 866 955 884 972 q 841 896 848 937 q 833 779 834 854 l 826 376 q 786 177 824 264 q 670 40 748 90 q 471 -9 593 -9 q 330 12 398 -9 q 208 81 262 33 q 123 210 155 130 q 92 408 92 290 l 92 897 "},"Ũ":{"ha":922,"x_min":16,"x_max":920,"o":"m 92 897 q 86 940 92 924 q 63 963 80 955 q 16 979 47 972 l 16 979 l 307 979 l 307 979 q 258 963 275 972 q 234 937 241 954 q 228 891 228 921 l 228 395 q 265 170 228 256 q 369 44 302 83 q 522 4 435 4 q 680 51 612 4 q 786 180 748 97 q 821 376 823 264 l 814 779 q 806 895 813 854 q 778 954 798 936 q 718 979 758 971 l 718 979 l 920 979 l 920 979 q 866 955 884 972 q 841 896 848 937 q 833 779 834 854 l 826 376 q 786 177 824 264 q 670 40 748 90 q 471 -9 593 -9 q 330 12 398 -9 q 208 81 262 33 q 123 210 155 130 q 92 408 92 290 l 92 897 m 578 1046 q 537 1055 557 1046 q 491 1081 517 1064 l 471 1094 q 439 1113 452 1107 q 412 1118 427 1118 q 381 1101 393 1118 q 365 1037 368 1085 l 364 1037 q 384 1150 359 1120 q 449 1180 408 1180 q 490 1172 470 1180 q 536 1145 511 1163 l 556 1133 q 588 1114 576 1120 q 615 1109 600 1109 q 647 1125 634 1109 q 663 1190 659 1142 l 663 1190 q 644 1077 668 1107 q 578 1046 619 1046 "},"Ṹ":{"ha":922,"x_min":16,"x_max":920,"o":"m 92 897 q 86 940 92 924 q 63 963 80 955 q 16 979 47 972 l 16 979 l 307 979 l 307 979 q 258 963 275 972 q 234 937 241 954 q 228 891 228 921 l 228 395 q 265 170 228 256 q 369 44 302 83 q 522 4 435 4 q 680 51 612 4 q 786 180 748 97 q 821 376 823 264 l 814 779 q 806 895 813 854 q 778 954 798 936 q 718 979 758 971 l 718 979 l 920 979 l 920 979 q 866 955 884 972 q 841 896 848 937 q 833 779 834 854 l 826 376 q 786 177 824 264 q 670 40 748 90 q 471 -9 593 -9 q 330 12 398 -9 q 208 81 262 33 q 123 210 155 130 q 92 408 92 290 l 92 897 m 585 1078 q 542 1082 562 1078 q 503 1091 522 1086 l 483 1097 q 447 1107 463 1103 q 417 1110 431 1110 q 378 1100 393 1110 q 362 1063 363 1089 l 361 1063 q 383 1132 361 1108 q 444 1156 404 1156 q 487 1152 467 1156 q 526 1143 507 1148 l 546 1137 q 582 1127 566 1131 q 612 1124 597 1124 q 651 1134 636 1124 q 667 1171 666 1145 l 667 1171 q 646 1102 667 1126 q 585 1078 625 1078 m 667 1240 l 361 1192 l 361 1192 l 667 1311 l 667 1240 "},"Ṵ":{"ha":922,"x_min":16,"x_max":920,"o":"m 92 897 q 86 940 92 924 q 63 963 80 955 q 16 979 47 972 l 16 979 l 307 979 l 307 979 q 258 963 275 972 q 234 937 241 954 q 228 891 228 921 l 228 395 q 265 170 228 256 q 369 44 302 83 q 522 4 435 4 q 680 51 612 4 q 786 180 748 97 q 821 376 823 264 l 814 779 q 806 895 813 854 q 778 954 798 936 q 718 979 758 971 l 718 979 l 920 979 l 920 979 q 866 955 884 972 q 841 896 848 937 q 833 779 834 854 l 826 376 q 786 177 824 264 q 670 40 748 90 q 471 -9 593 -9 q 330 12 398 -9 q 208 81 262 33 q 123 210 155 130 q 92 408 92 290 l 92 897 "},"Ū":{"ha":922,"x_min":16,"x_max":920,"o":"m 92 897 q 86 940 92 924 q 63 963 80 955 q 16 979 47 972 l 16 979 l 307 979 l 307 979 q 258 963 275 972 q 234 937 241 954 q 228 891 228 921 l 228 395 q 265 170 228 256 q 369 44 302 83 q 522 4 435 4 q 680 51 612 4 q 786 180 748 97 q 821 376 823 264 l 814 779 q 806 895 813 854 q 778 954 798 936 q 718 979 758 971 l 718 979 l 920 979 l 920 979 q 866 955 884 972 q 841 896 848 937 q 833 779 834 854 l 826 376 q 786 177 824 264 q 670 40 748 90 q 471 -9 593 -9 q 330 12 398 -9 q 208 81 262 33 q 123 210 155 130 q 92 408 92 290 l 92 897 m 374 1073 l 374 1131 l 654 1131 l 654 1073 l 374 1073 "},"Ṻ":{"ha":922,"x_min":16,"x_max":920,"o":"m 92 897 q 86 940 92 924 q 63 963 80 955 q 16 979 47 972 l 16 979 l 307 979 l 307 979 q 258 963 275 972 q 234 937 241 954 q 228 891 228 921 l 228 395 q 265 170 228 256 q 369 44 302 83 q 522 4 435 4 q 680 51 612 4 q 786 180 748 97 q 821 376 823 264 l 814 779 q 806 895 813 854 q 778 954 798 936 q 718 979 758 971 l 718 979 l 920 979 l 920 979 q 866 955 884 972 q 841 896 848 937 q 833 779 834 854 l 826 376 q 786 177 824 264 q 670 40 748 90 q 471 -9 593 -9 q 330 12 398 -9 q 208 81 262 33 q 123 210 155 130 q 92 408 92 290 l 92 897 m 372 1092 l 372 1141 l 656 1141 l 656 1092 l 372 1092 m 428 1207 l 427 1207 q 392 1220 406 1207 q 378 1251 378 1232 q 392 1283 378 1270 q 427 1295 406 1295 l 428 1295 q 463 1283 449 1295 q 477 1251 477 1270 q 463 1220 477 1232 q 428 1207 449 1207 m 602 1207 l 600 1207 q 565 1220 579 1207 q 551 1251 551 1232 q 565 1283 551 1270 q 600 1295 579 1295 l 602 1295 q 636 1283 623 1295 q 650 1251 650 1270 q 636 1220 650 1232 q 602 1207 623 1207 "},"Ủ":{"ha":922,"x_min":16,"x_max":920,"o":"m 92 897 q 86 940 92 924 q 63 963 80 955 q 16 979 47 972 l 16 979 l 307 979 l 307 979 q 258 963 275 972 q 234 937 241 954 q 228 891 228 921 l 228 395 q 265 170 228 256 q 369 44 302 83 q 522 4 435 4 q 680 51 612 4 q 786 180 748 97 q 821 376 823 264 l 814 779 q 806 895 813 854 q 778 954 798 936 q 718 979 758 971 l 718 979 l 920 979 l 920 979 q 866 955 884 972 q 841 896 848 937 q 833 779 834 854 l 826 376 q 786 177 824 264 q 670 40 748 90 q 471 -9 593 -9 q 330 12 398 -9 q 208 81 262 33 q 123 210 155 130 q 92 408 92 290 l 92 897 m 526 1227 q 587 1207 562 1227 q 612 1158 612 1188 q 585 1095 612 1125 q 485 1035 557 1065 l 484 1035 q 532 1078 515 1055 q 549 1129 549 1102 q 532 1166 549 1152 q 484 1181 514 1181 q 447 1173 463 1181 q 418 1151 430 1164 l 418 1152 q 459 1206 431 1185 q 526 1227 488 1227 "},"Ů":{"ha":922,"x_min":16,"x_max":920,"o":"m 92 897 q 86 940 92 924 q 63 963 80 955 q 16 979 47 972 l 16 979 l 307 979 l 307 979 q 258 963 275 972 q 234 937 241 954 q 228 891 228 921 l 228 395 q 265 170 228 256 q 369 44 302 83 q 522 4 435 4 q 680 51 612 4 q 786 180 748 97 q 821 376 823 264 l 814 779 q 806 895 813 854 q 778 954 798 936 q 718 979 758 971 l 718 979 l 920 979 l 920 979 q 866 955 884 972 q 841 896 848 937 q 833 779 834 854 l 826 376 q 786 177 824 264 q 670 40 748 90 q 471 -9 593 -9 q 330 12 398 -9 q 208 81 262 33 q 123 210 155 130 q 92 408 92 290 l 92 897 m 384 1147 q 425 1214 384 1192 q 514 1237 466 1237 q 603 1214 562 1237 q 644 1147 644 1192 q 603 1080 644 1102 q 514 1058 562 1058 q 425 1080 467 1058 q 384 1147 384 1102 m 463 1147 q 477 1084 463 1108 q 514 1059 490 1059 q 551 1084 538 1059 q 565 1147 565 1108 q 551 1210 565 1184 q 514 1236 538 1236 q 477 1210 490 1236 q 463 1147 463 1185 "},"Ụ":{"ha":922,"x_min":16,"x_max":920,"o":"m 92 897 q 86 940 92 924 q 63 963 80 955 q 16 979 47 972 l 16 979 l 307 979 l 307 979 q 258 963 275 972 q 234 937 241 954 q 228 891 228 921 l 228 395 q 265 170 228 256 q 369 44 302 83 q 522 4 435 4 q 680 51 612 4 q 786 180 748 97 q 821 376 823 264 l 814 779 q 806 895 813 854 q 778 954 798 936 q 718 979 758 971 l 718 979 l 920 979 l 920 979 q 866 955 884 972 q 841 896 848 937 q 833 779 834 854 l 826 376 q 786 177 824 264 q 670 40 748 90 q 471 -9 593 -9 q 330 12 398 -9 q 208 81 262 33 q 123 210 155 130 q 92 408 92 290 l 92 897 m 492 -132 q 532 -148 516 -132 q 549 -187 549 -165 q 532 -226 549 -210 q 492 -243 516 -243 q 453 -226 469 -243 q 436 -187 436 -210 q 453 -148 436 -165 q 492 -132 469 -132 "},"Ų":{"ha":922,"x_min":16,"x_max":920,"o":"m 92 897 q 86 940 92 924 q 63 963 80 955 q 16 979 47 972 l 16 979 l 307 979 l 307 979 q 258 963 275 972 q 234 937 241 954 q 228 891 228 921 l 228 395 q 265 170 228 256 q 368 44 302 83 q 522 4 435 4 q 680 51 612 4 q 786 181 748 97 q 821 376 823 264 l 814 779 q 806 895 813 854 q 778 954 798 936 q 718 979 758 971 l 718 979 l 920 979 l 920 979 q 866 955 884 972 q 841 896 848 937 q 833 779 834 854 l 826 376 q 786 177 824 264 q 670 40 748 90 q 471 -9 593 -9 q 330 12 398 -9 q 208 81 262 33 q 123 210 155 130 q 92 408 92 290 l 92 897 m 500 -317 q 421 -286 452 -317 q 390 -208 390 -255 q 420 -102 390 -152 q 504 -8 450 -53 l 505 -8 q 475 -136 475 -53 q 500 -229 475 -189 q 557 -268 524 -268 q 587 -259 574 -268 q 608 -239 600 -251 l 608 -239 q 568 -296 597 -275 q 500 -317 538 -317 "},"Ư":{"ha":1000,"x_min":16,"x_max":1044,"o":"m 92 408 l 92 897 q 86 940 92 924 q 63 963 80 955 q 16 979 47 972 l 16 979 l 307 979 l 307 979 q 258 963 275 972 q 234 937 241 954 q 228 891 228 921 l 228 395 q 265 170 228 256 q 368 44 302 83 q 522 4 435 4 q 680 51 612 4 q 786 181 748 97 q 821 376 823 264 l 814 779 q 806 895 813 854 q 778 954 798 936 q 718 979 758 971 l 718 979 l 766 979 q 872 997 829 979 q 936 1046 914 1015 q 957 1116 957 1077 q 949 1164 957 1143 q 932 1197 942 1186 l 933 1197 q 1013 1154 981 1186 q 1044 1078 1044 1121 q 1001 1005 1044 1031 q 882 979 957 979 q 857 980 869 979 q 833 983 845 981 l 836 983 l 826 376 q 786 177 824 264 q 670 40 748 90 q 471 -9 593 -9 q 330 12 398 -9 q 208 81 262 33 q 123 210 155 130 q 92 408 92 290 "},"Ứ":{"ha":1000,"x_min":16,"x_max":1044,"o":"m 92 408 l 92 897 q 86 940 92 924 q 63 963 80 955 q 16 979 47 972 l 16 979 l 307 979 l 307 979 q 258 963 275 972 q 234 937 241 954 q 228 891 228 921 l 228 395 q 265 170 228 256 q 368 44 302 83 q 522 4 435 4 q 680 51 612 4 q 786 181 748 97 q 821 376 823 264 l 814 779 q 806 895 813 854 q 778 954 798 936 q 718 979 758 971 l 718 979 l 766 979 q 872 997 829 979 q 936 1046 914 1015 q 957 1116 957 1077 q 949 1164 957 1143 q 932 1197 942 1186 l 933 1197 q 1013 1154 981 1186 q 1044 1078 1044 1121 q 1001 1005 1044 1031 q 882 979 957 979 q 857 980 869 979 q 833 983 845 981 l 836 983 l 826 376 q 786 177 824 264 q 670 40 748 90 q 471 -9 593 -9 q 330 12 398 -9 q 208 81 262 33 q 123 210 155 130 q 92 408 92 290 m 503 1025 l 502 1025 l 576 1199 l 702 1199 l 702 1198 l 503 1025 "},"Ừ":{"ha":1000,"x_min":16,"x_max":1044,"o":"m 92 408 l 92 897 q 86 940 92 924 q 63 963 80 955 q 16 979 47 972 l 16 979 l 307 979 l 307 979 q 258 963 275 972 q 234 937 241 954 q 228 891 228 921 l 228 395 q 265 170 228 256 q 368 44 302 83 q 522 4 435 4 q 680 51 612 4 q 786 181 748 97 q 821 376 823 264 l 814 779 q 806 895 813 854 q 778 954 798 936 q 718 979 758 971 l 718 979 l 766 979 q 872 997 829 979 q 936 1046 914 1015 q 957 1116 957 1077 q 949 1164 957 1143 q 932 1197 942 1186 l 933 1197 q 1013 1154 981 1186 q 1044 1078 1044 1121 q 1001 1005 1044 1031 q 882 979 957 979 q 857 980 869 979 q 833 983 845 981 l 836 983 l 826 376 q 786 177 824 264 q 670 40 748 90 q 471 -9 593 -9 q 330 12 398 -9 q 208 81 262 33 q 123 210 155 130 q 92 408 92 290 m 555 1025 l 354 1198 l 354 1200 l 486 1200 l 557 1025 l 555 1025 "},"Ữ":{"ha":1000,"x_min":16,"x_max":1044,"o":"m 92 408 l 92 897 q 86 940 92 924 q 63 963 80 955 q 16 979 47 972 l 16 979 l 307 979 l 307 979 q 258 963 275 972 q 234 937 241 954 q 228 891 228 921 l 228 395 q 265 170 228 256 q 368 44 302 83 q 522 4 435 4 q 680 51 612 4 q 786 181 748 97 q 821 376 823 264 l 814 779 q 806 895 813 854 q 778 954 798 936 q 718 979 758 971 l 718 979 l 766 979 q 872 997 829 979 q 936 1046 914 1015 q 957 1116 957 1077 q 949 1164 957 1143 q 932 1197 942 1186 l 933 1197 q 1013 1154 981 1186 q 1044 1078 1044 1121 q 1001 1005 1044 1031 q 882 979 957 979 q 857 980 869 979 q 833 983 845 981 l 836 983 l 826 376 q 786 177 824 264 q 670 40 748 90 q 471 -9 593 -9 q 330 12 398 -9 q 208 81 262 33 q 123 210 155 130 q 92 408 92 290 m 588 1046 q 547 1055 567 1046 q 500 1080 526 1063 l 481 1093 q 449 1112 461 1107 q 422 1117 437 1117 q 390 1101 403 1117 q 374 1036 378 1084 l 374 1036 q 393 1149 369 1119 q 458 1179 418 1179 q 500 1171 479 1179 q 546 1145 520 1162 l 566 1132 q 597 1114 585 1119 q 625 1108 610 1108 q 656 1125 644 1108 q 672 1189 669 1141 l 673 1189 q 653 1076 677 1107 q 588 1046 629 1046 "},"Ử":{"ha":1000,"x_min":16,"x_max":1044,"o":"m 92 408 l 92 897 q 86 940 92 924 q 63 963 80 955 q 16 979 47 972 l 16 979 l 307 979 l 307 979 q 258 963 275 972 q 234 937 241 954 q 228 891 228 921 l 228 395 q 265 170 228 256 q 368 44 302 83 q 522 4 435 4 q 680 51 612 4 q 786 181 748 97 q 821 376 823 264 l 814 779 q 806 895 813 854 q 778 954 798 936 q 718 979 758 971 l 718 979 l 766 979 q 872 997 829 979 q 936 1046 914 1015 q 957 1116 957 1077 q 949 1164 957 1143 q 932 1197 942 1186 l 933 1197 q 1013 1154 981 1186 q 1044 1078 1044 1121 q 1001 1005 1044 1031 q 882 979 957 979 q 857 980 869 979 q 833 983 845 981 l 836 983 l 826 376 q 786 177 824 264 q 670 40 748 90 q 471 -9 593 -9 q 330 12 398 -9 q 208 81 262 33 q 123 210 155 130 q 92 408 92 290 m 536 1226 q 597 1207 572 1226 q 622 1157 622 1187 q 594 1094 622 1124 q 494 1034 566 1064 l 493 1034 q 542 1078 524 1054 q 559 1128 559 1101 q 541 1165 559 1151 q 493 1180 524 1180 q 456 1172 473 1180 q 428 1150 439 1164 l 427 1151 q 469 1205 441 1184 q 536 1226 497 1226 "},"Ự":{"ha":1000,"x_min":16,"x_max":1044,"o":"m 92 408 l 92 897 q 86 940 92 924 q 63 963 80 955 q 16 979 47 972 l 16 979 l 307 979 l 307 979 q 258 963 275 972 q 234 937 241 954 q 228 891 228 921 l 228 395 q 265 170 228 256 q 368 44 302 83 q 522 4 435 4 q 680 51 612 4 q 786 181 748 97 q 821 376 823 264 l 814 779 q 806 895 813 854 q 778 954 798 936 q 718 979 758 971 l 718 979 l 766 979 q 872 997 829 979 q 936 1046 914 1015 q 957 1116 957 1077 q 949 1164 957 1143 q 932 1197 942 1186 l 933 1197 q 1013 1154 981 1186 q 1044 1078 1044 1121 q 1001 1005 1044 1031 q 882 979 957 979 q 857 980 869 979 q 833 983 845 981 l 836 983 l 826 376 q 786 177 824 264 q 670 40 748 90 q 471 -9 593 -9 q 330 12 398 -9 q 208 81 262 33 q 123 210 155 130 q 92 408 92 290 m 540 -132 q 580 -148 564 -132 q 596 -187 596 -165 q 580 -226 596 -210 q 540 -243 564 -243 q 500 -226 517 -243 q 484 -187 484 -210 q 500 -148 484 -165 q 540 -132 517 -132 "},"V":{"ha":844,"x_min":-11,"x_max":854,"o":"m 107 835 q 73 916 89 886 q 37 960 56 945 q -11 979 17 974 l -11 979 l 306 979 l 306 979 q 253 959 271 975 q 235 912 235 943 q 251 835 235 882 l 486 165 l 486 165 l 694 781 q 723 894 718 853 q 710 954 728 935 q 647 979 692 972 l 647 979 l 854 979 l 854 979 q 805 957 826 974 q 763 898 784 939 q 713 778 742 857 l 427 0 l 404 0 l 107 835 "},"Ṽ":{"ha":844,"x_min":-11,"x_max":854,"o":"m 107 835 q 73 916 89 886 q 37 960 56 945 q -11 979 17 974 l -11 979 l 306 979 l 306 979 q 253 959 271 975 q 235 912 235 943 q 251 835 235 882 l 486 165 l 486 165 l 694 781 q 723 894 718 853 q 710 954 728 935 q 647 979 692 972 l 647 979 l 854 979 l 854 979 q 805 957 826 974 q 763 898 784 939 q 713 778 742 857 l 427 0 l 404 0 l 107 835 m 522 1046 q 481 1055 501 1046 q 435 1081 460 1064 l 415 1094 q 383 1113 395 1107 q 356 1118 371 1118 q 325 1101 337 1118 q 309 1037 312 1085 l 308 1037 q 328 1150 303 1120 q 393 1180 352 1180 q 434 1172 414 1180 q 480 1145 454 1163 l 500 1133 q 532 1114 519 1120 q 559 1109 544 1109 q 590 1125 578 1109 q 606 1190 603 1142 l 607 1190 q 587 1077 612 1107 q 522 1046 563 1046 "},"Ṿ":{"ha":844,"x_min":-11,"x_max":854,"o":"m 107 835 q 73 916 89 886 q 37 960 56 945 q -11 979 17 974 l -11 979 l 306 979 l 306 979 q 253 959 271 975 q 235 912 235 943 q 251 835 235 882 l 486 165 l 486 165 l 694 781 q 723 894 718 853 q 710 954 728 935 q 647 979 692 972 l 647 979 l 854 979 l 854 979 q 805 957 826 974 q 763 898 784 939 q 713 778 742 857 l 427 0 l 404 0 l 107 835 m 422 -132 q 462 -148 446 -132 q 478 -187 478 -165 q 462 -226 478 -210 q 422 -243 446 -243 q 382 -226 399 -243 q 366 -187 366 -210 q 382 -148 366 -165 q 422 -132 399 -132 "},"W":{"ha":1357,"x_min":-11,"x_max":1368,"o":"m 106 835 q 70 921 87 892 q 32 963 52 951 q -11 979 12 975 l -11 979 l 306 979 l 306 979 q 253 959 270 975 q 237 913 237 943 q 252 835 237 883 l 456 178 l 456 178 l 642 810 q 662 909 661 876 q 643 957 663 943 q 583 979 624 970 l 583 979 l 877 979 l 877 979 q 831 962 845 974 q 820 920 817 949 q 840 831 823 890 l 1032 178 l 1032 178 l 1213 781 q 1238 894 1234 853 q 1224 954 1242 935 q 1160 979 1206 972 l 1160 979 l 1368 979 l 1368 979 q 1319 957 1339 974 q 1279 898 1299 939 q 1234 778 1260 857 l 975 0 l 952 0 l 670 902 l 692 902 l 401 0 l 378 0 l 106 835 "},"Ẃ":{"ha":1357,"x_min":-11,"x_max":1368,"o":"m 106 835 q 70 921 87 892 q 32 963 52 951 q -11 979 12 975 l -11 979 l 306 979 l 306 979 q 253 959 270 975 q 237 913 237 943 q 252 835 237 883 l 456 178 l 456 178 l 642 810 q 662 909 661 876 q 643 957 663 943 q 583 979 624 970 l 583 979 l 877 979 l 877 979 q 831 962 845 974 q 820 920 817 949 q 840 831 823 890 l 1032 178 l 1032 178 l 1213 781 q 1238 894 1234 853 q 1224 954 1242 935 q 1160 979 1206 972 l 1160 979 l 1368 979 l 1368 979 q 1319 957 1339 974 q 1279 898 1299 939 q 1234 778 1260 857 l 975 0 l 952 0 l 670 902 l 692 902 l 401 0 l 378 0 l 106 835 m 691 1025 l 690 1025 l 764 1200 l 890 1200 l 890 1198 l 691 1025 "},"Ẁ":{"ha":1357,"x_min":-11,"x_max":1368,"o":"m 106 835 q 70 921 87 892 q 32 963 52 951 q -11 979 12 975 l -11 979 l 306 979 l 306 979 q 253 959 270 975 q 237 913 237 943 q 252 835 237 883 l 456 178 l 456 178 l 642 810 q 662 909 661 876 q 643 957 663 943 q 583 979 624 970 l 583 979 l 877 979 l 877 979 q 831 962 845 974 q 820 920 817 949 q 840 831 823 890 l 1032 178 l 1032 178 l 1213 781 q 1238 894 1234 853 q 1224 954 1242 935 q 1160 979 1206 972 l 1160 979 l 1368 979 l 1368 979 q 1319 957 1339 974 q 1279 898 1299 939 q 1234 778 1260 857 l 975 0 l 952 0 l 670 902 l 692 902 l 401 0 l 378 0 l 106 835 m 743 1026 l 542 1199 l 542 1200 l 673 1200 l 745 1026 l 743 1026 "},"Ŵ":{"ha":1357,"x_min":-11,"x_max":1368,"o":"m 106 835 q 70 921 87 892 q 32 963 52 951 q -11 979 12 975 l -11 979 l 306 979 l 306 979 q 253 959 270 975 q 237 913 237 943 q 252 835 237 883 l 456 178 l 456 178 l 642 810 q 662 909 661 876 q 643 957 663 943 q 583 979 624 970 l 583 979 l 877 979 l 877 979 q 831 962 845 974 q 820 920 817 949 q 840 831 823 890 l 1032 178 l 1032 178 l 1213 781 q 1238 894 1234 853 q 1224 954 1242 935 q 1160 979 1206 972 l 1160 979 l 1368 979 l 1368 979 q 1319 957 1339 974 q 1279 898 1299 939 q 1234 778 1260 857 l 975 0 l 952 0 l 670 902 l 692 902 l 401 0 l 378 0 l 106 835 m 570 1026 q 570 1026 570 1026 q 570 1026 570 1026 l 699 1200 l 736 1200 l 865 1026 l 863 1026 l 690 1140 l 745 1140 l 570 1026 "},"Ẅ":{"ha":1357,"x_min":-11,"x_max":1368,"o":"m 106 835 q 70 921 87 892 q 32 963 52 951 q -11 979 12 975 l -11 979 l 306 979 l 306 979 q 253 959 270 975 q 237 913 237 943 q 252 835 237 883 l 456 178 l 456 178 l 642 810 q 662 909 661 876 q 643 957 663 943 q 583 979 624 970 l 583 979 l 877 979 l 877 979 q 831 962 845 974 q 820 920 817 949 q 840 831 823 890 l 1032 178 l 1032 178 l 1213 781 q 1238 894 1234 853 q 1224 954 1242 935 q 1160 979 1206 972 l 1160 979 l 1368 979 l 1368 979 q 1319 957 1339 974 q 1279 898 1299 939 q 1234 778 1260 857 l 975 0 l 952 0 l 670 902 l 692 902 l 401 0 l 378 0 l 106 835 m 619 1059 q 581 1075 597 1059 q 566 1114 566 1091 q 581 1152 566 1135 q 619 1168 597 1168 q 658 1152 642 1168 q 673 1114 673 1135 q 658 1075 673 1091 q 619 1059 642 1059 m 804 1059 q 765 1075 781 1059 q 749 1114 749 1091 q 765 1152 749 1135 q 804 1168 781 1168 q 842 1152 826 1168 q 857 1114 857 1135 q 842 1075 857 1091 q 804 1059 826 1059 "},"Ẇ":{"ha":1357,"x_min":-11,"x_max":1368,"o":"m 106 835 q 70 921 87 892 q 32 963 52 951 q -11 979 12 975 l -11 979 l 306 979 l 306 979 q 253 959 270 975 q 237 913 237 943 q 252 835 237 883 l 456 178 l 456 178 l 642 810 q 662 909 661 876 q 643 957 663 943 q 583 979 624 970 l 583 979 l 877 979 l 877 979 q 831 962 845 974 q 820 920 817 949 q 840 831 823 890 l 1032 178 l 1032 178 l 1213 781 q 1238 894 1234 853 q 1224 954 1242 935 q 1160 979 1206 972 l 1160 979 l 1368 979 l 1368 979 q 1319 957 1339 974 q 1279 898 1299 939 q 1234 778 1260 857 l 975 0 l 952 0 l 670 902 l 692 902 l 401 0 l 378 0 l 106 835 m 711 1057 q 672 1074 688 1057 q 655 1113 655 1090 q 672 1152 655 1135 q 711 1168 688 1168 q 751 1152 735 1168 q 768 1113 768 1135 q 751 1074 768 1090 q 711 1057 735 1057 "},"Ẉ":{"ha":1357,"x_min":-11,"x_max":1368,"o":"m 106 835 q 70 921 87 892 q 32 963 52 951 q -11 979 12 975 l -11 979 l 306 979 l 306 979 q 253 959 270 975 q 237 913 237 943 q 252 835 237 883 l 456 178 l 456 178 l 642 810 q 662 909 661 876 q 643 957 663 943 q 583 979 624 970 l 583 979 l 877 979 l 877 979 q 831 962 845 974 q 820 920 817 949 q 840 831 823 890 l 1032 178 l 1032 178 l 1213 781 q 1238 894 1234 853 q 1224 954 1242 935 q 1160 979 1206 972 l 1160 979 l 1368 979 l 1368 979 q 1319 957 1339 974 q 1279 898 1299 939 q 1234 778 1260 857 l 975 0 l 952 0 l 670 902 l 692 902 l 401 0 l 378 0 l 106 835 m 685 -132 q 725 -148 709 -132 q 741 -187 741 -165 q 725 -226 741 -210 q 685 -243 709 -243 q 645 -226 662 -243 q 629 -187 629 -210 q 645 -148 629 -165 q 685 -132 662 -132 "},"X":{"ha":865,"x_min":0,"x_max":865,"o":"m 144 846 q 97 917 117 890 q 60 957 78 943 q 16 979 41 970 l 16 979 l 306 979 l 306 979 q 256 960 269 972 q 249 927 242 948 q 276 870 255 905 l 726 134 q 775 62 754 88 q 817 23 796 36 q 865 1 838 9 l 865 0 l 564 0 l 564 1 q 609 23 597 8 q 616 59 621 37 q 594 109 612 81 l 144 846 m 199 208 l 391 494 l 391 494 l 215 205 q 152 85 168 127 q 149 25 135 43 q 205 1 162 7 l 205 0 l 0 0 l 0 1 q 52 24 27 7 q 110 83 76 41 q 199 208 144 126 m 657 778 l 471 503 l 471 504 l 642 781 q 703 896 688 856 q 705 955 719 937 q 648 979 691 972 l 648 979 l 853 979 l 853 979 q 802 956 827 973 q 744 898 777 939 q 657 778 711 857 "},"Ẍ":{"ha":865,"x_min":0,"x_max":865,"o":"m 144 846 q 97 917 117 890 q 60 957 78 943 q 16 979 41 970 l 16 979 l 306 979 l 306 979 q 256 960 269 972 q 249 927 242 948 q 276 870 255 905 l 726 134 q 775 62 754 88 q 817 23 796 36 q 865 1 838 9 l 865 0 l 564 0 l 564 1 q 609 23 597 8 q 616 59 621 37 q 594 109 612 81 l 144 846 m 199 208 l 391 494 l 391 494 l 215 205 q 152 85 168 127 q 149 25 135 43 q 205 1 162 7 l 205 0 l 0 0 l 0 1 q 52 24 27 7 q 110 83 76 41 q 199 208 144 126 m 657 778 l 471 503 l 471 504 l 642 781 q 703 896 688 856 q 705 955 719 937 q 648 979 691 972 l 648 979 l 853 979 l 853 979 q 802 956 827 973 q 744 898 777 939 q 657 778 711 857 m 380 1059 q 342 1075 357 1059 q 326 1114 326 1091 q 342 1152 326 1135 q 380 1168 357 1168 q 418 1152 403 1168 q 434 1114 434 1135 q 418 1075 434 1091 q 380 1059 403 1059 m 564 1059 q 526 1075 541 1059 q 510 1114 510 1091 q 526 1152 510 1135 q 564 1168 541 1168 q 602 1152 587 1168 q 618 1114 618 1135 q 602 1075 618 1091 q 564 1059 587 1059 "},"Ẋ":{"ha":865,"x_min":0,"x_max":865,"o":"m 144 846 q 97 917 117 890 q 60 957 78 943 q 16 979 41 970 l 16 979 l 306 979 l 306 979 q 256 960 269 972 q 249 927 242 948 q 276 870 255 905 l 726 134 q 775 62 754 88 q 817 23 796 36 q 865 1 838 9 l 865 0 l 564 0 l 564 1 q 609 23 597 8 q 616 59 621 37 q 594 109 612 81 l 144 846 m 199 208 l 391 494 l 391 494 l 215 205 q 152 85 168 127 q 149 25 135 43 q 205 1 162 7 l 205 0 l 0 0 l 0 1 q 52 24 27 7 q 110 83 76 41 q 199 208 144 126 m 657 778 l 471 503 l 471 504 l 642 781 q 703 896 688 856 q 705 955 719 937 q 648 979 691 972 l 648 979 l 853 979 l 853 979 q 802 956 827 973 q 744 898 777 939 q 657 778 711 857 m 472 1057 q 432 1074 449 1057 q 416 1113 416 1090 q 432 1152 416 1135 q 472 1168 449 1168 q 512 1152 496 1168 q 528 1113 528 1135 q 512 1074 528 1090 q 472 1057 496 1057 "},"Y":{"ha":842,"x_min":-3,"x_max":845,"o":"m 143 827 q 81 923 105 892 q 38 964 57 954 q -3 979 20 975 l -3 979 l 314 979 l 314 979 q 255 939 267 970 q 289 830 243 907 l 489 487 l 489 487 l 651 781 q 704 896 692 855 q 699 954 715 936 q 640 979 683 972 l 640 979 l 845 979 l 845 979 q 796 956 819 973 q 744 898 773 939 q 667 778 715 857 l 489 482 l 489 99 q 495 47 489 66 q 519 17 500 28 q 573 1 537 7 l 573 0 l 269 0 l 269 1 q 324 17 306 7 q 348 47 342 28 q 353 99 353 66 l 353 473 l 143 827 "},"Ý":{"ha":842,"x_min":-3,"x_max":845,"o":"m 143 827 q 81 923 105 892 q 38 964 57 954 q -3 979 20 975 l -3 979 l 314 979 l 314 979 q 255 939 267 970 q 289 830 243 907 l 489 487 l 489 487 l 651 781 q 704 896 692 855 q 699 954 715 936 q 640 979 683 972 l 640 979 l 845 979 l 845 979 q 796 956 819 973 q 744 898 773 939 q 667 778 715 857 l 489 482 l 489 99 q 495 47 489 66 q 519 17 500 28 q 573 1 537 7 l 573 0 l 269 0 l 269 1 q 324 17 306 7 q 348 47 342 28 q 353 99 353 66 l 353 473 l 143 827 m 454 1025 l 453 1025 l 527 1200 l 653 1200 l 653 1198 l 454 1025 "},"Ỳ":{"ha":842,"x_min":-3,"x_max":845,"o":"m 143 827 q 81 923 105 892 q 38 964 57 954 q -3 979 20 975 l -3 979 l 314 979 l 314 979 q 255 939 267 970 q 289 830 243 907 l 489 487 l 489 487 l 651 781 q 704 896 692 855 q 699 954 715 936 q 640 979 683 972 l 640 979 l 845 979 l 845 979 q 796 956 819 973 q 744 898 773 939 q 667 778 715 857 l 489 482 l 489 99 q 495 47 489 66 q 519 17 500 28 q 573 1 537 7 l 573 0 l 269 0 l 269 1 q 324 17 306 7 q 348 47 342 28 q 353 99 353 66 l 353 473 l 143 827 m 507 1026 l 305 1199 l 305 1200 l 437 1200 l 508 1026 l 507 1026 "},"Ŷ":{"ha":842,"x_min":-3,"x_max":845,"o":"m 143 827 q 81 923 105 892 q 38 964 57 954 q -3 979 20 975 l -3 979 l 314 979 l 314 979 q 255 939 267 970 q 289 830 243 907 l 489 487 l 489 487 l 651 781 q 704 896 692 855 q 699 954 715 936 q 640 979 683 972 l 640 979 l 845 979 l 845 979 q 796 956 819 973 q 744 898 773 939 q 667 778 715 857 l 489 482 l 489 99 q 495 47 489 66 q 519 17 500 28 q 573 1 537 7 l 573 0 l 269 0 l 269 1 q 324 17 306 7 q 348 47 342 28 q 353 99 353 66 l 353 473 l 143 827 m 334 1026 q 334 1026 334 1026 q 334 1026 334 1026 l 462 1200 l 500 1200 l 628 1026 l 627 1026 l 453 1140 l 508 1140 l 334 1026 "},"Ÿ":{"ha":842,"x_min":-3,"x_max":845,"o":"m 143 827 q 81 923 105 892 q 38 964 57 954 q -3 979 20 975 l -3 979 l 314 979 l 314 979 q 255 939 267 970 q 289 830 243 907 l 489 487 l 489 487 l 651 781 q 704 896 692 855 q 699 954 715 936 q 640 979 683 972 l 640 979 l 845 979 l 845 979 q 796 956 819 973 q 744 898 773 939 q 667 778 715 857 l 489 482 l 489 99 q 495 47 489 66 q 519 17 500 28 q 573 1 537 7 l 573 0 l 269 0 l 269 1 q 324 17 306 7 q 348 47 342 28 q 353 99 353 66 l 353 473 l 143 827 m 382 1059 q 345 1075 360 1059 q 329 1114 329 1091 q 345 1152 329 1135 q 382 1168 360 1168 q 421 1152 406 1168 q 437 1114 437 1135 q 421 1075 437 1091 q 382 1059 406 1059 m 567 1059 q 528 1075 544 1059 q 513 1114 513 1091 q 528 1152 513 1135 q 567 1168 544 1168 q 605 1152 589 1168 q 621 1114 621 1135 q 605 1075 621 1091 q 567 1059 589 1059 "},"Ỹ":{"ha":842,"x_min":-3,"x_max":845,"o":"m 143 827 q 81 923 105 892 q 38 964 57 954 q -3 979 20 975 l -3 979 l 314 979 l 314 979 q 255 939 267 970 q 289 830 243 907 l 489 487 l 489 487 l 651 781 q 704 896 692 855 q 699 954 715 936 q 640 979 683 972 l 640 979 l 845 979 l 845 979 q 796 956 819 973 q 744 898 773 939 q 667 778 715 857 l 489 482 l 489 99 q 495 47 489 66 q 519 17 500 28 q 573 1 537 7 l 573 0 l 269 0 l 269 1 q 324 17 306 7 q 348 47 342 28 q 353 99 353 66 l 353 473 l 143 827 m 539 1046 q 498 1055 518 1046 q 452 1081 477 1064 l 432 1094 q 400 1113 412 1107 q 373 1118 388 1118 q 341 1101 354 1118 q 326 1037 329 1085 l 325 1037 q 345 1150 320 1120 q 410 1180 369 1180 q 451 1172 431 1180 q 497 1145 471 1163 l 517 1133 q 549 1114 536 1120 q 576 1109 561 1109 q 607 1125 595 1109 q 623 1190 620 1142 l 624 1190 q 604 1077 629 1107 q 539 1046 580 1046 "},"Ȳ":{"ha":842,"x_min":-3,"x_max":845,"o":"m 143 827 q 81 923 105 892 q 38 964 57 954 q -3 979 20 975 l -3 979 l 314 979 l 314 979 q 255 939 267 970 q 289 830 243 907 l 489 487 l 489 487 l 651 781 q 704 896 692 855 q 699 954 715 936 q 640 979 683 972 l 640 979 l 845 979 l 845 979 q 796 956 819 973 q 744 898 773 939 q 667 778 715 857 l 489 482 l 489 99 q 495 47 489 66 q 519 17 500 28 q 573 1 537 7 l 573 0 l 269 0 l 269 1 q 324 17 306 7 q 348 47 342 28 q 353 99 353 66 l 353 473 l 143 827 m 335 1073 l 335 1131 l 615 1131 l 615 1073 l 335 1073 "},"Ỷ":{"ha":842,"x_min":-3,"x_max":845,"o":"m 143 827 q 81 923 105 892 q 38 964 57 954 q -3 979 20 975 l -3 979 l 314 979 l 314 979 q 255 939 267 970 q 289 830 243 907 l 489 487 l 489 487 l 651 781 q 704 896 692 855 q 699 954 715 936 q 640 979 683 972 l 640 979 l 845 979 l 845 979 q 796 956 819 973 q 744 898 773 939 q 667 778 715 857 l 489 482 l 489 99 q 495 47 489 66 q 519 17 500 28 q 573 1 537 7 l 573 0 l 269 0 l 269 1 q 324 17 306 7 q 348 47 342 28 q 353 99 353 66 l 353 473 l 143 827 m 487 1227 q 548 1207 523 1227 q 573 1158 573 1188 q 545 1095 573 1125 q 446 1035 517 1065 l 444 1035 q 493 1078 475 1055 q 510 1129 510 1102 q 492 1166 510 1152 q 444 1181 475 1181 q 407 1173 424 1181 q 379 1151 391 1164 l 378 1152 q 420 1206 392 1185 q 487 1227 448 1227 "},"Ẏ":{"ha":842,"x_min":-3,"x_max":845,"o":"m 143 827 q 81 923 105 892 q 38 964 57 954 q -3 979 20 975 l -3 979 l 314 979 l 314 979 q 255 939 267 970 q 289 830 243 907 l 489 487 l 489 487 l 651 781 q 704 896 692 855 q 699 954 715 936 q 640 979 683 972 l 640 979 l 845 979 l 845 979 q 796 956 819 973 q 744 898 773 939 q 667 778 715 857 l 489 482 l 489 99 q 495 47 489 66 q 519 17 500 28 q 573 1 537 7 l 573 0 l 269 0 l 269 1 q 324 17 306 7 q 348 47 342 28 q 353 99 353 66 l 353 473 l 143 827 m 475 1057 q 435 1074 452 1057 q 418 1113 418 1090 q 435 1152 418 1135 q 475 1168 452 1168 q 515 1152 498 1168 q 531 1113 531 1135 q 515 1074 531 1090 q 475 1057 498 1057 "},"Ỵ":{"ha":842,"x_min":-3,"x_max":845,"o":"m 143 827 q 81 923 105 892 q 38 964 57 954 q -3 979 20 975 l -3 979 l 314 979 l 314 979 q 255 939 267 970 q 289 830 243 907 l 489 487 l 489 487 l 651 781 q 704 896 692 855 q 699 954 715 936 q 640 979 683 972 l 640 979 l 845 979 l 845 979 q 796 956 819 973 q 744 898 773 939 q 667 778 715 857 l 489 482 l 489 99 q 495 47 489 66 q 519 17 500 28 q 573 1 537 7 l 573 0 l 269 0 l 269 1 q 324 17 306 7 q 348 47 342 28 q 353 99 353 66 l 353 473 l 143 827 m 427 -132 q 467 -148 450 -132 q 483 -187 483 -165 q 467 -226 483 -210 q 427 -243 450 -243 q 387 -226 404 -243 q 370 -187 370 -210 q 387 -148 370 -165 q 427 -132 404 -132 "},"Z":{"ha":795,"x_min":41,"x_max":760,"o":"m 745 0 l 41 0 l 41 1 l 598 979 l 468 974 q 282 958 354 970 q 168 923 210 947 q 103 861 126 900 q 64 763 80 822 l 63 763 l 81 979 l 747 979 l 747 978 l 189 1 l 388 8 q 554 24 489 12 q 659 60 619 35 q 721 129 698 85 q 760 240 743 172 l 760 240 l 745 0 "},"Ź":{"ha":795,"x_min":41,"x_max":760,"o":"m 745 0 l 41 0 l 41 1 l 598 979 l 468 974 q 282 958 354 970 q 168 923 210 947 q 103 861 126 900 q 64 763 80 822 l 63 763 l 81 979 l 747 979 l 747 978 l 189 1 l 388 8 q 554 24 489 12 q 659 60 619 35 q 721 129 698 85 q 760 240 743 172 l 760 240 l 745 0 m 395 1025 l 393 1025 l 467 1200 l 593 1200 l 593 1198 l 395 1025 "},"Ẑ":{"ha":795,"x_min":41,"x_max":760,"o":"m 745 0 l 41 0 l 41 1 l 598 979 l 468 974 q 282 958 354 970 q 168 923 210 947 q 103 861 126 900 q 64 763 80 822 l 63 763 l 81 979 l 747 979 l 747 978 l 189 1 l 388 8 q 554 24 489 12 q 659 60 619 35 q 721 129 698 85 q 760 240 743 172 l 760 240 l 745 0 m 274 1026 q 274 1026 274 1026 q 274 1026 274 1026 l 402 1200 l 440 1200 l 568 1026 l 567 1026 l 393 1140 l 448 1140 l 274 1026 "},"Ž":{"ha":795,"x_min":41,"x_max":760,"o":"m 745 0 l 41 0 l 41 1 l 598 979 l 468 974 q 282 958 354 970 q 168 923 210 947 q 103 861 126 900 q 64 763 80 822 l 63 763 l 81 979 l 747 979 l 747 978 l 189 1 l 388 8 q 554 24 489 12 q 659 60 619 35 q 721 129 698 85 q 760 240 743 172 l 760 240 l 745 0 m 567 1223 q 567 1223 567 1223 q 567 1223 567 1223 l 439 1048 l 401 1048 l 273 1223 l 274 1223 l 448 1109 l 393 1109 l 567 1223 "}}}
